<?xml version="1.0" encoding="utf-8" standalone="no"?>
<!DOCTYPE svg PUBLIC "-//W3C//DTD SVG 1.1//EN"
  "http://www.w3.org/Graphics/SVG/1.1/DTD/svg11.dtd">
<svg xmlns:xlink="http://www.w3.org/1999/xlink" width="679.033281pt" height="497.6775pt" viewBox="0 0 679.033281 497.6775" xmlns="http://www.w3.org/2000/svg" version="1.1">
 <metadata>
  <rdf:RDF xmlns:dc="http://purl.org/dc/elements/1.1/" xmlns:cc="http://creativecommons.org/ns#" xmlns:rdf="http://www.w3.org/1999/02/22-rdf-syntax-ns#">
   <cc:Work>
    <dc:type rdf:resource="http://purl.org/dc/dcmitype/StillImage"/>
    <dc:date>2025-10-15T13:47:35.851729</dc:date>
    <dc:format>image/svg+xml</dc:format>
    <dc:creator>
     <cc:Agent>
      <dc:title>Matplotlib v3.9.4, https://matplotlib.org/</dc:title>
     </cc:Agent>
    </dc:creator>
   </cc:Work>
  </rdf:RDF>
 </metadata>
 <defs>
  <style type="text/css">*{stroke-linejoin: round; stroke-linecap: butt}</style>
 </defs>
 <g id="figure_1">
  <g id="patch_1">
   <path d="M 0 497.6775 
L 679.033281 497.6775 
L 679.033281 0 
L 0 0 
z
" style="fill: #ffffff"/>
  </g>
  <g id="axes_1">
   <g id="patch_2">
    <path d="M 524.199531 266.715 
C 524.199531 237.330778 518.41148 208.23228 507.166625 181.084798 
C 495.92177 153.937317 479.438795 129.268802 458.661012 108.491019 
C 437.88323 87.713236 413.214714 71.230261 386.067233 59.985406 
C 358.919751 48.740551 329.821254 42.9525 300.437031 42.9525 
C 271.052809 42.9525 241.954311 48.740551 214.80683 59.985406 
C 187.659348 71.230261 162.990833 87.713236 142.21305 108.491019 
C 121.435267 129.268802 104.952292 153.937317 93.707437 181.084798 
C 82.462582 208.23228 76.674531 237.330778 76.674531 266.715 
C 76.674531 296.099222 82.462582 325.19772 93.707437 352.345202 
C 104.952292 379.492683 121.435267 404.161198 142.21305 424.938981 
C 162.990833 445.716764 187.659348 462.199739 214.80683 473.444594 
C 241.954311 484.689449 271.052809 490.4775 300.437031 490.4775 
C 329.821254 490.4775 358.919751 484.689449 386.067233 473.444594 
C 413.214714 462.199739 437.88323 445.716764 458.661012 424.938981 
C 479.438795 404.161198 495.92177 379.492683 507.166625 352.345202 
C 518.41148 325.19772 524.199531 296.099222 524.199531 266.715 
M 300.437031 266.715 
C 300.437031 266.715 300.437031 266.715 300.437031 266.715 
C 300.437031 266.715 300.437031 266.715 300.437031 266.715 
C 300.437031 266.715 300.437031 266.715 300.437031 266.715 
C 300.437031 266.715 300.437031 266.715 300.437031 266.715 
C 300.437031 266.715 300.437031 266.715 300.437031 266.715 
C 300.437031 266.715 300.437031 266.715 300.437031 266.715 
C 300.437031 266.715 300.437031 266.715 300.437031 266.715 
C 300.437031 266.715 300.437031 266.715 300.437031 266.715 
C 300.437031 266.715 300.437031 266.715 300.437031 266.715 
C 300.437031 266.715 300.437031 266.715 300.437031 266.715 
C 300.437031 266.715 300.437031 266.715 300.437031 266.715 
C 300.437031 266.715 300.437031 266.715 300.437031 266.715 
C 300.437031 266.715 300.437031 266.715 300.437031 266.715 
C 300.437031 266.715 300.437031 266.715 300.437031 266.715 
C 300.437031 266.715 300.437031 266.715 300.437031 266.715 
C 300.437031 266.715 300.437031 266.715 300.437031 266.715 
z
" style="fill: #ffffff"/>
   </g>
   <g id="patch_3">
    <path d="M 420.821256 266.715 
L 364.992512 154.901627 
L 214.064706 117.113745 
L 76.674531 266.715 
L 188.555781 460.499009 
L 387.413515 417.362689 
z
" clip-path="url(#p4350a3e3f0)" style="fill: #db443c; opacity: 0.25; stroke: #db443c; stroke-linejoin: miter"/>
   </g>
   <g id="patch_4">
    <path d="M 384.571731 266.715 
L 412.318281 72.930991 
L 188.555781 72.930991 
L 100.840881 266.715 
L 192.471625 453.716569 
L 395.155697 430.772542 
z
" clip-path="url(#p4350a3e3f0)" style="fill: #f57b56; opacity: 0.25; stroke: #f57b56; stroke-linejoin: miter"/>
   </g>
   <g id="patch_5">
    <path d="M 431.785619 266.715 
L 381.550937 126.221593 
L 254.118194 186.48842 
L 89.205231 266.715 
L 193.366675 452.166297 
L 381.59569 407.28592 
z
" clip-path="url(#p4350a3e3f0)" style="fill: #fdb670; opacity: 0.25; stroke: #fdb670; stroke-linejoin: miter"/>
   </g>
   <g id="patch_6">
    <path d="M 404.039069 266.715 
L 381.998462 125.446457 
L 292.940987 253.731471 
L 248.747894 266.715 
L 274.144937 312.254242 
L 339.036062 333.570483 
z
" clip-path="url(#p4350a3e3f0)" style="fill: #82b5d5; opacity: 0.25; stroke: #82b5d5; stroke-linejoin: miter"/>
   </g>
   <g id="patch_7">
    <path d="M 460.650981 266.715 
L 383.005394 123.702401 
L 300.437031 266.715 
L 300.437031 266.715 
L 300.437031 266.715 
L 332.972099 323.06739 
z
" clip-path="url(#p4350a3e3f0)" style="fill: #5682bb; opacity: 0.25; stroke: #5682bb; stroke-linejoin: miter"/>
   </g>
   <g id="patch_8">
    <path d="M 341.161806 266.715 
L 300.437031 266.715 
L 260.719187 197.921677 
L 238.454819 266.715 
L 249.866706 354.305372 
L 328.765364 315.781111 
z
" clip-path="url(#p4350a3e3f0)" style="fill: #454a9f; opacity: 0.25; stroke: #454a9f; stroke-linejoin: miter"/>
   </g>
   <g id="matplotlib.axis_1">
    <g id="xtick_1">
     <g id="line2d_1">
      <path d="M 300.437031 266.715 
L 524.199531 266.715 
" clip-path="url(#p4350a3e3f0)" style="fill: none; stroke-dasharray: 2.96,1.28; stroke-dashoffset: 0; stroke: #808080; stroke-opacity: 0.6; stroke-width: 0.8"/>
     </g>
     <g id="text_1">
      <!-- Surrogate -->
      <g transform="translate(506.235469 261.517313) scale(0.19 -0.19)">
       <defs>
        <path id="TimesNewRomanPS-BoldMT-53" d="M 3006 4334 
L 3041 2922 
L 2913 2922 
Q 2822 3453 2467 3776 
Q 2113 4100 1700 4100 
Q 1381 4100 1195 3929 
Q 1009 3759 1009 3538 
Q 1009 3397 1075 3288 
Q 1166 3141 1366 2997 
Q 1513 2894 2044 2631 
Q 2788 2266 3047 1941 
Q 3303 1616 3303 1197 
Q 3303 666 2889 283 
Q 2475 -100 1838 -100 
Q 1638 -100 1459 -59 
Q 1281 -19 1013 94 
Q 863 156 766 156 
Q 684 156 593 93 
Q 503 31 447 -97 
L 331 -97 
L 331 1503 
L 447 1503 
Q 584 828 976 473 
Q 1369 119 1822 119 
Q 2172 119 2380 309 
Q 2588 500 2588 753 
Q 2588 903 2508 1043 
Q 2428 1184 2265 1311 
Q 2103 1438 1691 1641 
Q 1113 1925 859 2125 
Q 606 2325 470 2572 
Q 334 2819 334 3116 
Q 334 3622 706 3978 
Q 1078 4334 1644 4334 
Q 1850 4334 2044 4284 
Q 2191 4247 2402 4145 
Q 2613 4044 2697 4044 
Q 2778 4044 2825 4094 
Q 2872 4144 2913 4334 
L 3006 4334 
z
" transform="scale(0.015625)"/>
        <path id="TimesNewRomanPS-BoldMT-75" d="M 3038 2922 
L 3038 634 
Q 3038 300 3100 217 
Q 3163 134 3353 113 
L 3353 0 
L 2163 0 
L 2163 391 
Q 1953 141 1743 26 
Q 1534 -88 1275 -88 
Q 1028 -88 836 64 
Q 644 216 578 419 
Q 513 622 513 1128 
L 513 2288 
Q 513 2619 452 2700 
Q 391 2781 197 2806 
L 197 2922 
L 1388 2922 
L 1388 925 
Q 1388 613 1417 522 
Q 1447 431 1511 384 
Q 1575 338 1659 338 
Q 1772 338 1863 397 
Q 1988 478 2163 725 
L 2163 2288 
Q 2163 2619 2102 2700 
Q 2041 2781 1847 2806 
L 1847 2922 
L 3038 2922 
z
" transform="scale(0.015625)"/>
        <path id="TimesNewRomanPS-BoldMT-72" d="M 1428 2922 
L 1428 2259 
Q 1719 2713 1937 2861 
Q 2156 3009 2359 3009 
Q 2534 3009 2639 2901 
Q 2744 2794 2744 2597 
Q 2744 2388 2642 2272 
Q 2541 2156 2397 2156 
Q 2231 2156 2109 2262 
Q 1988 2369 1966 2381 
Q 1934 2400 1894 2400 
Q 1803 2400 1722 2331 
Q 1594 2225 1528 2028 
Q 1428 1725 1428 1359 
L 1428 688 
L 1431 513 
Q 1431 334 1453 284 
Q 1491 200 1564 161 
Q 1638 122 1813 113 
L 1813 0 
L 234 0 
L 234 113 
Q 425 128 492 217 
Q 559 306 559 688 
L 559 2303 
Q 559 2553 534 2622 
Q 503 2709 443 2750 
Q 384 2791 234 2806 
L 234 2922 
L 1428 2922 
z
" transform="scale(0.015625)"/>
        <path id="TimesNewRomanPS-BoldMT-6f" d="M 1594 3009 
Q 1975 3009 2303 2812 
Q 2631 2616 2801 2253 
Q 2972 1891 2972 1459 
Q 2972 838 2656 419 
Q 2275 -88 1603 -88 
Q 944 -88 587 375 
Q 231 838 231 1447 
Q 231 2075 595 2542 
Q 959 3009 1594 3009 
z
M 1606 2788 
Q 1447 2788 1333 2667 
Q 1219 2547 1183 2192 
Q 1147 1838 1147 1206 
Q 1147 872 1191 581 
Q 1225 359 1337 243 
Q 1450 128 1594 128 
Q 1734 128 1828 206 
Q 1950 313 1991 503 
Q 2053 800 2053 1703 
Q 2053 2234 1993 2432 
Q 1934 2631 1819 2722 
Q 1738 2788 1606 2788 
z
" transform="scale(0.015625)"/>
        <path id="TimesNewRomanPS-BoldMT-67" d="M 2091 2888 
L 3075 2888 
L 3075 2544 
L 2516 2544 
Q 2669 2391 2728 2266 
Q 2803 2097 2803 1913 
Q 2803 1600 2629 1370 
Q 2456 1141 2157 1011 
Q 1859 881 1628 881 
Q 1609 881 1253 897 
Q 1113 897 1017 805 
Q 922 713 922 584 
Q 922 472 1008 400 
Q 1094 328 1288 328 
L 1828 334 
Q 2484 334 2731 191 
Q 3084 -9 3084 -425 
Q 3084 -691 2921 -908 
Q 2759 -1125 2494 -1228 
Q 2091 -1381 1566 -1381 
Q 1172 -1381 847 -1304 
Q 522 -1228 381 -1092 
Q 241 -956 241 -806 
Q 241 -663 348 -548 
Q 456 -434 750 -356 
Q 344 -156 344 200 
Q 344 416 509 619 
Q 675 822 1034 972 
Q 616 1125 428 1375 
Q 241 1625 241 1953 
Q 241 2381 591 2695 
Q 941 3009 1491 3009 
Q 1781 3009 2091 2888 
z
M 1550 2816 
Q 1369 2816 1244 2633 
Q 1119 2450 1119 1875 
Q 1119 1409 1242 1236 
Q 1366 1063 1534 1063 
Q 1722 1063 1847 1234 
Q 1972 1406 1972 1903 
Q 1972 2463 1831 2666 
Q 1731 2816 1550 2816 
z
M 1366 -431 
Q 1047 -431 944 -484 
Q 766 -581 766 -747 
Q 766 -906 950 -1036 
Q 1134 -1166 1644 -1166 
Q 2078 -1166 2326 -1050 
Q 2575 -934 2575 -725 
Q 2575 -647 2528 -594 
Q 2444 -500 2273 -465 
Q 2103 -431 1366 -431 
z
" transform="scale(0.015625)"/>
        <path id="TimesNewRomanPS-BoldMT-61" d="M 1828 431 
Q 1294 -41 869 -41 
Q 619 -41 453 123 
Q 288 288 288 534 
Q 288 869 575 1136 
Q 863 1403 1828 1847 
L 1828 2141 
Q 1828 2472 1792 2558 
Q 1756 2644 1656 2708 
Q 1556 2772 1431 2772 
Q 1228 2772 1097 2681 
Q 1016 2625 1016 2550 
Q 1016 2484 1103 2388 
Q 1222 2253 1222 2128 
Q 1222 1975 1108 1867 
Q 994 1759 809 1759 
Q 613 1759 480 1878 
Q 347 1997 347 2156 
Q 347 2381 525 2586 
Q 703 2791 1022 2900 
Q 1341 3009 1684 3009 
Q 2100 3009 2342 2832 
Q 2584 2656 2656 2450 
Q 2700 2319 2700 1847 
L 2700 713 
Q 2700 513 2715 461 
Q 2731 409 2762 384 
Q 2794 359 2834 359 
Q 2916 359 3000 475 
L 3094 400 
Q 2938 169 2770 64 
Q 2603 -41 2391 -41 
Q 2141 -41 2000 76 
Q 1859 194 1828 431 
z
M 1828 659 
L 1828 1638 
Q 1450 1416 1266 1163 
Q 1144 994 1144 822 
Q 1144 678 1247 569 
Q 1325 484 1466 484 
Q 1622 484 1828 659 
z
" transform="scale(0.015625)"/>
        <path id="TimesNewRomanPS-BoldMT-74" d="M 1375 3991 
L 1375 2922 
L 2069 2922 
L 2069 2613 
L 1375 2613 
L 1375 809 
Q 1375 556 1398 482 
Q 1422 409 1481 364 
Q 1541 319 1591 319 
Q 1794 319 1975 628 
L 2069 559 
Q 1816 -41 1247 -41 
Q 969 -41 776 114 
Q 584 269 531 459 
Q 500 566 500 1034 
L 500 2613 
L 119 2613 
L 119 2722 
Q 513 3000 789 3306 
Q 1066 3613 1272 3991 
L 1375 3991 
z
" transform="scale(0.015625)"/>
        <path id="TimesNewRomanPS-BoldMT-65" d="M 2691 1566 
L 1088 1566 
Q 1116 984 1397 647 
Q 1613 388 1916 388 
Q 2103 388 2256 492 
Q 2409 597 2584 869 
L 2691 800 
Q 2453 316 2165 114 
Q 1878 -88 1500 -88 
Q 850 -88 516 413 
Q 247 816 247 1413 
Q 247 2144 642 2576 
Q 1038 3009 1569 3009 
Q 2013 3009 2339 2645 
Q 2666 2281 2691 1566 
z
M 1922 1775 
Q 1922 2278 1867 2465 
Q 1813 2653 1697 2750 
Q 1631 2806 1522 2806 
Q 1359 2806 1256 2647 
Q 1072 2369 1072 1884 
L 1072 1775 
L 1922 1775 
z
" transform="scale(0.015625)"/>
       </defs>
       <use xlink:href="#TimesNewRomanPS-BoldMT-53"/>
       <use xlink:href="#TimesNewRomanPS-BoldMT-75" x="55.615234"/>
       <use xlink:href="#TimesNewRomanPS-BoldMT-72" x="111.230469"/>
       <use xlink:href="#TimesNewRomanPS-BoldMT-72" x="155.615234"/>
       <use xlink:href="#TimesNewRomanPS-BoldMT-6f" x="198.25"/>
       <use xlink:href="#TimesNewRomanPS-BoldMT-67" x="248.25"/>
       <use xlink:href="#TimesNewRomanPS-BoldMT-61" x="298.25"/>
       <use xlink:href="#TimesNewRomanPS-BoldMT-74" x="348.25"/>
       <use xlink:href="#TimesNewRomanPS-BoldMT-65" x="381.550781"/>
      </g>
      <!-- Error -->
      <g transform="translate(523.127656 280.715031) scale(0.19 -0.19)">
       <defs>
        <path id="TimesNewRomanPS-BoldMT-45" d="M 1744 3994 
L 1744 2269 
L 1828 2269 
Q 2231 2269 2412 2522 
Q 2594 2775 2644 3269 
L 2763 3269 
L 2763 1050 
L 2644 1050 
Q 2606 1413 2486 1644 
Q 2366 1875 2206 1954 
Q 2047 2034 1744 2034 
L 1744 841 
Q 1744 491 1773 412 
Q 1803 334 1884 284 
Q 1966 234 2147 234 
L 2400 234 
Q 2994 234 3351 509 
Q 3709 784 3866 1347 
L 3981 1347 
L 3791 0 
L 128 0 
L 128 116 
L 269 116 
Q 453 116 566 181 
Q 647 225 691 331 
Q 725 406 725 725 
L 725 3513 
Q 725 3800 709 3866 
Q 678 3975 594 4034 
Q 475 4122 269 4122 
L 128 4122 
L 128 4238 
L 3675 4238 
L 3675 2984 
L 3556 2984 
Q 3466 3444 3302 3644 
Q 3138 3844 2838 3938 
Q 2663 3994 2181 3994 
L 1744 3994 
z
" transform="scale(0.015625)"/>
       </defs>
       <use xlink:href="#TimesNewRomanPS-BoldMT-45"/>
       <use xlink:href="#TimesNewRomanPS-BoldMT-72" x="66.699219"/>
       <use xlink:href="#TimesNewRomanPS-BoldMT-72" x="111.083984"/>
       <use xlink:href="#TimesNewRomanPS-BoldMT-6f" x="153.71875"/>
       <use xlink:href="#TimesNewRomanPS-BoldMT-72" x="203.71875"/>
      </g>
     </g>
    </g>
    <g id="xtick_2">
     <g id="line2d_2">
      <path d="M 300.437031 266.715 
L 412.318281 72.930991 
" clip-path="url(#p4350a3e3f0)" style="fill: none; stroke-dasharray: 2.96,1.28; stroke-dashoffset: 0; stroke: #808080; stroke-opacity: 0.6; stroke-width: 0.8"/>
     </g>
     <g id="text_2">
      <!-- Noise Resilience -->
      <g transform="translate(358.40125 57.704091) scale(0.19 -0.19)">
       <defs>
        <path id="TimesNewRomanPS-BoldMT-4e" d="M 1594 4238 
L 3684 1609 
L 3684 3431 
Q 3684 3813 3575 3947 
Q 3425 4128 3072 4122 
L 3072 4238 
L 4472 4238 
L 4472 4122 
Q 4203 4088 4111 4033 
Q 4019 3978 3967 3854 
Q 3916 3731 3916 3431 
L 3916 -97 
L 3809 -97 
L 944 3431 
L 944 738 
Q 944 372 1111 244 
Q 1278 116 1494 116 
L 1594 116 
L 1594 0 
L 91 0 
L 91 116 
Q 441 119 578 259 
Q 716 400 716 738 
L 716 3728 
L 625 3841 
Q 491 4009 387 4062 
Q 284 4116 91 4122 
L 91 4238 
L 1594 4238 
z
" transform="scale(0.015625)"/>
        <path id="TimesNewRomanPS-BoldMT-69" d="M 919 4338 
Q 1122 4338 1262 4195 
Q 1403 4053 1403 3853 
Q 1403 3653 1261 3512 
Q 1119 3372 919 3372 
Q 719 3372 578 3512 
Q 438 3653 438 3853 
Q 438 4053 578 4195 
Q 719 4338 919 4338 
z
M 1356 2922 
L 1356 606 
Q 1356 297 1428 211 
Q 1500 125 1709 113 
L 1709 0 
L 131 0 
L 131 113 
Q 325 119 419 225 
Q 481 297 481 606 
L 481 2313 
Q 481 2622 409 2708 
Q 338 2794 131 2806 
L 131 2922 
L 1356 2922 
z
" transform="scale(0.015625)"/>
        <path id="TimesNewRomanPS-BoldMT-73" d="M 2063 3003 
L 2109 2006 
L 2003 2006 
Q 1813 2450 1608 2612 
Q 1403 2775 1200 2775 
Q 1072 2775 981 2689 
Q 891 2603 891 2491 
Q 891 2406 953 2328 
Q 1053 2200 1512 1889 
Q 1972 1578 2117 1361 
Q 2263 1144 2263 875 
Q 2263 631 2141 397 
Q 2019 163 1797 37 
Q 1575 -88 1306 -88 
Q 1097 -88 747 44 
Q 653 78 619 78 
Q 516 78 447 -78 
L 344 -78 
L 294 972 
L 400 972 
Q 541 559 786 353 
Q 1031 147 1250 147 
Q 1400 147 1495 239 
Q 1591 331 1591 463 
Q 1591 613 1497 722 
Q 1403 831 1078 1053 
Q 600 1384 459 1559 
Q 253 1816 253 2125 
Q 253 2463 486 2736 
Q 719 3009 1159 3009 
Q 1397 3009 1619 2894 
Q 1703 2847 1756 2847 
Q 1813 2847 1847 2870 
Q 1881 2894 1956 3003 
L 2063 3003 
z
" transform="scale(0.015625)"/>
        <path id="TimesNewRomanPS-BoldMT-20" transform="scale(0.015625)"/>
        <path id="TimesNewRomanPS-BoldMT-52" d="M 1700 1931 
L 1700 744 
Q 1700 400 1742 311 
Q 1784 222 1890 169 
Q 1997 116 2288 116 
L 2288 0 
L 119 0 
L 119 116 
Q 413 116 517 170 
Q 622 225 664 312 
Q 706 400 706 744 
L 706 3494 
Q 706 3838 664 3927 
Q 622 4016 515 4069 
Q 409 4122 119 4122 
L 119 4238 
L 2088 4238 
Q 2856 4238 3212 4131 
Q 3569 4025 3794 3739 
Q 4019 3453 4019 3069 
Q 4019 2600 3681 2294 
Q 3466 2100 3078 2003 
L 4097 569 
Q 4297 291 4381 222 
Q 4509 125 4678 116 
L 4678 0 
L 3344 0 
L 1978 1931 
L 1700 1931 
z
M 1700 4009 
L 1700 2153 
L 1878 2153 
Q 2313 2153 2528 2233 
Q 2744 2313 2867 2520 
Q 2991 2728 2991 3063 
Q 2991 3547 2764 3778 
Q 2538 4009 2034 4009 
L 1700 4009 
z
" transform="scale(0.015625)"/>
        <path id="TimesNewRomanPS-BoldMT-6c" d="M 1359 4238 
L 1359 606 
Q 1359 297 1431 211 
Q 1503 125 1713 113 
L 1713 0 
L 134 0 
L 134 113 
Q 328 119 422 225 
Q 484 297 484 606 
L 484 3631 
Q 484 3938 412 4023 
Q 341 4109 134 4122 
L 134 4238 
L 1359 4238 
z
" transform="scale(0.015625)"/>
        <path id="TimesNewRomanPS-BoldMT-6e" d="M 1409 2922 
L 1409 2544 
Q 1634 2788 1840 2898 
Q 2047 3009 2284 3009 
Q 2569 3009 2756 2851 
Q 2944 2694 3006 2459 
Q 3056 2281 3056 1775 
L 3056 638 
Q 3056 300 3117 217 
Q 3178 134 3372 113 
L 3372 0 
L 1894 0 
L 1894 113 
Q 2059 134 2131 250 
Q 2181 328 2181 638 
L 2181 1938 
Q 2181 2297 2153 2390 
Q 2125 2484 2058 2536 
Q 1991 2588 1909 2588 
Q 1641 2588 1409 2203 
L 1409 638 
Q 1409 309 1470 221 
Q 1531 134 1697 113 
L 1697 0 
L 219 0 
L 219 113 
Q 403 131 481 231 
Q 534 300 534 638 
L 534 2288 
Q 534 2619 473 2700 
Q 413 2781 219 2806 
L 219 2922 
L 1409 2922 
z
" transform="scale(0.015625)"/>
        <path id="TimesNewRomanPS-BoldMT-63" d="M 2600 753 
L 2697 678 
Q 2491 291 2183 101 
Q 1875 -88 1528 -88 
Q 944 -88 594 353 
Q 244 794 244 1413 
Q 244 2009 563 2463 
Q 947 3009 1622 3009 
Q 2075 3009 2342 2781 
Q 2609 2553 2609 2272 
Q 2609 2094 2501 1987 
Q 2394 1881 2219 1881 
Q 2034 1881 1914 2003 
Q 1794 2125 1766 2438 
Q 1747 2634 1675 2713 
Q 1603 2791 1506 2791 
Q 1356 2791 1250 2631 
Q 1088 2391 1088 1894 
Q 1088 1481 1219 1104 
Q 1350 728 1578 544 
Q 1750 409 1984 409 
Q 2138 409 2275 481 
Q 2413 553 2600 753 
z
" transform="scale(0.015625)"/>
       </defs>
       <use xlink:href="#TimesNewRomanPS-BoldMT-4e"/>
       <use xlink:href="#TimesNewRomanPS-BoldMT-6f" x="72.216797"/>
       <use xlink:href="#TimesNewRomanPS-BoldMT-69" x="122.216797"/>
       <use xlink:href="#TimesNewRomanPS-BoldMT-73" x="150"/>
       <use xlink:href="#TimesNewRomanPS-BoldMT-65" x="188.916016"/>
       <use xlink:href="#TimesNewRomanPS-BoldMT-20" x="233.300781"/>
       <use xlink:href="#TimesNewRomanPS-BoldMT-52" x="258.300781"/>
       <use xlink:href="#TimesNewRomanPS-BoldMT-65" x="330.517578"/>
       <use xlink:href="#TimesNewRomanPS-BoldMT-73" x="374.902344"/>
       <use xlink:href="#TimesNewRomanPS-BoldMT-69" x="413.818359"/>
       <use xlink:href="#TimesNewRomanPS-BoldMT-6c" x="441.601562"/>
       <use xlink:href="#TimesNewRomanPS-BoldMT-69" x="469.384766"/>
       <use xlink:href="#TimesNewRomanPS-BoldMT-65" x="497.167969"/>
       <use xlink:href="#TimesNewRomanPS-BoldMT-6e" x="541.552734"/>
       <use xlink:href="#TimesNewRomanPS-BoldMT-63" x="597.167969"/>
       <use xlink:href="#TimesNewRomanPS-BoldMT-65" x="641.552734"/>
      </g>
     </g>
    </g>
    <g id="xtick_3">
     <g id="line2d_3">
      <path d="M 300.437031 266.715 
L 188.555781 72.930991 
" clip-path="url(#p4350a3e3f0)" style="fill: none; stroke-dasharray: 2.96,1.28; stroke-dashoffset: 0; stroke: #808080; stroke-opacity: 0.6; stroke-width: 0.8"/>
     </g>
     <g id="text_3">
      <!-- Generation Time -->
      <g transform="translate(108.248203 57.704091) scale(0.19 -0.19)">
       <defs>
        <path id="TimesNewRomanPS-BoldMT-47" d="M 4416 4334 
L 4416 2841 
L 4300 2841 
Q 4091 3453 3672 3772 
Q 3253 4091 2756 4091 
Q 2281 4091 1965 3823 
Q 1650 3556 1519 3078 
Q 1388 2600 1388 2097 
Q 1388 1488 1531 1028 
Q 1675 569 1995 353 
Q 2316 138 2756 138 
Q 2909 138 3070 170 
Q 3231 203 3400 266 
L 3400 1147 
Q 3400 1397 3365 1470 
Q 3331 1544 3223 1603 
Q 3116 1663 2963 1663 
L 2853 1663 
L 2853 1778 
L 4913 1778 
L 4913 1663 
Q 4678 1647 4586 1598 
Q 4494 1550 4444 1438 
Q 4416 1378 4416 1147 
L 4416 266 
Q 4009 84 3570 -8 
Q 3131 -100 2659 -100 
Q 2056 -100 1657 64 
Q 1259 228 954 495 
Q 650 763 478 1097 
Q 259 1528 259 2063 
Q 259 3019 931 3678 
Q 1603 4338 2622 4338 
Q 2938 4338 3191 4288 
Q 3328 4263 3636 4145 
Q 3944 4028 4000 4028 
Q 4088 4028 4163 4092 
Q 4238 4156 4300 4334 
L 4416 4334 
z
" transform="scale(0.015625)"/>
        <path id="TimesNewRomanPS-BoldMT-54" d="M 4038 4238 
L 4038 3091 
L 3925 3091 
Q 3825 3488 3703 3661 
Q 3581 3834 3369 3938 
Q 3250 3994 2953 3994 
L 2638 3994 
L 2638 725 
Q 2638 400 2673 319 
Q 2709 238 2814 177 
Q 2919 116 3100 116 
L 3241 116 
L 3241 0 
L 1022 0 
L 1022 116 
L 1163 116 
Q 1347 116 1459 181 
Q 1541 225 1588 331 
Q 1622 406 1622 725 
L 1622 3994 
L 1316 3994 
Q 888 3994 694 3813 
Q 422 3559 350 3091 
L 231 3091 
L 231 4238 
L 4038 4238 
z
" transform="scale(0.015625)"/>
        <path id="TimesNewRomanPS-BoldMT-6d" d="M 1428 2922 
L 1428 2538 
Q 1669 2800 1873 2904 
Q 2078 3009 2322 3009 
Q 2603 3009 2793 2878 
Q 2984 2747 3088 2478 
Q 3338 2759 3567 2884 
Q 3797 3009 4047 3009 
Q 4350 3009 4529 2870 
Q 4709 2731 4779 2517 
Q 4850 2303 4850 1834 
L 4850 638 
Q 4850 300 4911 219 
Q 4972 138 5166 113 
L 5166 0 
L 3656 0 
L 3656 113 
Q 3834 128 3919 250 
Q 3975 334 3975 638 
L 3975 1894 
Q 3975 2284 3944 2390 
Q 3913 2497 3845 2548 
Q 3778 2600 3688 2600 
Q 3553 2600 3415 2501 
Q 3278 2403 3138 2206 
L 3138 638 
Q 3138 322 3191 241 
Q 3263 125 3466 113 
L 3466 0 
L 1953 0 
L 1953 113 
Q 2075 119 2145 173 
Q 2216 228 2239 304 
Q 2263 381 2263 638 
L 2263 1894 
Q 2263 2291 2231 2391 
Q 2200 2491 2126 2547 
Q 2053 2603 1969 2603 
Q 1844 2603 1741 2538 
Q 1594 2441 1428 2206 
L 1428 638 
Q 1428 328 1489 229 
Q 1550 131 1744 113 
L 1744 0 
L 238 0 
L 238 113 
Q 422 131 500 231 
Q 553 300 553 638 
L 553 2288 
Q 553 2619 492 2700 
Q 431 2781 238 2806 
L 238 2922 
L 1428 2922 
z
" transform="scale(0.015625)"/>
       </defs>
       <use xlink:href="#TimesNewRomanPS-BoldMT-47"/>
       <use xlink:href="#TimesNewRomanPS-BoldMT-65" x="77.783203"/>
       <use xlink:href="#TimesNewRomanPS-BoldMT-6e" x="122.167969"/>
       <use xlink:href="#TimesNewRomanPS-BoldMT-65" x="177.783203"/>
       <use xlink:href="#TimesNewRomanPS-BoldMT-72" x="222.167969"/>
       <use xlink:href="#TimesNewRomanPS-BoldMT-61" x="266.552734"/>
       <use xlink:href="#TimesNewRomanPS-BoldMT-74" x="316.552734"/>
       <use xlink:href="#TimesNewRomanPS-BoldMT-69" x="349.853516"/>
       <use xlink:href="#TimesNewRomanPS-BoldMT-6f" x="377.636719"/>
       <use xlink:href="#TimesNewRomanPS-BoldMT-6e" x="427.636719"/>
       <use xlink:href="#TimesNewRomanPS-BoldMT-20" x="483.251953"/>
       <use xlink:href="#TimesNewRomanPS-BoldMT-54" x="506.501953"/>
       <use xlink:href="#TimesNewRomanPS-BoldMT-69" x="571.451172"/>
       <use xlink:href="#TimesNewRomanPS-BoldMT-6d" x="599.234375"/>
       <use xlink:href="#TimesNewRomanPS-BoldMT-65" x="682.535156"/>
      </g>
     </g>
    </g>
    <g id="xtick_4">
     <g id="line2d_4">
      <path d="M 300.437031 266.715 
L 76.674531 266.715 
" clip-path="url(#p4350a3e3f0)" style="fill: none; stroke-dasharray: 2.96,1.28; stroke-dashoffset: 0; stroke: #808080; stroke-opacity: 0.6; stroke-width: 0.8"/>
     </g>
     <g id="text_4">
      <!-- Calculation -->
      <g transform="translate(7.2 261.392625) scale(0.19 -0.19)">
       <defs>
        <path id="TimesNewRomanPS-BoldMT-43" d="M 4272 4334 
L 4272 2866 
L 4150 2866 
Q 4013 3441 3638 3747 
Q 3263 4053 2788 4053 
Q 2391 4053 2059 3825 
Q 1728 3597 1575 3228 
Q 1378 2756 1378 2178 
Q 1378 1609 1522 1142 
Q 1666 675 1972 436 
Q 2278 197 2766 197 
Q 3166 197 3498 372 
Q 3831 547 4200 975 
L 4200 609 
Q 3844 238 3458 70 
Q 3072 -97 2556 -97 
Q 1878 -97 1351 175 
Q 825 447 539 956 
Q 253 1466 253 2041 
Q 253 2647 570 3190 
Q 888 3734 1427 4034 
Q 1966 4334 2572 4334 
Q 3019 4334 3516 4141 
Q 3803 4028 3881 4028 
Q 3981 4028 4054 4101 
Q 4128 4175 4150 4334 
L 4272 4334 
z
" transform="scale(0.015625)"/>
       </defs>
       <use xlink:href="#TimesNewRomanPS-BoldMT-43"/>
       <use xlink:href="#TimesNewRomanPS-BoldMT-61" x="72.216797"/>
       <use xlink:href="#TimesNewRomanPS-BoldMT-6c" x="122.216797"/>
       <use xlink:href="#TimesNewRomanPS-BoldMT-63" x="150"/>
       <use xlink:href="#TimesNewRomanPS-BoldMT-75" x="194.384766"/>
       <use xlink:href="#TimesNewRomanPS-BoldMT-6c" x="250"/>
       <use xlink:href="#TimesNewRomanPS-BoldMT-61" x="277.783203"/>
       <use xlink:href="#TimesNewRomanPS-BoldMT-74" x="327.783203"/>
       <use xlink:href="#TimesNewRomanPS-BoldMT-69" x="361.083984"/>
       <use xlink:href="#TimesNewRomanPS-BoldMT-6f" x="388.867188"/>
       <use xlink:href="#TimesNewRomanPS-BoldMT-6e" x="438.867188"/>
      </g>
      <!-- Time -->
      <g transform="translate(33.234453 280.554719) scale(0.19 -0.19)">
       <use xlink:href="#TimesNewRomanPS-BoldMT-54"/>
       <use xlink:href="#TimesNewRomanPS-BoldMT-69" x="64.949219"/>
       <use xlink:href="#TimesNewRomanPS-BoldMT-6d" x="92.732422"/>
       <use xlink:href="#TimesNewRomanPS-BoldMT-65" x="176.033203"/>
      </g>
     </g>
    </g>
    <g id="xtick_5">
     <g id="line2d_5">
      <path d="M 300.437031 266.715 
L 188.555781 460.499009 
" clip-path="url(#p4350a3e3f0)" style="fill: none; stroke-dasharray: 2.96,1.28; stroke-dashoffset: 0; stroke: #808080; stroke-opacity: 0.6; stroke-width: 0.8"/>
     </g>
     <g id="text_5">
      <!-- Optimization Time -->
      <g transform="translate(100.327578 484.39169) scale(0.19 -0.19)">
       <defs>
        <path id="TimesNewRomanPS-BoldMT-4f" d="M 2472 4297 
Q 3484 4334 4117 3706 
Q 4750 3078 4750 2134 
Q 4750 1328 4278 716 
Q 3653 -97 2513 -97 
Q 1369 -97 744 678 
Q 250 1291 250 2131 
Q 250 3075 892 3704 
Q 1534 4334 2472 4297 
z
M 2509 4097 
Q 1928 4097 1625 3503 
Q 1378 3016 1378 2103 
Q 1378 1019 1759 500 
Q 2025 138 2503 138 
Q 2825 138 3041 294 
Q 3316 494 3469 933 
Q 3622 1372 3622 2078 
Q 3622 2919 3465 3336 
Q 3309 3753 3067 3925 
Q 2825 4097 2509 4097 
z
" transform="scale(0.015625)"/>
        <path id="TimesNewRomanPS-BoldMT-70" d="M 1347 297 
L 1347 -791 
Q 1347 -1016 1383 -1097 
Q 1419 -1178 1494 -1215 
Q 1569 -1253 1788 -1253 
L 1788 -1369 
L 122 -1369 
L 122 -1253 
Q 316 -1247 409 -1144 
Q 472 -1072 472 -772 
L 472 2313 
Q 472 2622 400 2708 
Q 328 2794 122 2806 
L 122 2922 
L 1347 2922 
L 1347 2538 
Q 1500 2763 1659 2863 
Q 1888 3009 2156 3009 
Q 2478 3009 2742 2806 
Q 3006 2603 3143 2245 
Q 3281 1888 3281 1475 
Q 3281 1031 3139 664 
Q 2997 297 2726 104 
Q 2456 -88 2125 -88 
Q 1884 -88 1675 19 
Q 1519 100 1347 297 
z
M 1347 613 
Q 1616 231 1922 231 
Q 2091 231 2200 409 
Q 2363 672 2363 1409 
Q 2363 2166 2184 2444 
Q 2066 2628 1866 2628 
Q 1550 2628 1347 2172 
L 1347 613 
z
" transform="scale(0.015625)"/>
        <path id="TimesNewRomanPS-BoldMT-7a" d="M 2609 0 
L 66 0 
L 66 69 
L 1672 2731 
L 1203 2731 
Q 900 2731 769 2676 
Q 638 2622 556 2501 
Q 475 2381 388 2072 
L 278 2072 
L 278 2922 
L 2738 2922 
L 2738 2838 
L 1144 200 
L 1344 200 
Q 1944 200 2209 372 
Q 2475 544 2609 1000 
L 2697 1000 
L 2609 0 
z
" transform="scale(0.015625)"/>
       </defs>
       <use xlink:href="#TimesNewRomanPS-BoldMT-4f"/>
       <use xlink:href="#TimesNewRomanPS-BoldMT-70" x="77.783203"/>
       <use xlink:href="#TimesNewRomanPS-BoldMT-74" x="133.398438"/>
       <use xlink:href="#TimesNewRomanPS-BoldMT-69" x="166.699219"/>
       <use xlink:href="#TimesNewRomanPS-BoldMT-6d" x="194.482422"/>
       <use xlink:href="#TimesNewRomanPS-BoldMT-69" x="277.783203"/>
       <use xlink:href="#TimesNewRomanPS-BoldMT-7a" x="305.566406"/>
       <use xlink:href="#TimesNewRomanPS-BoldMT-61" x="349.951172"/>
       <use xlink:href="#TimesNewRomanPS-BoldMT-74" x="399.951172"/>
       <use xlink:href="#TimesNewRomanPS-BoldMT-69" x="433.251953"/>
       <use xlink:href="#TimesNewRomanPS-BoldMT-6f" x="461.035156"/>
       <use xlink:href="#TimesNewRomanPS-BoldMT-6e" x="511.035156"/>
       <use xlink:href="#TimesNewRomanPS-BoldMT-20" x="566.650391"/>
       <use xlink:href="#TimesNewRomanPS-BoldMT-54" x="589.900391"/>
       <use xlink:href="#TimesNewRomanPS-BoldMT-69" x="654.849609"/>
       <use xlink:href="#TimesNewRomanPS-BoldMT-6d" x="682.632812"/>
       <use xlink:href="#TimesNewRomanPS-BoldMT-65" x="765.933594"/>
      </g>
     </g>
    </g>
    <g id="xtick_6">
     <g id="line2d_6">
      <path d="M 300.437031 266.715 
L 412.318281 460.499009 
" clip-path="url(#p4350a3e3f0)" style="fill: none; stroke-dasharray: 2.96,1.28; stroke-dashoffset: 0; stroke: #808080; stroke-opacity: 0.6; stroke-width: 0.8"/>
     </g>
     <g id="text_6">
      <!-- Average Score -->
      <g transform="translate(365.613828 484.36794) scale(0.19 -0.19)">
       <defs>
        <path id="TimesNewRomanPS-BoldMT-41" d="M 2663 1206 
L 1166 1206 
L 988 794 
Q 900 588 900 453 
Q 900 275 1044 191 
Q 1128 141 1459 116 
L 1459 0 
L 50 0 
L 50 116 
Q 278 150 425 304 
Q 572 459 788 944 
L 2303 4325 
L 2363 4325 
L 3891 850 
Q 4109 356 4250 228 
Q 4356 131 4550 116 
L 4550 0 
L 2500 0 
L 2500 116 
L 2584 116 
Q 2831 116 2931 184 
Q 3000 234 3000 328 
Q 3000 384 2981 444 
Q 2975 472 2888 678 
L 2663 1206 
z
M 2556 1438 
L 1925 2897 
L 1275 1438 
L 2556 1438 
z
" transform="scale(0.015625)"/>
        <path id="TimesNewRomanPS-BoldMT-76" d="M 1534 -88 
L 550 2178 
Q 372 2588 272 2697 
Q 200 2778 59 2806 
L 59 2922 
L 1613 2922 
L 1613 2806 
Q 1466 2806 1413 2753 
Q 1338 2684 1338 2591 
Q 1338 2475 1475 2156 
L 1956 1059 
L 2341 2006 
Q 2506 2413 2506 2581 
Q 2506 2678 2436 2739 
Q 2366 2800 2188 2806 
L 2188 2922 
L 3144 2922 
L 3144 2806 
Q 3006 2788 2918 2703 
Q 2831 2619 2656 2206 
L 1681 -88 
L 1534 -88 
z
" transform="scale(0.015625)"/>
       </defs>
       <use xlink:href="#TimesNewRomanPS-BoldMT-41"/>
       <use xlink:href="#TimesNewRomanPS-BoldMT-76" x="64.841797"/>
       <use xlink:href="#TimesNewRomanPS-BoldMT-65" x="114.841797"/>
       <use xlink:href="#TimesNewRomanPS-BoldMT-72" x="159.226562"/>
       <use xlink:href="#TimesNewRomanPS-BoldMT-61" x="203.611328"/>
       <use xlink:href="#TimesNewRomanPS-BoldMT-67" x="253.611328"/>
       <use xlink:href="#TimesNewRomanPS-BoldMT-65" x="303.611328"/>
       <use xlink:href="#TimesNewRomanPS-BoldMT-20" x="347.996094"/>
       <use xlink:href="#TimesNewRomanPS-BoldMT-53" x="372.996094"/>
       <use xlink:href="#TimesNewRomanPS-BoldMT-63" x="428.611328"/>
       <use xlink:href="#TimesNewRomanPS-BoldMT-6f" x="472.996094"/>
       <use xlink:href="#TimesNewRomanPS-BoldMT-72" x="522.996094"/>
       <use xlink:href="#TimesNewRomanPS-BoldMT-65" x="565.630859"/>
      </g>
     </g>
    </g>
   </g>
   <g id="matplotlib.axis_2">
    <g id="ytick_1">
     <g id="line2d_7">
      <path d="M 345.189531 266.715 
C 345.189531 260.838156 344.031921 255.018456 341.78295 249.58896 
C 339.533979 244.159463 336.237384 239.22576 332.081827 235.070204 
C 327.926271 230.914647 322.992568 227.618052 317.563072 225.369081 
C 312.133575 223.12011 306.313876 221.9625 300.437031 221.9625 
C 294.560187 221.9625 288.740487 223.12011 283.310991 225.369081 
C 277.881495 227.618052 272.947792 230.914647 268.792235 235.070204 
C 264.636678 239.22576 261.340083 244.159463 259.091112 249.58896 
C 256.842141 255.018456 255.684531 260.838156 255.684531 266.715 
C 255.684531 272.591844 256.842141 278.411544 259.091112 283.84104 
C 261.340083 289.270537 264.636678 294.20424 268.792235 298.359796 
C 272.947792 302.515353 277.881495 305.811948 283.310991 308.060919 
C 288.740487 310.30989 294.560187 311.4675 300.437031 311.4675 
C 306.313876 311.4675 312.133575 310.30989 317.563072 308.060919 
C 322.992568 305.811948 327.926271 302.515353 332.081827 298.359796 
C 336.237384 294.20424 339.533979 289.270537 341.78295 283.84104 
C 344.031921 278.411544 345.189531 272.591844 345.189531 266.715 
" clip-path="url(#p4350a3e3f0)" style="fill: none; stroke-dasharray: 2.22,0.96; stroke-dashoffset: 0; stroke: #808080; stroke-opacity: 0.6; stroke-width: 0.6"/>
     </g>
     <g id="text_7">
      <!-- 0.2 -->
      <g transform="translate(261.680229 240.91625) scale(0.16 -0.16)">
       <defs>
        <path id="TimesNewRomanPS-BoldMT-30" d="M 2966 2119 
Q 2966 1484 2788 934 
Q 2681 597 2501 381 
Q 2322 166 2094 39 
Q 1866 -88 1597 -88 
Q 1291 -88 1044 68 
Q 797 225 606 516 
Q 469 728 366 1081 
Q 231 1559 231 2069 
Q 231 2759 425 3338 
Q 584 3816 909 4070 
Q 1234 4325 1597 4325 
Q 1966 4325 2286 4073 
Q 2606 3822 2756 3397 
Q 2966 2813 2966 2119 
z
M 2003 2125 
Q 2003 3238 1991 3422 
Q 1959 3856 1841 4009 
Q 1763 4109 1588 4109 
Q 1453 4109 1375 4034 
Q 1259 3925 1218 3648 
Q 1178 3372 1178 1719 
Q 1178 819 1241 513 
Q 1288 291 1375 216 
Q 1463 141 1606 141 
Q 1763 141 1841 241 
Q 1972 416 1991 781 
L 2003 2125 
z
" transform="scale(0.015625)"/>
        <path id="TimesNewRomanPS-BoldMT-2e" d="M 800 963 
Q 1019 963 1170 809 
Q 1322 656 1322 441 
Q 1322 225 1169 73 
Q 1016 -78 800 -78 
Q 584 -78 432 73 
Q 281 225 281 441 
Q 281 656 432 809 
Q 584 963 800 963 
z
" transform="scale(0.015625)"/>
        <path id="TimesNewRomanPS-BoldMT-32" d="M 2650 0 
L 156 0 
L 156 69 
Q 1303 1434 1548 1906 
Q 1794 2378 1794 2828 
Q 1794 3156 1591 3373 
Q 1388 3591 1094 3591 
Q 613 3591 347 3109 
L 231 3150 
Q 400 3750 744 4037 
Q 1088 4325 1538 4325 
Q 1859 4325 2125 4175 
Q 2391 4025 2541 3764 
Q 2691 3503 2691 3275 
Q 2691 2859 2459 2431 
Q 2144 1853 1081 819 
L 1997 819 
Q 2334 819 2436 847 
Q 2538 875 2603 942 
Q 2669 1009 2775 1225 
L 2888 1225 
L 2650 0 
z
" transform="scale(0.015625)"/>
       </defs>
       <use xlink:href="#TimesNewRomanPS-BoldMT-30"/>
       <use xlink:href="#TimesNewRomanPS-BoldMT-2e" x="50"/>
       <use xlink:href="#TimesNewRomanPS-BoldMT-32" x="75"/>
      </g>
     </g>
    </g>
    <g id="ytick_2">
     <g id="line2d_8">
      <path d="M 389.942031 266.715 
C 389.942031 254.961311 387.626811 243.321912 383.128869 232.462919 
C 378.630927 221.603927 372.037737 211.736521 363.726624 203.425408 
C 355.415511 195.114294 345.548104 188.521104 334.689112 184.023162 
C 323.830119 179.52522 312.19072 177.21 300.437031 177.21 
C 288.683342 177.21 277.043943 179.52522 266.184951 184.023162 
C 255.325958 188.521104 245.458552 195.114294 237.147439 203.425408 
C 228.836326 211.736521 222.243136 221.603927 217.745194 232.462919 
C 213.247252 243.321912 210.932031 254.961311 210.932031 266.715 
C 210.932031 278.468689 213.247252 290.108088 217.745194 300.967081 
C 222.243136 311.826073 228.836326 321.693479 237.147439 330.004592 
C 245.458552 338.315706 255.325958 344.908896 266.184951 349.406838 
C 277.043943 353.90478 288.683342 356.22 300.437031 356.22 
C 312.19072 356.22 323.830119 353.90478 334.689112 349.406838 
C 345.548104 344.908896 355.415511 338.315706 363.726624 330.004592 
C 372.037737 321.693479 378.630927 311.826073 383.128869 300.967081 
C 387.626811 290.108088 389.942031 278.468689 389.942031 266.715 
" clip-path="url(#p4350a3e3f0)" style="fill: none; stroke-dasharray: 2.22,0.96; stroke-dashoffset: 0; stroke: #808080; stroke-opacity: 0.6; stroke-width: 0.6"/>
     </g>
     <g id="text_8">
      <!-- 0.4 -->
      <g transform="translate(222.923427 218.54) scale(0.16 -0.16)">
       <defs>
        <path id="TimesNewRomanPS-BoldMT-34" d="M 159 1597 
L 2172 4325 
L 2553 4325 
L 2553 1597 
L 2941 1597 
L 2941 950 
L 2553 950 
L 2553 0 
L 1694 0 
L 1694 950 
L 159 950 
L 159 1597 
z
M 463 1597 
L 1694 1597 
L 1694 3269 
L 463 1597 
z
" transform="scale(0.015625)"/>
       </defs>
       <use xlink:href="#TimesNewRomanPS-BoldMT-30"/>
       <use xlink:href="#TimesNewRomanPS-BoldMT-2e" x="50"/>
       <use xlink:href="#TimesNewRomanPS-BoldMT-34" x="75"/>
      </g>
     </g>
    </g>
    <g id="ytick_3">
     <g id="line2d_9">
      <path d="M 434.694531 266.715 
C 434.694531 249.084467 431.221701 231.625368 424.474788 215.336879 
C 417.727875 199.04839 407.83809 184.247281 395.37142 171.780611 
C 382.90475 159.313942 368.103641 149.424157 351.815152 142.677244 
C 335.526663 135.930331 318.067565 132.4575 300.437031 132.4575 
C 282.806498 132.4575 265.347399 135.930331 249.05891 142.677244 
C 232.770421 149.424157 217.969312 159.313942 205.502643 171.780611 
C 193.035973 184.247281 183.146188 199.04839 176.399275 215.336879 
C 169.652362 231.625368 166.179531 249.084467 166.179531 266.715 
C 166.179531 284.345533 169.652362 301.804632 176.399275 318.093121 
C 183.146188 334.38161 193.035973 349.182719 205.502643 361.649389 
C 217.969312 374.116058 232.770421 384.005843 249.05891 390.752756 
C 265.347399 397.499669 282.806498 400.9725 300.437031 400.9725 
C 318.067565 400.9725 335.526663 397.499669 351.815152 390.752756 
C 368.103641 384.005843 382.90475 374.116058 395.37142 361.649389 
C 407.83809 349.182719 417.727875 334.38161 424.474788 318.093121 
C 431.221701 301.804632 434.694531 284.345533 434.694531 266.715 
" clip-path="url(#p4350a3e3f0)" style="fill: none; stroke-dasharray: 2.22,0.96; stroke-dashoffset: 0; stroke: #808080; stroke-opacity: 0.6; stroke-width: 0.6"/>
     </g>
     <g id="text_9">
      <!-- 0.6 -->
      <g transform="translate(184.166626 196.16375) scale(0.16 -0.16)">
       <defs>
        <path id="TimesNewRomanPS-BoldMT-36" d="M 3006 4325 
L 3006 4238 
Q 2441 4094 2098 3867 
Q 1756 3641 1557 3317 
Q 1359 2994 1250 2516 
Q 1388 2609 1478 2638 
Q 1681 2700 1888 2700 
Q 2363 2700 2680 2354 
Q 2997 2009 2997 1413 
Q 2997 994 2825 644 
Q 2653 294 2337 103 
Q 2022 -88 1663 -88 
Q 1272 -88 940 126 
Q 609 341 423 753 
Q 238 1166 238 1650 
Q 238 2363 580 2977 
Q 922 3591 1551 3955 
Q 2181 4319 3006 4325 
z
M 1209 2263 
Q 1184 1831 1184 1631 
Q 1184 1200 1267 797 
Q 1350 394 1494 231 
Q 1597 116 1738 116 
Q 1881 116 1993 283 
Q 2106 450 2106 963 
Q 2106 1825 1897 2153 
Q 1763 2366 1534 2366 
Q 1409 2366 1209 2263 
z
" transform="scale(0.015625)"/>
       </defs>
       <use xlink:href="#TimesNewRomanPS-BoldMT-30"/>
       <use xlink:href="#TimesNewRomanPS-BoldMT-2e" x="50"/>
       <use xlink:href="#TimesNewRomanPS-BoldMT-36" x="75"/>
      </g>
     </g>
    </g>
    <g id="ytick_4">
     <g id="line2d_10">
      <path d="M 479.447031 266.715 
C 479.447031 243.207622 474.81659 219.928824 465.820706 198.210839 
C 456.824822 176.492854 443.638442 156.758041 427.016216 140.135815 
C 410.39399 123.513589 390.659178 110.327209 368.941192 101.331325 
C 347.223207 92.335441 323.944409 87.705 300.437031 87.705 
C 276.929653 87.705 253.650855 92.335441 231.93287 101.331325 
C 210.214885 110.327209 190.480073 123.513589 173.857846 140.135815 
C 157.23562 156.758041 144.04924 176.492854 135.053356 198.210839 
C 126.057472 219.928824 121.427031 243.207622 121.427031 266.715 
C 121.427031 290.222378 126.057472 313.501176 135.053356 335.219161 
C 144.04924 356.937146 157.23562 376.671959 173.857846 393.294185 
C 190.480073 409.916411 210.214885 423.102791 231.93287 432.098675 
C 253.650855 441.094559 276.929653 445.725 300.437031 445.725 
C 323.944409 445.725 347.223207 441.094559 368.941192 432.098675 
C 390.659178 423.102791 410.39399 409.916411 427.016216 393.294185 
C 443.638442 376.671959 456.824822 356.937146 465.820706 335.219161 
C 474.81659 313.501176 479.447031 290.222378 479.447031 266.715 
" clip-path="url(#p4350a3e3f0)" style="fill: none; stroke-dasharray: 2.22,0.96; stroke-dashoffset: 0; stroke: #808080; stroke-opacity: 0.6; stroke-width: 0.6"/>
     </g>
     <g id="text_10">
      <!-- 0.8 -->
      <g transform="translate(145.409824 173.7875) scale(0.16 -0.16)">
       <defs>
        <path id="TimesNewRomanPS-BoldMT-38" d="M 2181 2394 
Q 2628 2066 2801 1783 
Q 2975 1500 2975 1134 
Q 2975 622 2589 267 
Q 2203 -88 1541 -88 
Q 913 -88 569 221 
Q 225 531 225 978 
Q 225 1319 423 1575 
Q 622 1831 1084 2044 
Q 581 2428 439 2672 
Q 297 2916 297 3238 
Q 297 3663 658 3986 
Q 1019 4309 1647 4309 
Q 2253 4309 2579 4023 
Q 2906 3738 2906 3338 
Q 2906 3038 2729 2808 
Q 2553 2578 2181 2394 
z
M 1944 2553 
Q 2059 2709 2115 2903 
Q 2172 3097 2172 3328 
Q 2172 3734 1997 3950 
Q 1866 4116 1634 4116 
Q 1425 4116 1278 3964 
Q 1131 3813 1131 3588 
Q 1131 3359 1295 3114 
Q 1459 2869 1944 2553 
z
M 1319 1894 
Q 1222 1806 1181 1734 
Q 1119 1625 1069 1415 
Q 1019 1206 1019 978 
Q 1019 684 1094 486 
Q 1169 288 1308 200 
Q 1447 113 1594 113 
Q 1822 113 1978 280 
Q 2134 447 2134 738 
Q 2134 1344 1319 1894 
z
" transform="scale(0.015625)"/>
       </defs>
       <use xlink:href="#TimesNewRomanPS-BoldMT-30"/>
       <use xlink:href="#TimesNewRomanPS-BoldMT-2e" x="50"/>
       <use xlink:href="#TimesNewRomanPS-BoldMT-38" x="75"/>
      </g>
     </g>
    </g>
   </g>
   <g id="line2d_11">
    <path d="M 420.821256 266.715 
L 364.992512 154.901627 
L 214.064706 117.113745 
L 76.674531 266.715 
L 188.555781 460.499009 
L 387.413515 417.362689 
L 420.821256 266.715 
" clip-path="url(#p4350a3e3f0)" style="fill: none; stroke: #db443c; stroke-opacity: 0.9; stroke-width: 2.2; stroke-linecap: square"/>
   </g>
   <g id="line2d_12">
    <path d="M 384.571731 266.715 
L 412.318281 72.930991 
L 188.555781 72.930991 
L 100.840881 266.715 
L 192.471625 453.716569 
L 395.155697 430.772542 
L 384.571731 266.715 
" clip-path="url(#p4350a3e3f0)" style="fill: none; stroke: #f57b56; stroke-opacity: 0.9; stroke-width: 2.2; stroke-linecap: square"/>
   </g>
   <g id="line2d_13">
    <path d="M 431.785619 266.715 
L 381.550937 126.221593 
L 254.118194 186.48842 
L 89.205231 266.715 
L 193.366675 452.166297 
L 381.59569 407.28592 
L 431.785619 266.715 
" clip-path="url(#p4350a3e3f0)" style="fill: none; stroke: #fdb670; stroke-opacity: 0.9; stroke-width: 2.2; stroke-linecap: square"/>
   </g>
   <g id="line2d_14">
    <path d="M 404.039069 266.715 
L 381.998462 125.446457 
L 292.940987 253.731471 
L 248.747894 266.715 
L 274.144937 312.254242 
L 339.036062 333.570483 
L 404.039069 266.715 
" clip-path="url(#p4350a3e3f0)" style="fill: none; stroke: #82b5d5; stroke-opacity: 0.9; stroke-width: 2.2; stroke-linecap: square"/>
   </g>
   <g id="line2d_15">
    <path d="M 460.650981 266.715 
L 383.005394 123.702401 
L 300.437031 266.715 
L 300.437031 266.715 
L 300.437031 266.715 
L 332.972099 323.06739 
L 460.650981 266.715 
" clip-path="url(#p4350a3e3f0)" style="fill: none; stroke: #5682bb; stroke-opacity: 0.9; stroke-width: 2.2; stroke-linecap: square"/>
   </g>
   <g id="line2d_16">
    <path d="M 341.161806 266.715 
L 300.437031 266.715 
L 260.719187 197.921677 
L 238.454819 266.715 
L 249.866706 354.305372 
L 328.765364 315.781111 
L 341.161806 266.715 
" clip-path="url(#p4350a3e3f0)" style="fill: none; stroke: #454a9f; stroke-opacity: 0.9; stroke-width: 2.2; stroke-linecap: square"/>
   </g>
   <g id="patch_9">
    <path d="M 524.199531 266.715 
C 524.199531 237.330778 518.41148 208.23228 507.166625 181.084798 
C 495.92177 153.937317 479.438795 129.268802 458.661012 108.491019 
C 437.88323 87.713236 413.214714 71.230261 386.067233 59.985406 
C 358.919751 48.740551 329.821254 42.9525 300.437031 42.9525 
C 271.052809 42.9525 241.954311 48.740551 214.80683 59.985406 
C 187.659348 71.230261 162.990833 87.713236 142.21305 108.491019 
C 121.435267 129.268802 104.952292 153.937317 93.707437 181.084798 
C 82.462582 208.23228 76.674531 237.330778 76.674531 266.715 
C 76.674531 296.099222 82.462582 325.19772 93.707437 352.345202 
C 104.952292 379.492683 121.435267 404.161198 142.21305 424.938981 
C 162.990833 445.716764 187.659348 462.199739 214.80683 473.444594 
C 241.954311 484.689449 271.052809 490.4775 300.437031 490.4775 
C 329.821254 490.4775 358.919751 484.689449 386.067233 473.444594 
C 413.214714 462.199739 437.88323 445.716764 458.661012 424.938981 
C 479.438795 404.161198 495.92177 379.492683 507.166625 352.345202 
C 518.41148 325.19772 524.199531 296.099222 524.199531 266.715 
" style="fill: none; stroke: #000000; stroke-width: 1.5; stroke-linejoin: miter; stroke-linecap: square"/>
   </g>
   <g id="legend_1">
    <g id="patch_10">
     <path d="M 541.637031 165.301875 
L 668.233281 165.301875 
Q 671.833281 165.301875 671.833281 161.701875 
L 671.833281 10.8 
Q 671.833281 7.2 668.233281 7.2 
L 541.637031 7.2 
Q 538.037031 7.2 538.037031 10.8 
L 538.037031 161.701875 
Q 538.037031 165.301875 541.637031 165.301875 
z
" style="fill: #ffffff; opacity: 0.8; stroke: #808080; stroke-linejoin: miter"/>
    </g>
    <g id="line2d_17">
     <path d="M 545.237031 20.7 
L 563.237031 20.7 
L 581.237031 20.7 
" style="fill: none; stroke: #db443c; stroke-opacity: 0.9; stroke-width: 2.2; stroke-linecap: square"/>
    </g>
    <g id="text_11">
     <!-- ALAMO -->
     <g transform="translate(595.637031 27) scale(0.18 -0.18)">
      <defs>
       <path id="TimesNewRomanPS-BoldMT-4c" d="M 4041 1488 
L 3881 0 
L 119 0 
L 119 116 
L 259 116 
Q 444 116 556 181 
Q 638 225 681 331 
Q 716 406 716 725 
L 716 3513 
Q 716 3838 681 3919 
Q 647 4000 542 4061 
Q 438 4122 259 4122 
L 119 4122 
L 119 4238 
L 2378 4238 
L 2378 4122 
L 2194 4122 
Q 2009 4122 1897 4056 
Q 1816 4013 1769 3906 
Q 1734 3831 1734 3513 
L 1734 813 
Q 1734 488 1771 398 
Q 1809 309 1919 266 
Q 1997 238 2297 238 
L 2650 238 
Q 2988 238 3213 356 
Q 3438 475 3602 731 
Q 3766 988 3913 1488 
L 4041 1488 
z
" transform="scale(0.015625)"/>
       <path id="TimesNewRomanPS-BoldMT-4d" d="M 3050 1444 
L 4200 4238 
L 5925 4238 
L 5925 4122 
L 5788 4122 
Q 5600 4122 5488 4056 
Q 5409 4013 5363 3909 
Q 5328 3834 5328 3519 
L 5328 725 
Q 5328 400 5362 319 
Q 5397 238 5503 177 
Q 5609 116 5788 116 
L 5925 116 
L 5925 0 
L 3713 0 
L 3713 116 
L 3850 116 
Q 4038 116 4150 181 
Q 4228 225 4275 331 
Q 4309 406 4309 725 
L 4309 3866 
L 2684 0 
L 2609 0 
L 959 3838 
L 959 853 
Q 959 541 975 469 
Q 1016 313 1152 214 
Q 1288 116 1578 116 
L 1578 0 
L 128 0 
L 128 116 
L 172 116 
Q 313 113 434 161 
Q 556 209 618 290 
Q 681 372 716 519 
Q 722 553 722 838 
L 722 3519 
Q 722 3841 687 3920 
Q 653 4000 547 4061 
Q 441 4122 263 4122 
L 128 4122 
L 128 4238 
L 1859 4238 
L 3050 1444 
z
" transform="scale(0.015625)"/>
      </defs>
      <use xlink:href="#TimesNewRomanPS-BoldMT-41"/>
      <use xlink:href="#TimesNewRomanPS-BoldMT-4c" x="72.216797"/>
      <use xlink:href="#TimesNewRomanPS-BoldMT-41" x="138.916016"/>
      <use xlink:href="#TimesNewRomanPS-BoldMT-4d" x="211.132812"/>
      <use xlink:href="#TimesNewRomanPS-BoldMT-4f" x="305.517578"/>
     </g>
    </g>
    <g id="line2d_18">
     <path d="M 545.237031 46.150313 
L 563.237031 46.150313 
L 581.237031 46.150313 
" style="fill: none; stroke: #f57b56; stroke-opacity: 0.9; stroke-width: 2.2; stroke-linecap: square"/>
    </g>
    <g id="text_12">
     <!-- NDCT -->
     <g transform="translate(595.637031 52.450313) scale(0.18 -0.18)">
      <defs>
       <path id="TimesNewRomanPS-BoldMT-44" d="M 84 0 
L 84 116 
L 225 116 
Q 409 116 507 173 
Q 606 231 653 331 
Q 681 397 681 725 
L 681 3513 
Q 681 3838 647 3919 
Q 613 4000 508 4061 
Q 403 4122 225 4122 
L 84 4122 
L 84 4238 
L 1981 4238 
Q 2741 4238 3203 4031 
Q 3769 3778 4061 3265 
Q 4353 2753 4353 2106 
Q 4353 1659 4209 1282 
Q 4066 906 3837 661 
Q 3609 416 3311 267 
Q 3013 119 2581 38 
Q 2391 0 1981 0 
L 84 0 
z
M 1700 3997 
L 1700 691 
Q 1700 428 1725 368 
Q 1750 309 1809 278 
Q 1894 231 2053 231 
Q 2575 231 2850 588 
Q 3225 1069 3225 2081 
Q 3225 2897 2969 3384 
Q 2766 3766 2447 3903 
Q 2222 4000 1700 3997 
z
" transform="scale(0.015625)"/>
      </defs>
      <use xlink:href="#TimesNewRomanPS-BoldMT-4e"/>
      <use xlink:href="#TimesNewRomanPS-BoldMT-44" x="72.216797"/>
      <use xlink:href="#TimesNewRomanPS-BoldMT-43" x="144.433594"/>
      <use xlink:href="#TimesNewRomanPS-BoldMT-54" x="216.650391"/>
     </g>
    </g>
    <g id="line2d_19">
     <path d="M 545.237031 71.600625 
L 563.237031 71.600625 
L 581.237031 71.600625 
" style="fill: none; stroke: #fdb670; stroke-opacity: 0.9; stroke-width: 2.2; stroke-linecap: square"/>
    </g>
    <g id="text_13">
     <!-- PLY -->
     <g transform="translate(595.637031 77.900625) scale(0.18 -0.18)">
      <defs>
       <path id="TimesNewRomanPS-BoldMT-50" d="M 1728 1919 
L 1728 744 
Q 1728 400 1770 311 
Q 1813 222 1920 169 
Q 2028 116 2316 116 
L 2316 0 
L 163 0 
L 163 116 
Q 456 116 561 170 
Q 666 225 708 312 
Q 750 400 750 744 
L 750 3494 
Q 750 3838 708 3927 
Q 666 4016 559 4069 
Q 453 4122 163 4122 
L 163 4238 
L 2009 4238 
Q 2922 4238 3319 3913 
Q 3716 3588 3716 3100 
Q 3716 2688 3459 2394 
Q 3203 2100 2753 1994 
Q 2450 1919 1728 1919 
z
M 1728 3994 
L 1728 2163 
Q 1831 2156 1884 2156 
Q 2266 2156 2472 2382 
Q 2678 2609 2678 3084 
Q 2678 3556 2472 3775 
Q 2266 3994 1856 3994 
L 1728 3994 
z
" transform="scale(0.015625)"/>
       <path id="TimesNewRomanPS-BoldMT-59" d="M 4550 4238 
L 4550 4122 
Q 4341 4094 4228 4000 
Q 4072 3869 3734 3284 
L 2816 1750 
L 2816 725 
Q 2816 397 2850 317 
Q 2884 238 2986 177 
Q 3088 116 3256 116 
L 3494 116 
L 3494 0 
L 1116 0 
L 1116 116 
L 1338 116 
Q 1525 116 1634 181 
Q 1716 225 1763 331 
Q 1797 406 1797 725 
L 1797 1575 
L 800 3391 
Q 503 3928 381 4023 
Q 259 4119 56 4122 
L 56 4238 
L 2088 4238 
L 2088 4122 
L 1997 4122 
Q 1813 4122 1739 4069 
Q 1666 4016 1666 3956 
Q 1666 3844 1916 3391 
L 2681 1988 
L 3444 3266 
Q 3728 3734 3728 3888 
Q 3728 3972 3647 4028 
Q 3541 4106 3256 4122 
L 3256 4238 
L 4550 4238 
z
" transform="scale(0.015625)"/>
      </defs>
      <use xlink:href="#TimesNewRomanPS-BoldMT-50"/>
      <use xlink:href="#TimesNewRomanPS-BoldMT-4c" x="61.083984"/>
      <use xlink:href="#TimesNewRomanPS-BoldMT-59" x="118.658203"/>
     </g>
    </g>
    <g id="line2d_20">
     <path d="M 545.237031 97.050938 
L 563.237031 97.050938 
L 581.237031 97.050938 
" style="fill: none; stroke: #82b5d5; stroke-opacity: 0.9; stroke-width: 2.2; stroke-linecap: square"/>
    </g>
    <g id="text_14">
     <!-- RBF -->
     <g transform="translate(595.637031 103.350938) scale(0.18 -0.18)">
      <defs>
       <path id="TimesNewRomanPS-BoldMT-42" d="M 2847 2247 
Q 3450 2106 3694 1906 
Q 4044 1622 4044 1169 
Q 4044 691 3659 378 
Q 3188 0 2288 0 
L 134 0 
L 134 116 
Q 428 116 533 170 
Q 638 225 680 312 
Q 722 400 722 744 
L 722 3494 
Q 722 3838 680 3927 
Q 638 4016 531 4069 
Q 425 4122 134 4122 
L 134 4238 
L 2166 4238 
Q 2894 4238 3197 4108 
Q 3500 3978 3675 3720 
Q 3850 3463 3850 3172 
Q 3850 2866 3628 2627 
Q 3406 2388 2847 2247 
z
M 1709 2331 
Q 2153 2331 2364 2431 
Q 2575 2531 2687 2712 
Q 2800 2894 2800 3175 
Q 2800 3456 2689 3636 
Q 2578 3816 2372 3909 
Q 2166 4003 1709 4000 
L 1709 2331 
z
M 1709 2088 
L 1709 728 
L 1706 572 
Q 1706 403 1792 317 
Q 1878 231 2047 231 
Q 2297 231 2508 342 
Q 2719 453 2831 664 
Q 2944 875 2944 1134 
Q 2944 1431 2806 1667 
Q 2669 1903 2428 1997 
Q 2188 2091 1709 2088 
z
" transform="scale(0.015625)"/>
       <path id="TimesNewRomanPS-BoldMT-46" d="M 1759 3994 
L 1759 2253 
L 1881 2253 
Q 2163 2253 2341 2337 
Q 2519 2422 2642 2622 
Q 2766 2822 2803 3163 
L 2913 3163 
L 2913 1034 
L 2803 1034 
Q 2744 1638 2480 1830 
Q 2216 2022 1881 2022 
L 1759 2022 
L 1759 725 
Q 1759 400 1795 319 
Q 1831 238 1936 177 
Q 2041 116 2219 116 
L 2359 116 
L 2359 0 
L 144 0 
L 144 116 
L 284 116 
Q 469 116 581 181 
Q 663 225 706 331 
Q 741 406 741 725 
L 741 3513 
Q 741 3838 706 3919 
Q 672 4000 567 4061 
Q 463 4122 284 4122 
L 144 4122 
L 144 4238 
L 3719 4238 
L 3719 3022 
L 3591 3022 
Q 3547 3450 3367 3656 
Q 3188 3863 2847 3947 
Q 2659 3994 2153 3994 
L 1759 3994 
z
" transform="scale(0.015625)"/>
      </defs>
      <use xlink:href="#TimesNewRomanPS-BoldMT-52"/>
      <use xlink:href="#TimesNewRomanPS-BoldMT-42" x="72.216797"/>
      <use xlink:href="#TimesNewRomanPS-BoldMT-46" x="138.916016"/>
     </g>
    </g>
    <g id="line2d_21">
     <path d="M 545.237031 122.50125 
L 563.237031 122.50125 
L 581.237031 122.50125 
" style="fill: none; stroke: #5682bb; stroke-opacity: 0.9; stroke-width: 2.2; stroke-linecap: square"/>
    </g>
    <g id="text_15">
     <!-- KRG -->
     <g transform="translate(595.637031 128.80125) scale(0.18 -0.18)">
      <defs>
       <path id="TimesNewRomanPS-BoldMT-4b" d="M 2666 2616 
L 4156 750 
Q 4472 356 4700 216 
Q 4866 116 5050 116 
L 5050 0 
L 2844 0 
L 2844 116 
Q 3053 134 3114 181 
Q 3175 228 3175 297 
Q 3175 428 2888 791 
L 1916 2013 
L 1759 1881 
L 1759 725 
Q 1759 394 1796 312 
Q 1834 231 1940 173 
Q 2047 116 2281 116 
L 2281 0 
L 144 0 
L 144 116 
L 284 116 
Q 469 116 581 181 
Q 663 225 706 331 
Q 741 406 741 725 
L 741 3513 
Q 741 3838 706 3919 
Q 672 4000 567 4061 
Q 463 4122 284 4122 
L 144 4122 
L 144 4238 
L 2253 4238 
L 2253 4122 
Q 2038 4122 1925 4059 
Q 1844 4016 1797 3913 
Q 1759 3834 1759 3513 
L 1759 2194 
L 3331 3466 
Q 3659 3731 3659 3891 
Q 3659 4009 3525 4078 
Q 3456 4113 3184 4122 
L 3184 4238 
L 4838 4238 
L 4838 4122 
Q 4616 4106 4489 4042 
Q 4363 3978 3906 3609 
L 2666 2616 
z
" transform="scale(0.015625)"/>
      </defs>
      <use xlink:href="#TimesNewRomanPS-BoldMT-4b"/>
      <use xlink:href="#TimesNewRomanPS-BoldMT-52" x="77.783203"/>
      <use xlink:href="#TimesNewRomanPS-BoldMT-47" x="150"/>
     </g>
    </g>
    <g id="line2d_22">
     <path d="M 545.237031 147.951563 
L 563.237031 147.951563 
L 581.237031 147.951563 
" style="fill: none; stroke: #454a9f; stroke-opacity: 0.9; stroke-width: 2.2; stroke-linecap: square"/>
    </g>
    <g id="text_16">
     <!-- Keras -->
     <g transform="translate(595.637031 154.251563) scale(0.18 -0.18)">
      <use xlink:href="#TimesNewRomanPS-BoldMT-4b"/>
      <use xlink:href="#TimesNewRomanPS-BoldMT-65" x="77.783203"/>
      <use xlink:href="#TimesNewRomanPS-BoldMT-72" x="122.167969"/>
      <use xlink:href="#TimesNewRomanPS-BoldMT-61" x="166.552734"/>
      <use xlink:href="#TimesNewRomanPS-BoldMT-73" x="216.552734"/>
     </g>
    </g>
   </g>
  </g>
 </g>
 <defs>
  <clipPath id="p4350a3e3f0">
   <path d="M 524.199531 266.715 
C 524.199531 237.330778 518.41148 208.23228 507.166625 181.084798 
C 495.92177 153.937317 479.438795 129.268802 458.661012 108.491019 
C 437.88323 87.713236 413.214714 71.230261 386.067233 59.985406 
C 358.919751 48.740551 329.821254 42.9525 300.437031 42.9525 
C 271.052809 42.9525 241.954311 48.740551 214.80683 59.985406 
C 187.659348 71.230261 162.990833 87.713236 142.21305 108.491019 
C 121.435267 129.268802 104.952292 153.937317 93.707437 181.084798 
C 82.462582 208.23228 76.674531 237.330778 76.674531 266.715 
C 76.674531 296.099222 82.462582 325.19772 93.707437 352.345202 
C 104.952292 379.492683 121.435267 404.161198 142.21305 424.938981 
C 162.990833 445.716764 187.659348 462.199739 214.80683 473.444594 
C 241.954311 484.689449 271.052809 490.4775 300.437031 490.4775 
C 329.821254 490.4775 358.919751 484.689449 386.067233 473.444594 
C 413.214714 462.199739 437.88323 445.716764 458.661012 424.938981 
C 479.438795 404.161198 495.92177 379.492683 507.166625 352.345202 
C 518.41148 325.19772 524.199531 296.099222 524.199531 266.715 
M 300.437031 266.715 
C 300.437031 266.715 300.437031 266.715 300.437031 266.715 
C 300.437031 266.715 300.437031 266.715 300.437031 266.715 
C 300.437031 266.715 300.437031 266.715 300.437031 266.715 
C 300.437031 266.715 300.437031 266.715 300.437031 266.715 
C 300.437031 266.715 300.437031 266.715 300.437031 266.715 
C 300.437031 266.715 300.437031 266.715 300.437031 266.715 
C 300.437031 266.715 300.437031 266.715 300.437031 266.715 
C 300.437031 266.715 300.437031 266.715 300.437031 266.715 
C 300.437031 266.715 300.437031 266.715 300.437031 266.715 
C 300.437031 266.715 300.437031 266.715 300.437031 266.715 
C 300.437031 266.715 300.437031 266.715 300.437031 266.715 
C 300.437031 266.715 300.437031 266.715 300.437031 266.715 
C 300.437031 266.715 300.437031 266.715 300.437031 266.715 
C 300.437031 266.715 300.437031 266.715 300.437031 266.715 
C 300.437031 266.715 300.437031 266.715 300.437031 266.715 
C 300.437031 266.715 300.437031 266.715 300.437031 266.715 
z
"/>
  </clipPath>
 </defs>
</svg>
