<?xml version="1.0" encoding="utf-8" standalone="no"?>
<!DOCTYPE svg PUBLIC "-//W3C//DTD SVG 1.1//EN"
  "http://www.w3.org/Graphics/SVG/1.1/DTD/svg11.dtd">
<svg xmlns:xlink="http://www.w3.org/1999/xlink" width="924.080625pt" height="913.240833pt" viewBox="0 0 924.080625 913.240833" xmlns="http://www.w3.org/2000/svg" version="1.1">
 <metadata>
  <rdf:RDF xmlns:dc="http://purl.org/dc/elements/1.1/" xmlns:cc="http://creativecommons.org/ns#" xmlns:rdf="http://www.w3.org/1999/02/22-rdf-syntax-ns#">
   <cc:Work>
    <dc:type rdf:resource="http://purl.org/dc/dcmitype/StillImage"/>
    <dc:date>2025-09-28T20:50:00.575822</dc:date>
    <dc:format>image/svg+xml</dc:format>
    <dc:creator>
     <cc:Agent>
      <dc:title>Matplotlib v3.10.5, https://matplotlib.org/</dc:title>
     </cc:Agent>
    </dc:creator>
   </cc:Work>
  </rdf:RDF>
 </metadata>
 <defs>
  <style type="text/css">*{stroke-linejoin: round; stroke-linecap: butt}</style>
 </defs>
 <g id="figure_1">
  <g id="patch_1">
   <path d="M 0 913.240833 
L 924.080625 913.240833 
L 924.080625 0 
L 0 0 
z
" style="fill: #ffffff"/>
  </g>
  <g id="axes_1">
   <g id="patch_2">
    <path d="M 79.880625 847.731771 
L 916.880625 847.731771 
L 916.880625 16.131771 
L 79.880625 16.131771 
z
" style="fill: #ffffff"/>
   </g>
   <g id="FillBetweenPolyCollection_1">
    <defs>
     <path id="m7ab8c1f9d6" d="M 117.92608 -682.142138 
L 117.92608 -845.602649 
L 157.973926 -710.776603 
L 198.021773 -623.094043 
L 238.06962 -522.449497 
L 278.117467 -522.449497 
L 318.165314 -522.449497 
L 358.213161 -486.394022 
L 398.261008 -436.781628 
L 438.308855 -436.781628 
L 478.356702 -436.781628 
L 518.404548 -436.781628 
L 558.452395 -389.088304 
L 598.500242 -331.109554 
L 638.548089 -323.054687 
L 678.595936 -323.054687 
L 718.643783 -312.005603 
L 758.69163 -286.37027 
L 798.739477 -281.917159 
L 838.787324 -281.917159 
L 878.83517 -281.917159 
L 878.83517 -123.555736 
L 878.83517 -123.555736 
L 838.787324 -123.555736 
L 798.739477 -123.555736 
L 758.69163 -123.555736 
L 718.643783 -123.555736 
L 678.595936 -123.555736 
L 638.548089 -123.555736 
L 598.500242 -123.555736 
L 558.452395 -244.746626 
L 518.404548 -244.746626 
L 478.356702 -244.746626 
L 438.308855 -303.2633 
L 398.261008 -303.2633 
L 358.213161 -303.2633 
L 318.165314 -374.780352 
L 278.117467 -374.780352 
L 238.06962 -374.780352 
L 198.021773 -374.780352 
L 157.973926 -504.535296 
L 117.92608 -682.142138 
z
" style="stroke: #db443c; stroke-opacity: 0.2"/>
    </defs>
    <g clip-path="url(#p90578f76ce)">
     <use xlink:href="#m7ab8c1f9d6" x="0" y="913.240833" style="fill: #db443c; fill-opacity: 0.2; stroke: #db443c; stroke-opacity: 0.2"/>
    </g>
   </g>
   <g id="FillBetweenPolyCollection_2">
    <defs>
     <path id="m196093556e" d="M 117.92608 -446.25311 
L 117.92608 -753.2756 
L 157.973926 -720.181075 
L 198.021773 -673.567525 
L 238.06962 -547.660792 
L 278.117467 -521.507478 
L 318.165314 -521.507478 
L 358.213161 -501.729257 
L 398.261008 -501.729257 
L 438.308855 -501.729257 
L 478.356702 -501.729257 
L 518.404548 -490.150775 
L 558.452395 -490.150775 
L 598.500242 -490.150775 
L 638.548089 -489.016756 
L 678.595936 -459.833289 
L 718.643783 -459.833289 
L 758.69163 -459.833289 
L 798.739477 -459.833289 
L 838.787324 -459.833289 
L 878.83517 -459.833289 
L 878.83517 -324.311879 
L 878.83517 -324.311879 
L 838.787324 -324.311879 
L 798.739477 -324.311879 
L 758.69163 -324.311879 
L 718.643783 -324.311879 
L 678.595936 -324.311879 
L 638.548089 -324.311879 
L 598.500242 -324.311879 
L 558.452395 -324.311879 
L 518.404548 -324.311879 
L 478.356702 -375.570462 
L 438.308855 -375.570462 
L 398.261008 -375.570462 
L 358.213161 -375.570462 
L 318.165314 -385.614176 
L 278.117467 -387.022734 
L 238.06962 -387.022734 
L 198.021773 -446.25311 
L 157.973926 -446.25311 
L 117.92608 -446.25311 
z
" style="stroke: #f57b56; stroke-opacity: 0.2"/>
    </defs>
    <g clip-path="url(#p90578f76ce)">
     <use xlink:href="#m196093556e" x="0" y="913.240833" style="fill: #f57b56; fill-opacity: 0.2; stroke: #f57b56; stroke-opacity: 0.2"/>
    </g>
   </g>
   <g id="FillBetweenPolyCollection_3">
    <defs>
     <path id="m1a13478791" d="M 117.92608 -446.25311 
L 117.92608 -753.2756 
L 157.973926 -729.321356 
L 198.021773 -729.259203 
L 238.06962 -663.135516 
L 278.117467 -654.168414 
L 318.165314 -555.425101 
L 358.213161 -500.499926 
L 398.261008 -500.499926 
L 438.308855 -500.499926 
L 478.356702 -500.499926 
L 518.404548 -487.618781 
L 558.452395 -381.666912 
L 598.500242 -381.666912 
L 638.548089 -381.666912 
L 678.595936 -381.666912 
L 718.643783 -381.666912 
L 758.69163 -381.666912 
L 798.739477 -338.365451 
L 838.787324 -338.365451 
L 878.83517 -338.365451 
L 878.83517 -103.309062 
L 878.83517 -103.309062 
L 838.787324 -103.309062 
L 798.739477 -103.309062 
L 758.69163 -103.309062 
L 718.643783 -103.309062 
L 678.595936 -111.392971 
L 638.548089 -111.392971 
L 598.500242 -111.392971 
L 558.452395 -111.392971 
L 518.404548 -256.804526 
L 478.356702 -256.804526 
L 438.308855 -256.804526 
L 398.261008 -324.777518 
L 358.213161 -324.777518 
L 318.165314 -324.777518 
L 278.117467 -324.777518 
L 238.06962 -340.869599 
L 198.021773 -340.869599 
L 157.973926 -340.869599 
L 117.92608 -446.25311 
z
" style="stroke: #fdb670; stroke-opacity: 0.2"/>
    </defs>
    <g clip-path="url(#p90578f76ce)">
     <use xlink:href="#m1a13478791" x="0" y="913.240833" style="fill: #fdb670; fill-opacity: 0.2; stroke: #fdb670; stroke-opacity: 0.2"/>
    </g>
   </g>
   <g id="FillBetweenPolyCollection_4">
    <defs>
     <path id="m2ea39af6df" d="M 117.92608 -701.273699 
L 117.92608 -855.233124 
L 157.973926 -743.038602 
L 198.021773 -630.495778 
L 238.06962 -483.486368 
L 278.117467 -483.486368 
L 318.165314 -483.486368 
L 358.213161 -472.649688 
L 398.261008 -397.336139 
L 438.308855 -397.336139 
L 478.356702 -397.336139 
L 518.404548 -397.336139 
L 558.452395 -397.336139 
L 598.500242 -394.699584 
L 638.548089 -371.252906 
L 678.595936 -371.252906 
L 718.643783 -366.856574 
L 758.69163 -240.790667 
L 798.739477 -240.790667 
L 838.787324 -240.790667 
L 878.83517 -240.790667 
L 878.83517 -167.042685 
L 878.83517 -167.042685 
L 838.787324 -167.042685 
L 798.739477 -167.042685 
L 758.69163 -167.042685 
L 718.643783 -171.952577 
L 678.595936 -182.730467 
L 638.548089 -182.730467 
L 598.500242 -182.730467 
L 558.452395 -182.730467 
L 518.404548 -182.730467 
L 478.356702 -182.730467 
L 438.308855 -182.730467 
L 398.261008 -182.730467 
L 358.213161 -182.730467 
L 318.165314 -368.402959 
L 278.117467 -368.402959 
L 238.06962 -368.402959 
L 198.021773 -368.402959 
L 157.973926 -376.875392 
L 117.92608 -701.273699 
z
" style="stroke: #82b5d5; stroke-opacity: 0.2"/>
    </defs>
    <g clip-path="url(#p90578f76ce)">
     <use xlink:href="#m2ea39af6df" x="0" y="913.240833" style="fill: #82b5d5; fill-opacity: 0.2; stroke: #82b5d5; stroke-opacity: 0.2"/>
    </g>
   </g>
   <g id="FillBetweenPolyCollection_5">
    <defs>
     <path id="md01c31bc2b" d="M 117.92608 -659.841129 
L 117.92608 -859.309062 
L 157.973926 -813.553256 
L 198.021773 -742.250284 
L 238.06962 -742.250284 
L 278.117467 -742.250284 
L 318.165314 -738.514119 
L 358.213161 -687.949241 
L 398.261008 -621.594656 
L 438.308855 -554.114288 
L 478.356702 -380.708802 
L 518.404548 -380.097254 
L 558.452395 -307.781785 
L 598.500242 -286.66262 
L 638.548089 -276.655062 
L 678.595936 -276.145352 
L 718.643783 -276.145352 
L 758.69163 -274.102028 
L 798.739477 -274.102028 
L 838.787324 -274.017823 
L 878.83517 -274.017823 
L 878.83517 -174.051357 
L 878.83517 -174.051357 
L 838.787324 -174.051357 
L 798.739477 -175.212926 
L 758.69163 -175.212926 
L 718.643783 -177.665665 
L 678.595936 -178.079246 
L 638.548089 -178.079246 
L 598.500242 -189.398 
L 558.452395 -192.45459 
L 518.404548 -192.45459 
L 478.356702 -240.785616 
L 438.308855 -282.794051 
L 398.261008 -282.794051 
L 358.213161 -282.794051 
L 318.165314 -282.794051 
L 278.117467 -282.794051 
L 238.06962 -470.218332 
L 198.021773 -470.218332 
L 157.973926 -470.218332 
L 117.92608 -659.841129 
z
" style="stroke: #4db6ac; stroke-opacity: 0.2"/>
    </defs>
    <g clip-path="url(#p90578f76ce)">
     <use xlink:href="#md01c31bc2b" x="0" y="913.240833" style="fill: #4db6ac; fill-opacity: 0.2; stroke: #4db6ac; stroke-opacity: 0.2"/>
    </g>
   </g>
   <g id="FillBetweenPolyCollection_6">
    <defs>
     <path id="m159e2a60d7" d="M 117.92608 -459.735108 
L 117.92608 -773.347679 
L 157.973926 -681.601396 
L 198.021773 -672.40318 
L 238.06962 -672.40318 
L 278.117467 -672.40318 
L 318.165314 -665.242856 
L 358.213161 -621.299206 
L 398.261008 -621.299206 
L 438.308855 -583.40611 
L 478.356702 -543.04246 
L 518.404548 -523.549396 
L 558.452395 -398.38977 
L 598.500242 -342.775647 
L 638.548089 -290.449656 
L 678.595936 -290.280995 
L 718.643783 -290.280995 
L 758.69163 -290.280995 
L 798.739477 -283.007058 
L 838.787324 -282.824458 
L 878.83517 -282.824458 
L 878.83517 -124.636292 
L 878.83517 -124.636292 
L 838.787324 -124.636292 
L 798.739477 -124.636292 
L 758.69163 -150.484968 
L 718.643783 -161.947438 
L 678.595936 -189.093436 
L 638.548089 -195.007805 
L 598.500242 -198.647197 
L 558.452395 -198.647197 
L 518.404548 -244.388092 
L 478.356702 -260.400385 
L 438.308855 -260.400385 
L 398.261008 -264.905176 
L 358.213161 -306.985568 
L 318.165314 -306.985568 
L 278.117467 -306.985568 
L 238.06962 -421.855519 
L 198.021773 -421.855519 
L 157.973926 -459.735108 
L 117.92608 -459.735108 
z
" style="stroke: #5682bb; stroke-opacity: 0.2"/>
    </defs>
    <g clip-path="url(#p90578f76ce)">
     <use xlink:href="#m159e2a60d7" x="0" y="913.240833" style="fill: #5682bb; fill-opacity: 0.2; stroke: #5682bb; stroke-opacity: 0.2"/>
    </g>
   </g>
   <g id="FillBetweenPolyCollection_7">
    <defs>
     <path id="m9726267298" d="M 117.92608 -601.70405 
L 117.92608 -840.858637 
L 157.973926 -689.937138 
L 198.021773 -581.846724 
L 238.06962 -581.846724 
L 278.117467 -560.875105 
L 318.165314 -560.875105 
L 358.213161 -534.062149 
L 398.261008 -534.062149 
L 438.308855 -534.062149 
L 478.356702 -466.574879 
L 518.404548 -466.574879 
L 558.452395 -458.964226 
L 598.500242 -458.964226 
L 638.548089 -458.964226 
L 678.595936 -452.736923 
L 718.643783 -452.490058 
L 758.69163 -452.490058 
L 798.739477 -452.490058 
L 838.787324 -452.490058 
L 878.83517 -452.490058 
L 878.83517 -209.652473 
L 878.83517 -209.652473 
L 838.787324 -209.652473 
L 798.739477 -209.652473 
L 758.69163 -209.652473 
L 718.643783 -272.430827 
L 678.595936 -272.430827 
L 638.548089 -272.430827 
L 598.500242 -272.430827 
L 558.452395 -272.430827 
L 518.404548 -272.430827 
L 478.356702 -272.430827 
L 438.308855 -279.393454 
L 398.261008 -279.393454 
L 358.213161 -279.393454 
L 318.165314 -279.393454 
L 278.117467 -279.393454 
L 238.06962 -388.866337 
L 198.021773 -388.866337 
L 157.973926 -406.197735 
L 117.92608 -601.70405 
z
" style="stroke: #454a9f; stroke-opacity: 0.2"/>
    </defs>
    <g clip-path="url(#p90578f76ce)">
     <use xlink:href="#m9726267298" x="0" y="913.240833" style="fill: #454a9f; fill-opacity: 0.2; stroke: #454a9f; stroke-opacity: 0.2"/>
    </g>
   </g>
   <g id="FillBetweenPolyCollection_8">
    <defs>
     <path id="m7de6d3735b" d="M 117.92608 -607.817682 
L 117.92608 -794.961773 
L 157.973926 -555.457048 
L 198.021773 -520.568101 
L 238.06962 -520.568101 
L 278.117467 -520.568101 
L 318.165314 -520.568101 
L 358.213161 -498.376769 
L 398.261008 -454.75413 
L 438.308855 -454.75413 
L 478.356702 -451.393206 
L 518.404548 -356.647117 
L 558.452395 -281.822609 
L 598.500242 -281.822609 
L 638.548089 -278.412382 
L 678.595936 -278.412382 
L 718.643783 -232.434913 
L 758.69163 -232.434913 
L 798.739477 -232.434913 
L 838.787324 -232.434913 
L 878.83517 -232.434913 
L 878.83517 -117.652999 
L 878.83517 -117.652999 
L 838.787324 -117.652999 
L 798.739477 -117.652999 
L 758.69163 -117.652999 
L 718.643783 -117.652999 
L 678.595936 -117.652999 
L 638.548089 -117.652999 
L 598.500242 -159.249242 
L 558.452395 -159.249242 
L 518.404548 -194.226698 
L 478.356702 -224.997115 
L 438.308855 -261.549798 
L 398.261008 -269.967622 
L 358.213161 -331.182823 
L 318.165314 -431.45273 
L 278.117467 -431.45273 
L 238.06962 -431.45273 
L 198.021773 -431.45273 
L 157.973926 -444.994062 
L 117.92608 -607.817682 
z
" style="stroke: #8e44ad; stroke-opacity: 0.2"/>
    </defs>
    <g clip-path="url(#p90578f76ce)">
     <use xlink:href="#m7de6d3735b" x="0" y="913.240833" style="fill: #8e44ad; fill-opacity: 0.2; stroke: #8e44ad; stroke-opacity: 0.2"/>
    </g>
   </g>
   <g id="matplotlib.axis_1">
    <g id="xtick_1">
     <g id="line2d_1">
      <defs>
       <path id="mdc66a6cf9d" d="M 0 0 
L 0 3.5 
" style="stroke: #000000; stroke-width: 2"/>
      </defs>
      <g>
       <use xlink:href="#mdc66a6cf9d" x="117.92608" y="847.731771" style="stroke: #000000; stroke-width: 2"/>
      </g>
     </g>
     <g id="text_1">
      <!-- 0 -->
      <g transform="translate(111.42608 871.948646) scale(0.26 -0.26)">
       <defs>
        <path id="TimesNewRomanPS-BoldMT-30" d="M 2966 2119 
Q 2966 1484 2788 934 
Q 2681 597 2501 381 
Q 2322 166 2094 39 
Q 1866 -88 1597 -88 
Q 1291 -88 1044 68 
Q 797 225 606 516 
Q 469 728 366 1081 
Q 231 1559 231 2069 
Q 231 2759 425 3338 
Q 584 3816 909 4070 
Q 1234 4325 1597 4325 
Q 1966 4325 2286 4073 
Q 2606 3822 2756 3397 
Q 2966 2813 2966 2119 
z
M 2003 2125 
Q 2003 3238 1991 3422 
Q 1959 3856 1841 4009 
Q 1763 4109 1588 4109 
Q 1453 4109 1375 4034 
Q 1259 3925 1218 3648 
Q 1178 3372 1178 1719 
Q 1178 819 1241 513 
Q 1288 291 1375 216 
Q 1463 141 1606 141 
Q 1763 141 1841 241 
Q 1972 416 1991 781 
L 2003 2125 
z
" transform="scale(0.015625)"/>
       </defs>
       <use xlink:href="#TimesNewRomanPS-BoldMT-30"/>
      </g>
     </g>
    </g>
    <g id="xtick_2">
     <g id="line2d_2">
      <g>
       <use xlink:href="#mdc66a6cf9d" x="318.165314" y="847.731771" style="stroke: #000000; stroke-width: 2"/>
      </g>
     </g>
     <g id="text_2">
      <!-- 5 -->
      <g transform="translate(311.665314 871.948646) scale(0.26 -0.26)">
       <defs>
        <path id="TimesNewRomanPS-BoldMT-35" d="M 975 4238 
L 2959 4238 
L 2644 3431 
L 975 3431 
L 816 3009 
Q 1894 2969 2475 2472 
Q 2953 2063 2953 1453 
Q 2953 1063 2731 689 
Q 2509 316 2106 114 
Q 1703 -88 1222 -88 
Q 703 -88 425 106 
Q 231 244 231 419 
Q 231 553 332 656 
Q 434 759 569 759 
Q 691 759 816 709 
Q 941 659 1244 447 
Q 1434 316 1572 266 
Q 1669 228 1791 228 
Q 2047 228 2226 415 
Q 2406 603 2406 866 
Q 2406 1416 1856 1759 
Q 1306 2103 469 2103 
Q 384 2103 216 2100 
L 975 4238 
z
" transform="scale(0.015625)"/>
       </defs>
       <use xlink:href="#TimesNewRomanPS-BoldMT-35"/>
      </g>
     </g>
    </g>
    <g id="xtick_3">
     <g id="line2d_3">
      <g>
       <use xlink:href="#mdc66a6cf9d" x="518.404548" y="847.731771" style="stroke: #000000; stroke-width: 2"/>
      </g>
     </g>
     <g id="text_3">
      <!-- 10 -->
      <g transform="translate(505.404548 871.948646) scale(0.26 -0.26)">
       <defs>
        <path id="TimesNewRomanPS-BoldMT-31" d="M 2084 4325 
L 2084 859 
Q 2084 469 2118 361 
Q 2153 253 2262 184 
Q 2372 116 2613 116 
L 2709 116 
L 2709 0 
L 478 0 
L 478 116 
L 591 116 
Q 863 116 978 178 
Q 1094 241 1134 350 
Q 1175 459 1175 859 
L 1175 3056 
Q 1175 3350 1147 3423 
Q 1119 3497 1042 3548 
Q 966 3600 866 3600 
Q 706 3600 478 3500 
L 422 3613 
L 1981 4325 
L 2084 4325 
z
" transform="scale(0.015625)"/>
       </defs>
       <use xlink:href="#TimesNewRomanPS-BoldMT-31"/>
       <use xlink:href="#TimesNewRomanPS-BoldMT-30" transform="translate(50 0)"/>
      </g>
     </g>
    </g>
    <g id="xtick_4">
     <g id="line2d_4">
      <g>
       <use xlink:href="#mdc66a6cf9d" x="718.643783" y="847.731771" style="stroke: #000000; stroke-width: 2"/>
      </g>
     </g>
     <g id="text_4">
      <!-- 15 -->
      <g transform="translate(705.643783 871.948646) scale(0.26 -0.26)">
       <use xlink:href="#TimesNewRomanPS-BoldMT-31"/>
       <use xlink:href="#TimesNewRomanPS-BoldMT-35" transform="translate(50 0)"/>
      </g>
     </g>
    </g>
    <g id="xtick_5">
     <g id="line2d_5">
      <g>
       <use xlink:href="#mdc66a6cf9d" x="878.83517" y="847.731771" style="stroke: #000000; stroke-width: 2"/>
      </g>
     </g>
     <g id="text_5">
      <!-- 19 -->
      <g transform="translate(865.83517 871.948646) scale(0.26 -0.26)">
       <defs>
        <path id="TimesNewRomanPS-BoldMT-39" d="M 197 -88 
L 197 0 
Q 716 119 1077 350 
Q 1438 581 1648 922 
Q 1859 1263 1944 1706 
Q 1750 1606 1614 1567 
Q 1478 1528 1328 1528 
Q 847 1528 526 1875 
Q 206 2222 206 2825 
Q 206 3244 379 3592 
Q 553 3941 875 4133 
Q 1197 4325 1544 4325 
Q 1916 4325 2247 4112 
Q 2578 3900 2775 3497 
Q 2972 3094 2972 2578 
Q 2972 1909 2651 1296 
Q 2331 684 1697 314 
Q 1063 -56 197 -88 
z
M 1991 1969 
Q 2022 2319 2022 2584 
Q 2022 3153 1891 3644 
Q 1816 3916 1669 4044 
Q 1591 4113 1466 4113 
Q 1309 4113 1222 3978 
Q 1100 3794 1100 3275 
Q 1100 2409 1306 2081 
Q 1441 1869 1669 1869 
Q 1791 1869 1991 1969 
z
" transform="scale(0.015625)"/>
       </defs>
       <use xlink:href="#TimesNewRomanPS-BoldMT-31"/>
       <use xlink:href="#TimesNewRomanPS-BoldMT-39" transform="translate(50 0)"/>
      </g>
     </g>
    </g>
    <g id="text_6">
     <!-- Iterations -->
     <g transform="translate(440.055313 900.051458) scale(0.28 -0.28)">
      <defs>
       <path id="TimesNewRomanPS-BoldMT-49" d="M 2344 116 
L 2344 0 
L 128 0 
L 128 116 
L 269 116 
Q 453 116 566 181 
Q 647 225 691 331 
Q 725 406 725 725 
L 725 3513 
Q 725 3838 690 3919 
Q 656 4000 551 4061 
Q 447 4122 269 4122 
L 128 4122 
L 128 4238 
L 2344 4238 
L 2344 4122 
L 2203 4122 
Q 2019 4122 1906 4056 
Q 1825 4013 1778 3906 
Q 1744 3831 1744 3513 
L 1744 725 
Q 1744 400 1780 319 
Q 1816 238 1920 177 
Q 2025 116 2203 116 
L 2344 116 
z
" transform="scale(0.015625)"/>
       <path id="TimesNewRomanPS-BoldMT-74" d="M 1375 3991 
L 1375 2922 
L 2069 2922 
L 2069 2613 
L 1375 2613 
L 1375 809 
Q 1375 556 1398 482 
Q 1422 409 1481 364 
Q 1541 319 1591 319 
Q 1794 319 1975 628 
L 2069 559 
Q 1816 -41 1247 -41 
Q 969 -41 776 114 
Q 584 269 531 459 
Q 500 566 500 1034 
L 500 2613 
L 119 2613 
L 119 2722 
Q 513 3000 789 3306 
Q 1066 3613 1272 3991 
L 1375 3991 
z
" transform="scale(0.015625)"/>
       <path id="TimesNewRomanPS-BoldMT-65" d="M 2691 1566 
L 1088 1566 
Q 1116 984 1397 647 
Q 1613 388 1916 388 
Q 2103 388 2256 492 
Q 2409 597 2584 869 
L 2691 800 
Q 2453 316 2165 114 
Q 1878 -88 1500 -88 
Q 850 -88 516 413 
Q 247 816 247 1413 
Q 247 2144 642 2576 
Q 1038 3009 1569 3009 
Q 2013 3009 2339 2645 
Q 2666 2281 2691 1566 
z
M 1922 1775 
Q 1922 2278 1867 2465 
Q 1813 2653 1697 2750 
Q 1631 2806 1522 2806 
Q 1359 2806 1256 2647 
Q 1072 2369 1072 1884 
L 1072 1775 
L 1922 1775 
z
" transform="scale(0.015625)"/>
       <path id="TimesNewRomanPS-BoldMT-72" d="M 1428 2922 
L 1428 2259 
Q 1719 2713 1937 2861 
Q 2156 3009 2359 3009 
Q 2534 3009 2639 2901 
Q 2744 2794 2744 2597 
Q 2744 2388 2642 2272 
Q 2541 2156 2397 2156 
Q 2231 2156 2109 2262 
Q 1988 2369 1966 2381 
Q 1934 2400 1894 2400 
Q 1803 2400 1722 2331 
Q 1594 2225 1528 2028 
Q 1428 1725 1428 1359 
L 1428 688 
L 1431 513 
Q 1431 334 1453 284 
Q 1491 200 1564 161 
Q 1638 122 1813 113 
L 1813 0 
L 234 0 
L 234 113 
Q 425 128 492 217 
Q 559 306 559 688 
L 559 2303 
Q 559 2553 534 2622 
Q 503 2709 443 2750 
Q 384 2791 234 2806 
L 234 2922 
L 1428 2922 
z
" transform="scale(0.015625)"/>
       <path id="TimesNewRomanPS-BoldMT-61" d="M 1828 431 
Q 1294 -41 869 -41 
Q 619 -41 453 123 
Q 288 288 288 534 
Q 288 869 575 1136 
Q 863 1403 1828 1847 
L 1828 2141 
Q 1828 2472 1792 2558 
Q 1756 2644 1656 2708 
Q 1556 2772 1431 2772 
Q 1228 2772 1097 2681 
Q 1016 2625 1016 2550 
Q 1016 2484 1103 2388 
Q 1222 2253 1222 2128 
Q 1222 1975 1108 1867 
Q 994 1759 809 1759 
Q 613 1759 480 1878 
Q 347 1997 347 2156 
Q 347 2381 525 2586 
Q 703 2791 1022 2900 
Q 1341 3009 1684 3009 
Q 2100 3009 2342 2832 
Q 2584 2656 2656 2450 
Q 2700 2319 2700 1847 
L 2700 713 
Q 2700 513 2715 461 
Q 2731 409 2762 384 
Q 2794 359 2834 359 
Q 2916 359 3000 475 
L 3094 400 
Q 2938 169 2770 64 
Q 2603 -41 2391 -41 
Q 2141 -41 2000 76 
Q 1859 194 1828 431 
z
M 1828 659 
L 1828 1638 
Q 1450 1416 1266 1163 
Q 1144 994 1144 822 
Q 1144 678 1247 569 
Q 1325 484 1466 484 
Q 1622 484 1828 659 
z
" transform="scale(0.015625)"/>
       <path id="TimesNewRomanPS-BoldMT-69" d="M 919 4338 
Q 1122 4338 1262 4195 
Q 1403 4053 1403 3853 
Q 1403 3653 1261 3512 
Q 1119 3372 919 3372 
Q 719 3372 578 3512 
Q 438 3653 438 3853 
Q 438 4053 578 4195 
Q 719 4338 919 4338 
z
M 1356 2922 
L 1356 606 
Q 1356 297 1428 211 
Q 1500 125 1709 113 
L 1709 0 
L 131 0 
L 131 113 
Q 325 119 419 225 
Q 481 297 481 606 
L 481 2313 
Q 481 2622 409 2708 
Q 338 2794 131 2806 
L 131 2922 
L 1356 2922 
z
" transform="scale(0.015625)"/>
       <path id="TimesNewRomanPS-BoldMT-6f" d="M 1594 3009 
Q 1975 3009 2303 2812 
Q 2631 2616 2801 2253 
Q 2972 1891 2972 1459 
Q 2972 838 2656 419 
Q 2275 -88 1603 -88 
Q 944 -88 587 375 
Q 231 838 231 1447 
Q 231 2075 595 2542 
Q 959 3009 1594 3009 
z
M 1606 2788 
Q 1447 2788 1333 2667 
Q 1219 2547 1183 2192 
Q 1147 1838 1147 1206 
Q 1147 872 1191 581 
Q 1225 359 1337 243 
Q 1450 128 1594 128 
Q 1734 128 1828 206 
Q 1950 313 1991 503 
Q 2053 800 2053 1703 
Q 2053 2234 1993 2432 
Q 1934 2631 1819 2722 
Q 1738 2788 1606 2788 
z
" transform="scale(0.015625)"/>
       <path id="TimesNewRomanPS-BoldMT-6e" d="M 1409 2922 
L 1409 2544 
Q 1634 2788 1840 2898 
Q 2047 3009 2284 3009 
Q 2569 3009 2756 2851 
Q 2944 2694 3006 2459 
Q 3056 2281 3056 1775 
L 3056 638 
Q 3056 300 3117 217 
Q 3178 134 3372 113 
L 3372 0 
L 1894 0 
L 1894 113 
Q 2059 134 2131 250 
Q 2181 328 2181 638 
L 2181 1938 
Q 2181 2297 2153 2390 
Q 2125 2484 2058 2536 
Q 1991 2588 1909 2588 
Q 1641 2588 1409 2203 
L 1409 638 
Q 1409 309 1470 221 
Q 1531 134 1697 113 
L 1697 0 
L 219 0 
L 219 113 
Q 403 131 481 231 
Q 534 300 534 638 
L 534 2288 
Q 534 2619 473 2700 
Q 413 2781 219 2806 
L 219 2922 
L 1409 2922 
z
" transform="scale(0.015625)"/>
       <path id="TimesNewRomanPS-BoldMT-73" d="M 2063 3003 
L 2109 2006 
L 2003 2006 
Q 1813 2450 1608 2612 
Q 1403 2775 1200 2775 
Q 1072 2775 981 2689 
Q 891 2603 891 2491 
Q 891 2406 953 2328 
Q 1053 2200 1512 1889 
Q 1972 1578 2117 1361 
Q 2263 1144 2263 875 
Q 2263 631 2141 397 
Q 2019 163 1797 37 
Q 1575 -88 1306 -88 
Q 1097 -88 747 44 
Q 653 78 619 78 
Q 516 78 447 -78 
L 344 -78 
L 294 972 
L 400 972 
Q 541 559 786 353 
Q 1031 147 1250 147 
Q 1400 147 1495 239 
Q 1591 331 1591 463 
Q 1591 613 1497 722 
Q 1403 831 1078 1053 
Q 600 1384 459 1559 
Q 253 1816 253 2125 
Q 253 2463 486 2736 
Q 719 3009 1159 3009 
Q 1397 3009 1619 2894 
Q 1703 2847 1756 2847 
Q 1813 2847 1847 2870 
Q 1881 2894 1956 3003 
L 2063 3003 
z
" transform="scale(0.015625)"/>
      </defs>
      <use xlink:href="#TimesNewRomanPS-BoldMT-49"/>
      <use xlink:href="#TimesNewRomanPS-BoldMT-74" transform="translate(38.916016 0)"/>
      <use xlink:href="#TimesNewRomanPS-BoldMT-65" transform="translate(72.216797 0)"/>
      <use xlink:href="#TimesNewRomanPS-BoldMT-72" transform="translate(116.601562 0)"/>
      <use xlink:href="#TimesNewRomanPS-BoldMT-61" transform="translate(160.986328 0)"/>
      <use xlink:href="#TimesNewRomanPS-BoldMT-74" transform="translate(210.986328 0)"/>
      <use xlink:href="#TimesNewRomanPS-BoldMT-69" transform="translate(244.287109 0)"/>
      <use xlink:href="#TimesNewRomanPS-BoldMT-6f" transform="translate(272.070312 0)"/>
      <use xlink:href="#TimesNewRomanPS-BoldMT-6e" transform="translate(322.070312 0)"/>
      <use xlink:href="#TimesNewRomanPS-BoldMT-73" transform="translate(377.685547 0)"/>
     </g>
    </g>
   </g>
   <g id="matplotlib.axis_2">
    <g id="ytick_1">
     <g id="line2d_6">
      <defs>
       <path id="m94e3429ad4" d="M 0 0 
L -3.5 0 
" style="stroke: #000000; stroke-width: 2"/>
      </defs>
      <g>
       <use xlink:href="#m94e3429ad4" x="79.880625" y="838.986978" style="stroke: #000000; stroke-width: 2"/>
      </g>
     </g>
     <g id="text_7">
      <!-- $\mathdefault{10^{0}}$ -->
      <g transform="translate(36.220625 850.636197) scale(0.26 -0.26)">
       <use xlink:href="#TimesNewRomanPS-BoldMT-31" transform="translate(0 0.335938)"/>
       <use xlink:href="#TimesNewRomanPS-BoldMT-30" transform="translate(50 0.335938)"/>
       <use xlink:href="#TimesNewRomanPS-BoldMT-30" transform="translate(101.533984 61.695312) scale(0.7)"/>
      </g>
     </g>
    </g>
    <g id="ytick_2">
     <g id="line2d_7">
      <g>
       <use xlink:href="#m94e3429ad4" x="79.880625" y="702.297352" style="stroke: #000000; stroke-width: 2"/>
      </g>
     </g>
     <g id="text_8">
      <!-- $\mathdefault{10^{1}}$ -->
      <g transform="translate(36.220625 713.94657) scale(0.26 -0.26)">
       <use xlink:href="#TimesNewRomanPS-BoldMT-31" transform="translate(0 0.335938)"/>
       <use xlink:href="#TimesNewRomanPS-BoldMT-30" transform="translate(50 0.335938)"/>
       <use xlink:href="#TimesNewRomanPS-BoldMT-31" transform="translate(101.533984 61.695312) scale(0.7)"/>
      </g>
     </g>
    </g>
    <g id="ytick_3">
     <g id="line2d_8">
      <g>
       <use xlink:href="#m94e3429ad4" x="79.880625" y="565.607725" style="stroke: #000000; stroke-width: 2"/>
      </g>
     </g>
     <g id="text_9">
      <!-- $\mathdefault{10^{2}}$ -->
      <g transform="translate(36.220625 577.256944) scale(0.26 -0.26)">
       <defs>
        <path id="TimesNewRomanPS-BoldMT-32" d="M 2650 0 
L 156 0 
L 156 69 
Q 1303 1434 1548 1906 
Q 1794 2378 1794 2828 
Q 1794 3156 1591 3373 
Q 1388 3591 1094 3591 
Q 613 3591 347 3109 
L 231 3150 
Q 400 3750 744 4037 
Q 1088 4325 1538 4325 
Q 1859 4325 2125 4175 
Q 2391 4025 2541 3764 
Q 2691 3503 2691 3275 
Q 2691 2859 2459 2431 
Q 2144 1853 1081 819 
L 1997 819 
Q 2334 819 2436 847 
Q 2538 875 2603 942 
Q 2669 1009 2775 1225 
L 2888 1225 
L 2650 0 
z
" transform="scale(0.015625)"/>
       </defs>
       <use xlink:href="#TimesNewRomanPS-BoldMT-31" transform="translate(0 0.335938)"/>
       <use xlink:href="#TimesNewRomanPS-BoldMT-30" transform="translate(50 0.335938)"/>
       <use xlink:href="#TimesNewRomanPS-BoldMT-32" transform="translate(101.533984 61.695312) scale(0.7)"/>
      </g>
     </g>
    </g>
    <g id="ytick_4">
     <g id="line2d_9">
      <g>
       <use xlink:href="#m94e3429ad4" x="79.880625" y="428.918099" style="stroke: #000000; stroke-width: 2"/>
      </g>
     </g>
     <g id="text_10">
      <!-- $\mathdefault{10^{3}}$ -->
      <g transform="translate(36.220625 440.567317) scale(0.26 -0.26)">
       <defs>
        <path id="TimesNewRomanPS-BoldMT-33" d="M 947 2125 
L 947 2234 
Q 1303 2338 1440 2427 
Q 1578 2516 1678 2698 
Q 1778 2881 1778 3069 
Q 1778 3328 1589 3514 
Q 1400 3700 1119 3700 
Q 681 3700 375 3238 
L 259 3278 
Q 484 3800 836 4062 
Q 1188 4325 1619 4325 
Q 2059 4325 2345 4056 
Q 2631 3788 2631 3428 
Q 2631 3194 2498 2976 
Q 2366 2759 2081 2594 
Q 2447 2416 2639 2155 
Q 2831 1894 2831 1500 
Q 2831 838 2351 373 
Q 1872 -91 1066 -91 
Q 528 -91 281 88 
Q 103 213 103 409 
Q 103 553 206 654 
Q 309 756 444 756 
Q 547 756 638 713 
Q 688 688 992 439 
Q 1297 191 1563 191 
Q 1794 191 1959 373 
Q 2125 556 2125 838 
Q 2125 1266 1825 1627 
Q 1525 1988 947 2125 
z
" transform="scale(0.015625)"/>
       </defs>
       <use xlink:href="#TimesNewRomanPS-BoldMT-31" transform="translate(0 0.335938)"/>
       <use xlink:href="#TimesNewRomanPS-BoldMT-30" transform="translate(50 0.335938)"/>
       <use xlink:href="#TimesNewRomanPS-BoldMT-33" transform="translate(101.533984 61.695312) scale(0.7)"/>
      </g>
     </g>
    </g>
    <g id="ytick_5">
     <g id="line2d_10">
      <g>
       <use xlink:href="#m94e3429ad4" x="79.880625" y="292.228472" style="stroke: #000000; stroke-width: 2"/>
      </g>
     </g>
     <g id="text_11">
      <!-- $\mathdefault{10^{4}}$ -->
      <g transform="translate(36.220625 303.877691) scale(0.26 -0.26)">
       <defs>
        <path id="TimesNewRomanPS-BoldMT-34" d="M 159 1597 
L 2172 4325 
L 2553 4325 
L 2553 1597 
L 2941 1597 
L 2941 950 
L 2553 950 
L 2553 0 
L 1694 0 
L 1694 950 
L 159 950 
L 159 1597 
z
M 463 1597 
L 1694 1597 
L 1694 3269 
L 463 1597 
z
" transform="scale(0.015625)"/>
       </defs>
       <use xlink:href="#TimesNewRomanPS-BoldMT-31" transform="translate(0 0.335938)"/>
       <use xlink:href="#TimesNewRomanPS-BoldMT-30" transform="translate(50 0.335938)"/>
       <use xlink:href="#TimesNewRomanPS-BoldMT-34" transform="translate(101.533984 61.695312) scale(0.7)"/>
      </g>
     </g>
    </g>
    <g id="ytick_6">
     <g id="line2d_11">
      <g>
       <use xlink:href="#m94e3429ad4" x="79.880625" y="155.538845" style="stroke: #000000; stroke-width: 2"/>
      </g>
     </g>
     <g id="text_12">
      <!-- $\mathdefault{10^{5}}$ -->
      <g transform="translate(36.220625 167.058064) scale(0.26 -0.26)">
       <use xlink:href="#TimesNewRomanPS-BoldMT-31" transform="translate(0 0.2875)"/>
       <use xlink:href="#TimesNewRomanPS-BoldMT-30" transform="translate(50 0.2875)"/>
       <use xlink:href="#TimesNewRomanPS-BoldMT-35" transform="translate(101.533984 61.646875) scale(0.7)"/>
      </g>
     </g>
    </g>
    <g id="ytick_7">
     <g id="line2d_12">
      <g>
       <use xlink:href="#m94e3429ad4" x="79.880625" y="18.849219" style="stroke: #000000; stroke-width: 2"/>
      </g>
     </g>
     <g id="text_13">
      <!-- $\mathdefault{10^{6}}$ -->
      <g transform="translate(36.220625 30.498438) scale(0.26 -0.26)">
       <defs>
        <path id="TimesNewRomanPS-BoldMT-36" d="M 3006 4325 
L 3006 4238 
Q 2441 4094 2098 3867 
Q 1756 3641 1557 3317 
Q 1359 2994 1250 2516 
Q 1388 2609 1478 2638 
Q 1681 2700 1888 2700 
Q 2363 2700 2680 2354 
Q 2997 2009 2997 1413 
Q 2997 994 2825 644 
Q 2653 294 2337 103 
Q 2022 -88 1663 -88 
Q 1272 -88 940 126 
Q 609 341 423 753 
Q 238 1166 238 1650 
Q 238 2363 580 2977 
Q 922 3591 1551 3955 
Q 2181 4319 3006 4325 
z
M 1209 2263 
Q 1184 1831 1184 1631 
Q 1184 1200 1267 797 
Q 1350 394 1494 231 
Q 1597 116 1738 116 
Q 1881 116 1993 283 
Q 2106 450 2106 963 
Q 2106 1825 1897 2153 
Q 1763 2366 1534 2366 
Q 1409 2366 1209 2263 
z
" transform="scale(0.015625)"/>
       </defs>
       <use xlink:href="#TimesNewRomanPS-BoldMT-31" transform="translate(0 0.335938)"/>
       <use xlink:href="#TimesNewRomanPS-BoldMT-30" transform="translate(50 0.335938)"/>
       <use xlink:href="#TimesNewRomanPS-BoldMT-36" transform="translate(101.533984 61.695312) scale(0.7)"/>
      </g>
     </g>
    </g>
    <g id="ytick_8">
     <g id="line2d_13">
      <defs>
       <path id="m5c3a57f64f" d="M 0 0 
L -2 0 
" style="stroke: #000000; stroke-width: 0.6"/>
      </defs>
      <g>
       <use xlink:href="#m5c3a57f64f" x="79.880625" y="845.241553" style="stroke: #000000; stroke-width: 0.6"/>
      </g>
     </g>
    </g>
    <g id="ytick_9">
     <g id="line2d_14">
      <g>
       <use xlink:href="#m5c3a57f64f" x="79.880625" y="797.839301" style="stroke: #000000; stroke-width: 0.6"/>
      </g>
     </g>
    </g>
    <g id="ytick_10">
     <g id="line2d_15">
      <g>
       <use xlink:href="#m5c3a57f64f" x="79.880625" y="773.769452" style="stroke: #000000; stroke-width: 0.6"/>
      </g>
     </g>
    </g>
    <g id="ytick_11">
     <g id="line2d_16">
      <g>
       <use xlink:href="#m5c3a57f64f" x="79.880625" y="756.691623" style="stroke: #000000; stroke-width: 0.6"/>
      </g>
     </g>
    </g>
    <g id="ytick_12">
     <g id="line2d_17">
      <g>
       <use xlink:href="#m5c3a57f64f" x="79.880625" y="743.445029" style="stroke: #000000; stroke-width: 0.6"/>
      </g>
     </g>
    </g>
    <g id="ytick_13">
     <g id="line2d_18">
      <g>
       <use xlink:href="#m5c3a57f64f" x="79.880625" y="732.621774" style="stroke: #000000; stroke-width: 0.6"/>
      </g>
     </g>
    </g>
    <g id="ytick_14">
     <g id="line2d_19">
      <g>
       <use xlink:href="#m5c3a57f64f" x="79.880625" y="723.470843" style="stroke: #000000; stroke-width: 0.6"/>
      </g>
     </g>
    </g>
    <g id="ytick_15">
     <g id="line2d_20">
      <g>
       <use xlink:href="#m5c3a57f64f" x="79.880625" y="715.543945" style="stroke: #000000; stroke-width: 0.6"/>
      </g>
     </g>
    </g>
    <g id="ytick_16">
     <g id="line2d_21">
      <g>
       <use xlink:href="#m5c3a57f64f" x="79.880625" y="708.551926" style="stroke: #000000; stroke-width: 0.6"/>
      </g>
     </g>
    </g>
    <g id="ytick_17">
     <g id="line2d_22">
      <g>
       <use xlink:href="#m5c3a57f64f" x="79.880625" y="661.149674" style="stroke: #000000; stroke-width: 0.6"/>
      </g>
     </g>
    </g>
    <g id="ytick_18">
     <g id="line2d_23">
      <g>
       <use xlink:href="#m5c3a57f64f" x="79.880625" y="637.079826" style="stroke: #000000; stroke-width: 0.6"/>
      </g>
     </g>
    </g>
    <g id="ytick_19">
     <g id="line2d_24">
      <g>
       <use xlink:href="#m5c3a57f64f" x="79.880625" y="620.001996" style="stroke: #000000; stroke-width: 0.6"/>
      </g>
     </g>
    </g>
    <g id="ytick_20">
     <g id="line2d_25">
      <g>
       <use xlink:href="#m5c3a57f64f" x="79.880625" y="606.755403" style="stroke: #000000; stroke-width: 0.6"/>
      </g>
     </g>
    </g>
    <g id="ytick_21">
     <g id="line2d_26">
      <g>
       <use xlink:href="#m5c3a57f64f" x="79.880625" y="595.932148" style="stroke: #000000; stroke-width: 0.6"/>
      </g>
     </g>
    </g>
    <g id="ytick_22">
     <g id="line2d_27">
      <g>
       <use xlink:href="#m5c3a57f64f" x="79.880625" y="586.781216" style="stroke: #000000; stroke-width: 0.6"/>
      </g>
     </g>
    </g>
    <g id="ytick_23">
     <g id="line2d_28">
      <g>
       <use xlink:href="#m5c3a57f64f" x="79.880625" y="578.854319" style="stroke: #000000; stroke-width: 0.6"/>
      </g>
     </g>
    </g>
    <g id="ytick_24">
     <g id="line2d_29">
      <g>
       <use xlink:href="#m5c3a57f64f" x="79.880625" y="571.862299" style="stroke: #000000; stroke-width: 0.6"/>
      </g>
     </g>
    </g>
    <g id="ytick_25">
     <g id="line2d_30">
      <g>
       <use xlink:href="#m5c3a57f64f" x="79.880625" y="524.460047" style="stroke: #000000; stroke-width: 0.6"/>
      </g>
     </g>
    </g>
    <g id="ytick_26">
     <g id="line2d_31">
      <g>
       <use xlink:href="#m5c3a57f64f" x="79.880625" y="500.390199" style="stroke: #000000; stroke-width: 0.6"/>
      </g>
     </g>
    </g>
    <g id="ytick_27">
     <g id="line2d_32">
      <g>
       <use xlink:href="#m5c3a57f64f" x="79.880625" y="483.31237" style="stroke: #000000; stroke-width: 0.6"/>
      </g>
     </g>
    </g>
    <g id="ytick_28">
     <g id="line2d_33">
      <g>
       <use xlink:href="#m5c3a57f64f" x="79.880625" y="470.065776" style="stroke: #000000; stroke-width: 0.6"/>
      </g>
     </g>
    </g>
    <g id="ytick_29">
     <g id="line2d_34">
      <g>
       <use xlink:href="#m5c3a57f64f" x="79.880625" y="459.242521" style="stroke: #000000; stroke-width: 0.6"/>
      </g>
     </g>
    </g>
    <g id="ytick_30">
     <g id="line2d_35">
      <g>
       <use xlink:href="#m5c3a57f64f" x="79.880625" y="450.09159" style="stroke: #000000; stroke-width: 0.6"/>
      </g>
     </g>
    </g>
    <g id="ytick_31">
     <g id="line2d_36">
      <g>
       <use xlink:href="#m5c3a57f64f" x="79.880625" y="442.164692" style="stroke: #000000; stroke-width: 0.6"/>
      </g>
     </g>
    </g>
    <g id="ytick_32">
     <g id="line2d_37">
      <g>
       <use xlink:href="#m5c3a57f64f" x="79.880625" y="435.172673" style="stroke: #000000; stroke-width: 0.6"/>
      </g>
     </g>
    </g>
    <g id="ytick_33">
     <g id="line2d_38">
      <g>
       <use xlink:href="#m5c3a57f64f" x="79.880625" y="387.770421" style="stroke: #000000; stroke-width: 0.6"/>
      </g>
     </g>
    </g>
    <g id="ytick_34">
     <g id="line2d_39">
      <g>
       <use xlink:href="#m5c3a57f64f" x="79.880625" y="363.700572" style="stroke: #000000; stroke-width: 0.6"/>
      </g>
     </g>
    </g>
    <g id="ytick_35">
     <g id="line2d_40">
      <g>
       <use xlink:href="#m5c3a57f64f" x="79.880625" y="346.622743" style="stroke: #000000; stroke-width: 0.6"/>
      </g>
     </g>
    </g>
    <g id="ytick_36">
     <g id="line2d_41">
      <g>
       <use xlink:href="#m5c3a57f64f" x="79.880625" y="333.37615" style="stroke: #000000; stroke-width: 0.6"/>
      </g>
     </g>
    </g>
    <g id="ytick_37">
     <g id="line2d_42">
      <g>
       <use xlink:href="#m5c3a57f64f" x="79.880625" y="322.552895" style="stroke: #000000; stroke-width: 0.6"/>
      </g>
     </g>
    </g>
    <g id="ytick_38">
     <g id="line2d_43">
      <g>
       <use xlink:href="#m5c3a57f64f" x="79.880625" y="313.401963" style="stroke: #000000; stroke-width: 0.6"/>
      </g>
     </g>
    </g>
    <g id="ytick_39">
     <g id="line2d_44">
      <g>
       <use xlink:href="#m5c3a57f64f" x="79.880625" y="305.475065" style="stroke: #000000; stroke-width: 0.6"/>
      </g>
     </g>
    </g>
    <g id="ytick_40">
     <g id="line2d_45">
      <g>
       <use xlink:href="#m5c3a57f64f" x="79.880625" y="298.483046" style="stroke: #000000; stroke-width: 0.6"/>
      </g>
     </g>
    </g>
    <g id="ytick_41">
     <g id="line2d_46">
      <g>
       <use xlink:href="#m5c3a57f64f" x="79.880625" y="251.080794" style="stroke: #000000; stroke-width: 0.6"/>
      </g>
     </g>
    </g>
    <g id="ytick_42">
     <g id="line2d_47">
      <g>
       <use xlink:href="#m5c3a57f64f" x="79.880625" y="227.010946" style="stroke: #000000; stroke-width: 0.6"/>
      </g>
     </g>
    </g>
    <g id="ytick_43">
     <g id="line2d_48">
      <g>
       <use xlink:href="#m5c3a57f64f" x="79.880625" y="209.933117" style="stroke: #000000; stroke-width: 0.6"/>
      </g>
     </g>
    </g>
    <g id="ytick_44">
     <g id="line2d_49">
      <g>
       <use xlink:href="#m5c3a57f64f" x="79.880625" y="196.686523" style="stroke: #000000; stroke-width: 0.6"/>
      </g>
     </g>
    </g>
    <g id="ytick_45">
     <g id="line2d_50">
      <g>
       <use xlink:href="#m5c3a57f64f" x="79.880625" y="185.863268" style="stroke: #000000; stroke-width: 0.6"/>
      </g>
     </g>
    </g>
    <g id="ytick_46">
     <g id="line2d_51">
      <g>
       <use xlink:href="#m5c3a57f64f" x="79.880625" y="176.712336" style="stroke: #000000; stroke-width: 0.6"/>
      </g>
     </g>
    </g>
    <g id="ytick_47">
     <g id="line2d_52">
      <g>
       <use xlink:href="#m5c3a57f64f" x="79.880625" y="168.785439" style="stroke: #000000; stroke-width: 0.6"/>
      </g>
     </g>
    </g>
    <g id="ytick_48">
     <g id="line2d_53">
      <g>
       <use xlink:href="#m5c3a57f64f" x="79.880625" y="161.79342" style="stroke: #000000; stroke-width: 0.6"/>
      </g>
     </g>
    </g>
    <g id="ytick_49">
     <g id="line2d_54">
      <g>
       <use xlink:href="#m5c3a57f64f" x="79.880625" y="114.391168" style="stroke: #000000; stroke-width: 0.6"/>
      </g>
     </g>
    </g>
    <g id="ytick_50">
     <g id="line2d_55">
      <g>
       <use xlink:href="#m5c3a57f64f" x="79.880625" y="90.321319" style="stroke: #000000; stroke-width: 0.6"/>
      </g>
     </g>
    </g>
    <g id="ytick_51">
     <g id="line2d_56">
      <g>
       <use xlink:href="#m5c3a57f64f" x="79.880625" y="73.24349" style="stroke: #000000; stroke-width: 0.6"/>
      </g>
     </g>
    </g>
    <g id="ytick_52">
     <g id="line2d_57">
      <g>
       <use xlink:href="#m5c3a57f64f" x="79.880625" y="59.996896" style="stroke: #000000; stroke-width: 0.6"/>
      </g>
     </g>
    </g>
    <g id="ytick_53">
     <g id="line2d_58">
      <g>
       <use xlink:href="#m5c3a57f64f" x="79.880625" y="49.173641" style="stroke: #000000; stroke-width: 0.6"/>
      </g>
     </g>
    </g>
    <g id="ytick_54">
     <g id="line2d_59">
      <g>
       <use xlink:href="#m5c3a57f64f" x="79.880625" y="40.02271" style="stroke: #000000; stroke-width: 0.6"/>
      </g>
     </g>
    </g>
    <g id="ytick_55">
     <g id="line2d_60">
      <g>
       <use xlink:href="#m5c3a57f64f" x="79.880625" y="32.095812" style="stroke: #000000; stroke-width: 0.6"/>
      </g>
     </g>
    </g>
    <g id="ytick_56">
     <g id="line2d_61">
      <g>
       <use xlink:href="#m5c3a57f64f" x="79.880625" y="25.103793" style="stroke: #000000; stroke-width: 0.6"/>
      </g>
     </g>
    </g>
    <g id="text_14">
     <!-- Objective Function Value -->
     <g transform="translate(26.17875 583.613021) rotate(-90) scale(0.28 -0.28)">
      <defs>
       <path id="TimesNewRomanPS-BoldMT-4f" d="M 2472 4297 
Q 3484 4334 4117 3706 
Q 4750 3078 4750 2134 
Q 4750 1328 4278 716 
Q 3653 -97 2513 -97 
Q 1369 -97 744 678 
Q 250 1291 250 2131 
Q 250 3075 892 3704 
Q 1534 4334 2472 4297 
z
M 2509 4097 
Q 1928 4097 1625 3503 
Q 1378 3016 1378 2103 
Q 1378 1019 1759 500 
Q 2025 138 2503 138 
Q 2825 138 3041 294 
Q 3316 494 3469 933 
Q 3622 1372 3622 2078 
Q 3622 2919 3465 3336 
Q 3309 3753 3067 3925 
Q 2825 4097 2509 4097 
z
" transform="scale(0.015625)"/>
       <path id="TimesNewRomanPS-BoldMT-62" d="M 1347 4238 
L 1347 2628 
Q 1716 3009 2153 3009 
Q 2453 3009 2718 2832 
Q 2984 2656 3134 2331 
Q 3284 2006 3284 1581 
Q 3284 1103 3093 712 
Q 2903 322 2584 117 
Q 2266 -88 1856 -88 
Q 1619 -88 1434 -12 
Q 1250 63 1072 231 
L 588 -84 
L 481 -84 
L 481 3631 
Q 481 3884 459 3944 
Q 428 4031 361 4073 
Q 294 4116 134 4122 
L 134 4238 
L 1347 4238 
z
M 1347 2350 
L 1347 1050 
Q 1347 653 1366 544 
Q 1397 359 1515 245 
Q 1634 131 1819 131 
Q 1978 131 2092 222 
Q 2206 313 2282 581 
Q 2359 850 2359 1550 
Q 2359 2222 2191 2472 
Q 2069 2653 1863 2653 
Q 1594 2653 1347 2350 
z
" transform="scale(0.015625)"/>
       <path id="TimesNewRomanPS-BoldMT-6a" d="M 1113 4334 
Q 1313 4334 1452 4195 
Q 1591 4056 1591 3859 
Q 1591 3659 1450 3518 
Q 1309 3378 1113 3378 
Q 916 3378 775 3518 
Q 634 3659 634 3859 
Q 634 4056 773 4195 
Q 913 4334 1113 4334 
z
M 1550 2922 
L 1550 -103 
Q 1550 -528 1497 -731 
Q 1419 -1025 1186 -1203 
Q 953 -1381 572 -1381 
Q 188 -1381 5 -1225 
Q -178 -1069 -178 -847 
Q -178 -709 -82 -607 
Q 13 -506 141 -506 
Q 259 -506 328 -576 
Q 397 -647 397 -788 
Q 397 -825 394 -875 
Q 388 -941 388 -966 
Q 388 -1075 438 -1128 
Q 488 -1181 566 -1181 
Q 638 -1181 689 -1118 
Q 741 -1056 741 -941 
Q 741 -878 722 -688 
Q 691 -341 688 -269 
L 678 472 
L 678 2278 
L 681 2441 
Q 681 2638 614 2711 
Q 547 2784 331 2806 
L 331 2922 
L 1550 2922 
z
" transform="scale(0.015625)"/>
       <path id="TimesNewRomanPS-BoldMT-63" d="M 2600 753 
L 2697 678 
Q 2491 291 2183 101 
Q 1875 -88 1528 -88 
Q 944 -88 594 353 
Q 244 794 244 1413 
Q 244 2009 563 2463 
Q 947 3009 1622 3009 
Q 2075 3009 2342 2781 
Q 2609 2553 2609 2272 
Q 2609 2094 2501 1987 
Q 2394 1881 2219 1881 
Q 2034 1881 1914 2003 
Q 1794 2125 1766 2438 
Q 1747 2634 1675 2713 
Q 1603 2791 1506 2791 
Q 1356 2791 1250 2631 
Q 1088 2391 1088 1894 
Q 1088 1481 1219 1104 
Q 1350 728 1578 544 
Q 1750 409 1984 409 
Q 2138 409 2275 481 
Q 2413 553 2600 753 
z
" transform="scale(0.015625)"/>
       <path id="TimesNewRomanPS-BoldMT-76" d="M 1534 -88 
L 550 2178 
Q 372 2588 272 2697 
Q 200 2778 59 2806 
L 59 2922 
L 1613 2922 
L 1613 2806 
Q 1466 2806 1413 2753 
Q 1338 2684 1338 2591 
Q 1338 2475 1475 2156 
L 1956 1059 
L 2341 2006 
Q 2506 2413 2506 2581 
Q 2506 2678 2436 2739 
Q 2366 2800 2188 2806 
L 2188 2922 
L 3144 2922 
L 3144 2806 
Q 3006 2788 2918 2703 
Q 2831 2619 2656 2206 
L 1681 -88 
L 1534 -88 
z
" transform="scale(0.015625)"/>
       <path id="TimesNewRomanPS-BoldMT-20" transform="scale(0.015625)"/>
       <path id="TimesNewRomanPS-BoldMT-46" d="M 1759 3994 
L 1759 2253 
L 1881 2253 
Q 2163 2253 2341 2337 
Q 2519 2422 2642 2622 
Q 2766 2822 2803 3163 
L 2913 3163 
L 2913 1034 
L 2803 1034 
Q 2744 1638 2480 1830 
Q 2216 2022 1881 2022 
L 1759 2022 
L 1759 725 
Q 1759 400 1795 319 
Q 1831 238 1936 177 
Q 2041 116 2219 116 
L 2359 116 
L 2359 0 
L 144 0 
L 144 116 
L 284 116 
Q 469 116 581 181 
Q 663 225 706 331 
Q 741 406 741 725 
L 741 3513 
Q 741 3838 706 3919 
Q 672 4000 567 4061 
Q 463 4122 284 4122 
L 144 4122 
L 144 4238 
L 3719 4238 
L 3719 3022 
L 3591 3022 
Q 3547 3450 3367 3656 
Q 3188 3863 2847 3947 
Q 2659 3994 2153 3994 
L 1759 3994 
z
" transform="scale(0.015625)"/>
       <path id="TimesNewRomanPS-BoldMT-75" d="M 3038 2922 
L 3038 634 
Q 3038 300 3100 217 
Q 3163 134 3353 113 
L 3353 0 
L 2163 0 
L 2163 391 
Q 1953 141 1743 26 
Q 1534 -88 1275 -88 
Q 1028 -88 836 64 
Q 644 216 578 419 
Q 513 622 513 1128 
L 513 2288 
Q 513 2619 452 2700 
Q 391 2781 197 2806 
L 197 2922 
L 1388 2922 
L 1388 925 
Q 1388 613 1417 522 
Q 1447 431 1511 384 
Q 1575 338 1659 338 
Q 1772 338 1863 397 
Q 1988 478 2163 725 
L 2163 2288 
Q 2163 2619 2102 2700 
Q 2041 2781 1847 2806 
L 1847 2922 
L 3038 2922 
z
" transform="scale(0.015625)"/>
       <path id="TimesNewRomanPS-BoldMT-56" d="M 4556 4238 
L 4556 4122 
Q 4325 4084 4144 3875 
Q 4013 3719 3753 3141 
L 2294 -97 
L 2191 -97 
L 738 3272 
Q 475 3881 386 3987 
Q 297 4094 50 4122 
L 50 4238 
L 2081 4238 
L 2081 4122 
L 2013 4122 
Q 1738 4122 1638 4053 
Q 1566 4006 1566 3916 
Q 1566 3859 1591 3782 
Q 1616 3706 1759 3372 
L 2663 1263 
L 3500 3141 
Q 3650 3481 3684 3597 
Q 3719 3713 3719 3794 
Q 3719 3888 3669 3959 
Q 3619 4031 3522 4069 
Q 3388 4122 3166 4122 
L 3166 4238 
L 4556 4238 
z
" transform="scale(0.015625)"/>
       <path id="TimesNewRomanPS-BoldMT-6c" d="M 1359 4238 
L 1359 606 
Q 1359 297 1431 211 
Q 1503 125 1713 113 
L 1713 0 
L 134 0 
L 134 113 
Q 328 119 422 225 
Q 484 297 484 606 
L 484 3631 
Q 484 3938 412 4023 
Q 341 4109 134 4122 
L 134 4238 
L 1359 4238 
z
" transform="scale(0.015625)"/>
      </defs>
      <use xlink:href="#TimesNewRomanPS-BoldMT-4f"/>
      <use xlink:href="#TimesNewRomanPS-BoldMT-62" transform="translate(77.783203 0)"/>
      <use xlink:href="#TimesNewRomanPS-BoldMT-6a" transform="translate(133.398438 0)"/>
      <use xlink:href="#TimesNewRomanPS-BoldMT-65" transform="translate(166.699219 0)"/>
      <use xlink:href="#TimesNewRomanPS-BoldMT-63" transform="translate(211.083984 0)"/>
      <use xlink:href="#TimesNewRomanPS-BoldMT-74" transform="translate(255.46875 0)"/>
      <use xlink:href="#TimesNewRomanPS-BoldMT-69" transform="translate(288.769531 0)"/>
      <use xlink:href="#TimesNewRomanPS-BoldMT-76" transform="translate(316.552734 0)"/>
      <use xlink:href="#TimesNewRomanPS-BoldMT-65" transform="translate(366.552734 0)"/>
      <use xlink:href="#TimesNewRomanPS-BoldMT-20" transform="translate(410.9375 0)"/>
      <use xlink:href="#TimesNewRomanPS-BoldMT-46" transform="translate(435.9375 0)"/>
      <use xlink:href="#TimesNewRomanPS-BoldMT-75" transform="translate(497.021484 0)"/>
      <use xlink:href="#TimesNewRomanPS-BoldMT-6e" transform="translate(552.636719 0)"/>
      <use xlink:href="#TimesNewRomanPS-BoldMT-63" transform="translate(608.251953 0)"/>
      <use xlink:href="#TimesNewRomanPS-BoldMT-74" transform="translate(652.636719 0)"/>
      <use xlink:href="#TimesNewRomanPS-BoldMT-69" transform="translate(685.9375 0)"/>
      <use xlink:href="#TimesNewRomanPS-BoldMT-6f" transform="translate(713.720703 0)"/>
      <use xlink:href="#TimesNewRomanPS-BoldMT-6e" transform="translate(763.720703 0)"/>
      <use xlink:href="#TimesNewRomanPS-BoldMT-20" transform="translate(819.335938 0)"/>
      <use xlink:href="#TimesNewRomanPS-BoldMT-56" transform="translate(842.585938 0)"/>
      <use xlink:href="#TimesNewRomanPS-BoldMT-61" transform="translate(905.677734 0)"/>
      <use xlink:href="#TimesNewRomanPS-BoldMT-6c" transform="translate(955.677734 0)"/>
      <use xlink:href="#TimesNewRomanPS-BoldMT-75" transform="translate(983.460938 0)"/>
      <use xlink:href="#TimesNewRomanPS-BoldMT-65" transform="translate(1039.076172 0)"/>
     </g>
    </g>
   </g>
   <g id="line2d_62">
    <path d="M 117.92608 100.082097 
L 157.973926 234.368795 
L 198.021773 339.841833 
L 238.06962 427.551591 
L 278.117467 427.551591 
L 318.165314 427.551591 
L 358.213161 471.771702 
L 398.261008 515.855728 
L 438.308855 515.855728 
L 478.356702 524.798229 
L 518.404548 524.798229 
L 558.452395 570.107609 
L 598.500242 621.04346 
L 638.548089 626.632489 
L 678.595936 626.632489 
L 718.643783 642.838607 
L 758.69163 662.265734 
L 798.739477 664.920182 
L 838.787324 664.920182 
L 878.83517 664.920182 
" clip-path="url(#p90578f76ce)" style="fill: none; stroke: #db443c; stroke-width: 4; stroke-linecap: square"/>
   </g>
   <g id="line2d_63">
    <path d="M 117.92608 211.25642 
L 157.973926 255.698316 
L 198.021773 299.375153 
L 238.06962 409.714492 
L 278.117467 426.777119 
L 318.165314 431.817174 
L 358.213161 444.851244 
L 398.261008 444.851244 
L 438.308855 444.851244 
L 478.356702 444.851244 
L 518.404548 469.119049 
L 558.452395 470.975992 
L 598.500242 470.975992 
L 638.548089 472.247792 
L 678.595936 494.065868 
L 718.643783 494.065868 
L 758.69163 494.065868 
L 798.739477 494.065868 
L 838.787324 494.065868 
L 878.83517 494.065868 
" clip-path="url(#p90578f76ce)" style="fill: none; stroke-dasharray: 14.8,6.4; stroke-dashoffset: 0; stroke: #f57b56; stroke-width: 4"/>
   </g>
   <g id="line2d_64">
    <path d="M 117.92608 211.25642 
L 157.973926 246.702004 
L 198.021773 246.791507 
L 238.06962 308.273641 
L 278.117467 320.612791 
L 318.165314 405.782996 
L 358.213161 451.002065 
L 398.261008 451.002065 
L 438.308855 464.663137 
L 478.356702 464.663137 
L 518.404548 482.979567 
L 558.452395 579.928368 
L 598.500242 579.928368 
L 638.548089 579.928368 
L 678.595936 579.928368 
L 718.643783 580.003721 
L 758.69163 587.169369 
L 798.739477 632.759744 
L 838.787324 632.759744 
L 878.83517 632.759744 
" clip-path="url(#p90578f76ce)" style="fill: none; stroke-dasharray: 25.6,6.4,4,6.4; stroke-dashoffset: 0; stroke: #fdb670; stroke-width: 4"/>
   </g>
   <g id="line2d_65">
    <path d="M 117.92608 97.232117 
L 157.973926 210.723934 
L 198.021773 336.498017 
L 238.06962 466.512224 
L 278.117467 466.512224 
L 318.165314 466.512224 
L 358.213161 487.845351 
L 398.261008 572.733402 
L 438.308855 572.733402 
L 478.356702 572.733402 
L 518.404548 572.733402 
L 558.452395 572.733402 
L 598.500242 576.190672 
L 638.548089 596.291937 
L 678.595936 596.291937 
L 718.643783 604.625473 
L 758.69163 703.044414 
L 798.739477 703.044414 
L 838.787324 703.044414 
L 878.83517 703.044414 
" clip-path="url(#p90578f76ce)" style="fill: none; stroke-dasharray: 4,6.6; stroke-dashoffset: 0; stroke: #82b5d5; stroke-width: 4"/>
   </g>
   <g id="line2d_66">
    <path d="M 117.92608 103.644473 
L 157.973926 158.542429 
L 198.021773 233.671627 
L 238.06962 233.671627 
L 278.117467 235.097998 
L 318.165314 238.973101 
L 358.213161 290.299251 
L 398.261008 356.224246 
L 438.308855 422.495722 
L 478.356702 576.820296 
L 518.404548 587.059779 
L 558.452395 643.73732 
L 598.500242 656.593712 
L 638.548089 663.861258 
L 678.595936 668.547588 
L 718.643783 668.614719 
L 758.69163 670.313771 
L 798.739477 670.339571 
L 838.787324 670.642829 
L 878.83517 670.642829 
" clip-path="url(#p90578f76ce)" style="fill: none; stroke: #4db6ac; stroke-width: 4; stroke-linecap: square"/>
   </g>
   <g id="line2d_67">
    <path d="M 117.92608 192.256735 
L 157.973926 288.550761 
L 198.021773 301.572408 
L 238.06962 301.572408 
L 278.117467 303.874873 
L 318.165314 311.362244 
L 358.213161 353.338247 
L 398.261008 353.551383 
L 438.308855 390.387955 
L 478.356702 430.10617 
L 518.404548 453.153058 
L 558.452395 569.891392 
L 598.500242 613.481169 
L 638.548089 648.958618 
L 678.595936 650.816719 
L 718.643783 654.174183 
L 758.69163 655.222909 
L 798.739477 678.098433 
L 838.787324 678.46701 
L 878.83517 678.46701 
" clip-path="url(#p90578f76ce)" style="fill: none; stroke-dasharray: 14.8,6.4; stroke-dashoffset: 0; stroke: #5682bb; stroke-width: 4"/>
   </g>
   <g id="line2d_68">
    <path d="M 117.92608 125.499959 
L 157.973926 282.170538 
L 198.021773 383.379436 
L 238.06962 383.379436 
L 278.117467 411.040228 
L 318.165314 411.040228 
L 358.213161 434.417398 
L 398.261008 434.417398 
L 438.308855 434.417398 
L 478.356702 500.684285 
L 518.404548 500.684285 
L 558.452395 510.294163 
L 598.500242 510.294163 
L 638.548089 510.294163 
L 678.595936 518.420449 
L 718.643783 519.220235 
L 758.69163 521.101212 
L 798.739477 521.101212 
L 838.787324 521.101212 
L 878.83517 521.101212 
" clip-path="url(#p90578f76ce)" style="fill: none; stroke-dasharray: 25.6,6.4,4,6.4; stroke-dashoffset: 0; stroke: #454a9f; stroke-width: 4"/>
   </g>
   <g id="line2d_69">
    <path d="M 117.92608 165.232281 
L 157.973926 389.477046 
L 198.021773 421.24908 
L 238.06962 421.24908 
L 278.117467 421.24908 
L 318.165314 421.24908 
L 358.213161 463.903124 
L 398.261008 511.231079 
L 438.308855 511.656971 
L 478.356702 515.752328 
L 518.404548 603.058766 
L 558.452395 673.710001 
L 598.500242 673.710001 
L 638.548089 680.945229 
L 678.595936 680.945229 
L 718.643783 717.659341 
L 758.69163 717.659341 
L 798.739477 717.659341 
L 838.787324 717.659341 
L 878.83517 717.659341 
" clip-path="url(#p90578f76ce)" style="fill: none; stroke-dasharray: 4,6.6; stroke-dashoffset: 0; stroke: #8e44ad; stroke-width: 4"/>
   </g>
   <g id="patch_3">
    <path d="M 79.880625 847.731771 
L 79.880625 16.131771 
" style="fill: none; stroke: #000000; stroke-width: 2; stroke-linejoin: miter; stroke-linecap: square"/>
   </g>
   <g id="patch_4">
    <path d="M 916.880625 847.731771 
L 916.880625 16.131771 
" style="fill: none; stroke: #000000; stroke-width: 2; stroke-linejoin: miter; stroke-linecap: square"/>
   </g>
   <g id="patch_5">
    <path d="M 79.880625 847.731771 
L 916.880625 847.731771 
" style="fill: none; stroke: #000000; stroke-width: 2; stroke-linejoin: miter; stroke-linecap: square"/>
   </g>
   <g id="patch_6">
    <path d="M 79.880625 16.131771 
L 916.880625 16.131771 
" style="fill: none; stroke: #000000; stroke-width: 2; stroke-linejoin: miter; stroke-linecap: square"/>
   </g>
   <g id="text_15">
    <!-- (a) -->
    <g transform="translate(105.824375 808.096021) scale(0.28 -0.28)">
     <defs>
      <path id="TimesNewRomanPS-BoldMT-28" d="M 2056 4334 
L 2056 4191 
Q 1731 3978 1578 3775 
Q 1366 3494 1247 3053 
Q 1097 2506 1097 1525 
Q 1097 600 1233 87 
Q 1369 -425 1603 -741 
Q 1766 -959 2056 -1125 
L 2056 -1281 
Q 1303 -1028 779 -248 
Q 256 531 256 1544 
Q 256 2544 778 3314 
Q 1300 4084 2056 4334 
z
" transform="scale(0.015625)"/>
      <path id="TimesNewRomanPS-BoldMT-29" d="M 78 -1281 
L 78 -1138 
Q 403 -922 556 -719 
Q 766 -438 888 0 
Q 1038 550 1038 1531 
Q 1038 2456 902 2967 
Q 766 3478 531 3794 
Q 369 4013 78 4178 
L 78 4334 
Q 831 4081 1354 3301 
Q 1878 2522 1878 1509 
Q 1878 513 1354 -257 
Q 831 -1028 78 -1281 
z
" transform="scale(0.015625)"/>
     </defs>
     <use xlink:href="#TimesNewRomanPS-BoldMT-28"/>
     <use xlink:href="#TimesNewRomanPS-BoldMT-61" transform="translate(33.300781 0)"/>
     <use xlink:href="#TimesNewRomanPS-BoldMT-29" transform="translate(83.300781 0)"/>
    </g>
   </g>
   <g id="legend_1">
    <g id="patch_7">
     <path d="M 592.576875 306.936771 
L 900.080625 306.936771 
Q 904.880625 306.936771 904.880625 302.136771 
L 904.880625 32.931771 
Q 904.880625 28.131771 900.080625 28.131771 
L 592.576875 28.131771 
Q 587.776875 28.131771 587.776875 32.931771 
L 587.776875 302.136771 
Q 587.776875 306.936771 592.576875 306.936771 
z
" style="fill: #ffffff; opacity: 0.8; stroke: #cccccc; stroke-width: 2; stroke-linejoin: miter"/>
    </g>
    <g id="line2d_70">
     <path d="M 597.376875 46.131771 
L 621.376875 46.131771 
L 645.376875 46.131771 
" style="fill: none; stroke: #db443c; stroke-width: 4; stroke-linecap: square"/>
    </g>
    <g id="text_16">
     <!-- SRBF -->
     <g transform="translate(664.576875 54.531771) scale(0.24 -0.24)">
      <defs>
       <path id="TimesNewRomanPS-BoldMT-53" d="M 3006 4334 
L 3041 2922 
L 2913 2922 
Q 2822 3453 2467 3776 
Q 2113 4100 1700 4100 
Q 1381 4100 1195 3929 
Q 1009 3759 1009 3538 
Q 1009 3397 1075 3288 
Q 1166 3141 1366 2997 
Q 1513 2894 2044 2631 
Q 2788 2266 3047 1941 
Q 3303 1616 3303 1197 
Q 3303 666 2889 283 
Q 2475 -100 1838 -100 
Q 1638 -100 1459 -59 
Q 1281 -19 1013 94 
Q 863 156 766 156 
Q 684 156 593 93 
Q 503 31 447 -97 
L 331 -97 
L 331 1503 
L 447 1503 
Q 584 828 976 473 
Q 1369 119 1822 119 
Q 2172 119 2380 309 
Q 2588 500 2588 753 
Q 2588 903 2508 1043 
Q 2428 1184 2265 1311 
Q 2103 1438 1691 1641 
Q 1113 1925 859 2125 
Q 606 2325 470 2572 
Q 334 2819 334 3116 
Q 334 3622 706 3978 
Q 1078 4334 1644 4334 
Q 1850 4334 2044 4284 
Q 2191 4247 2402 4145 
Q 2613 4044 2697 4044 
Q 2778 4044 2825 4094 
Q 2872 4144 2913 4334 
L 3006 4334 
z
" transform="scale(0.015625)"/>
       <path id="TimesNewRomanPS-BoldMT-52" d="M 1700 1931 
L 1700 744 
Q 1700 400 1742 311 
Q 1784 222 1890 169 
Q 1997 116 2288 116 
L 2288 0 
L 119 0 
L 119 116 
Q 413 116 517 170 
Q 622 225 664 312 
Q 706 400 706 744 
L 706 3494 
Q 706 3838 664 3927 
Q 622 4016 515 4069 
Q 409 4122 119 4122 
L 119 4238 
L 2088 4238 
Q 2856 4238 3212 4131 
Q 3569 4025 3794 3739 
Q 4019 3453 4019 3069 
Q 4019 2600 3681 2294 
Q 3466 2100 3078 2003 
L 4097 569 
Q 4297 291 4381 222 
Q 4509 125 4678 116 
L 4678 0 
L 3344 0 
L 1978 1931 
L 1700 1931 
z
M 1700 4009 
L 1700 2153 
L 1878 2153 
Q 2313 2153 2528 2233 
Q 2744 2313 2867 2520 
Q 2991 2728 2991 3063 
Q 2991 3547 2764 3778 
Q 2538 4009 2034 4009 
L 1700 4009 
z
" transform="scale(0.015625)"/>
       <path id="TimesNewRomanPS-BoldMT-42" d="M 2847 2247 
Q 3450 2106 3694 1906 
Q 4044 1622 4044 1169 
Q 4044 691 3659 378 
Q 3188 0 2288 0 
L 134 0 
L 134 116 
Q 428 116 533 170 
Q 638 225 680 312 
Q 722 400 722 744 
L 722 3494 
Q 722 3838 680 3927 
Q 638 4016 531 4069 
Q 425 4122 134 4122 
L 134 4238 
L 2166 4238 
Q 2894 4238 3197 4108 
Q 3500 3978 3675 3720 
Q 3850 3463 3850 3172 
Q 3850 2866 3628 2627 
Q 3406 2388 2847 2247 
z
M 1709 2331 
Q 2153 2331 2364 2431 
Q 2575 2531 2687 2712 
Q 2800 2894 2800 3175 
Q 2800 3456 2689 3636 
Q 2578 3816 2372 3909 
Q 2166 4003 1709 4000 
L 1709 2331 
z
M 1709 2088 
L 1709 728 
L 1706 572 
Q 1706 403 1792 317 
Q 1878 231 2047 231 
Q 2297 231 2508 342 
Q 2719 453 2831 664 
Q 2944 875 2944 1134 
Q 2944 1431 2806 1667 
Q 2669 1903 2428 1997 
Q 2188 2091 1709 2088 
z
" transform="scale(0.015625)"/>
      </defs>
      <use xlink:href="#TimesNewRomanPS-BoldMT-53"/>
      <use xlink:href="#TimesNewRomanPS-BoldMT-52" transform="translate(55.615234 0)"/>
      <use xlink:href="#TimesNewRomanPS-BoldMT-42" transform="translate(127.832031 0)"/>
      <use xlink:href="#TimesNewRomanPS-BoldMT-46" transform="translate(194.53125 0)"/>
     </g>
    </g>
    <g id="line2d_71">
     <path d="M 597.376875 80.065521 
L 621.376875 80.065521 
L 645.376875 80.065521 
" style="fill: none; stroke-dasharray: 14.8,6.4; stroke-dashoffset: 0; stroke: #f57b56; stroke-width: 4"/>
    </g>
    <g id="text_17">
     <!-- NDCT_standard_PSO -->
     <g transform="translate(664.576875 88.465521) scale(0.24 -0.24)">
      <defs>
       <path id="TimesNewRomanPS-BoldMT-4e" d="M 1594 4238 
L 3684 1609 
L 3684 3431 
Q 3684 3813 3575 3947 
Q 3425 4128 3072 4122 
L 3072 4238 
L 4472 4238 
L 4472 4122 
Q 4203 4088 4111 4033 
Q 4019 3978 3967 3854 
Q 3916 3731 3916 3431 
L 3916 -97 
L 3809 -97 
L 944 3431 
L 944 738 
Q 944 372 1111 244 
Q 1278 116 1494 116 
L 1594 116 
L 1594 0 
L 91 0 
L 91 116 
Q 441 119 578 259 
Q 716 400 716 738 
L 716 3728 
L 625 3841 
Q 491 4009 387 4062 
Q 284 4116 91 4122 
L 91 4238 
L 1594 4238 
z
" transform="scale(0.015625)"/>
       <path id="TimesNewRomanPS-BoldMT-44" d="M 84 0 
L 84 116 
L 225 116 
Q 409 116 507 173 
Q 606 231 653 331 
Q 681 397 681 725 
L 681 3513 
Q 681 3838 647 3919 
Q 613 4000 508 4061 
Q 403 4122 225 4122 
L 84 4122 
L 84 4238 
L 1981 4238 
Q 2741 4238 3203 4031 
Q 3769 3778 4061 3265 
Q 4353 2753 4353 2106 
Q 4353 1659 4209 1282 
Q 4066 906 3837 661 
Q 3609 416 3311 267 
Q 3013 119 2581 38 
Q 2391 0 1981 0 
L 84 0 
z
M 1700 3997 
L 1700 691 
Q 1700 428 1725 368 
Q 1750 309 1809 278 
Q 1894 231 2053 231 
Q 2575 231 2850 588 
Q 3225 1069 3225 2081 
Q 3225 2897 2969 3384 
Q 2766 3766 2447 3903 
Q 2222 4000 1700 3997 
z
" transform="scale(0.015625)"/>
       <path id="TimesNewRomanPS-BoldMT-43" d="M 4272 4334 
L 4272 2866 
L 4150 2866 
Q 4013 3441 3638 3747 
Q 3263 4053 2788 4053 
Q 2391 4053 2059 3825 
Q 1728 3597 1575 3228 
Q 1378 2756 1378 2178 
Q 1378 1609 1522 1142 
Q 1666 675 1972 436 
Q 2278 197 2766 197 
Q 3166 197 3498 372 
Q 3831 547 4200 975 
L 4200 609 
Q 3844 238 3458 70 
Q 3072 -97 2556 -97 
Q 1878 -97 1351 175 
Q 825 447 539 956 
Q 253 1466 253 2041 
Q 253 2647 570 3190 
Q 888 3734 1427 4034 
Q 1966 4334 2572 4334 
Q 3019 4334 3516 4141 
Q 3803 4028 3881 4028 
Q 3981 4028 4054 4101 
Q 4128 4175 4150 4334 
L 4272 4334 
z
" transform="scale(0.015625)"/>
       <path id="TimesNewRomanPS-BoldMT-54" d="M 4038 4238 
L 4038 3091 
L 3925 3091 
Q 3825 3488 3703 3661 
Q 3581 3834 3369 3938 
Q 3250 3994 2953 3994 
L 2638 3994 
L 2638 725 
Q 2638 400 2673 319 
Q 2709 238 2814 177 
Q 2919 116 3100 116 
L 3241 116 
L 3241 0 
L 1022 0 
L 1022 116 
L 1163 116 
Q 1347 116 1459 181 
Q 1541 225 1588 331 
Q 1622 406 1622 725 
L 1622 3994 
L 1316 3994 
Q 888 3994 694 3813 
Q 422 3559 350 3091 
L 231 3091 
L 231 4238 
L 4038 4238 
z
" transform="scale(0.015625)"/>
       <path id="TimesNewRomanPS-BoldMT-5f" d="M -59 -972 
L 3259 -972 
L 3259 -1381 
L -59 -1381 
L -59 -972 
z
" transform="scale(0.015625)"/>
       <path id="TimesNewRomanPS-BoldMT-64" d="M 3056 4238 
L 3056 875 
Q 3056 534 3075 472 
Q 3100 369 3170 319 
Q 3241 269 3416 256 
L 3416 153 
L 2181 -88 
L 2181 375 
Q 1959 106 1786 9 
Q 1613 -88 1394 -88 
Q 834 -88 509 413 
Q 247 819 247 1409 
Q 247 1881 409 2254 
Q 572 2628 855 2818 
Q 1138 3009 1463 3009 
Q 1672 3009 1834 2928 
Q 1997 2847 2181 2644 
L 2181 3525 
Q 2181 3859 2153 3928 
Q 2116 4019 2041 4062 
Q 1966 4106 1759 4106 
L 1759 4238 
L 3056 4238 
z
M 2181 2256 
Q 1950 2700 1616 2700 
Q 1500 2700 1425 2638 
Q 1309 2541 1236 2297 
Q 1163 2053 1163 1550 
Q 1163 997 1244 731 
Q 1325 466 1466 347 
Q 1538 288 1663 288 
Q 1938 288 2181 719 
L 2181 2256 
z
" transform="scale(0.015625)"/>
       <path id="TimesNewRomanPS-BoldMT-50" d="M 1728 1919 
L 1728 744 
Q 1728 400 1770 311 
Q 1813 222 1920 169 
Q 2028 116 2316 116 
L 2316 0 
L 163 0 
L 163 116 
Q 456 116 561 170 
Q 666 225 708 312 
Q 750 400 750 744 
L 750 3494 
Q 750 3838 708 3927 
Q 666 4016 559 4069 
Q 453 4122 163 4122 
L 163 4238 
L 2009 4238 
Q 2922 4238 3319 3913 
Q 3716 3588 3716 3100 
Q 3716 2688 3459 2394 
Q 3203 2100 2753 1994 
Q 2450 1919 1728 1919 
z
M 1728 3994 
L 1728 2163 
Q 1831 2156 1884 2156 
Q 2266 2156 2472 2382 
Q 2678 2609 2678 3084 
Q 2678 3556 2472 3775 
Q 2266 3994 1856 3994 
L 1728 3994 
z
" transform="scale(0.015625)"/>
      </defs>
      <use xlink:href="#TimesNewRomanPS-BoldMT-4e"/>
      <use xlink:href="#TimesNewRomanPS-BoldMT-44" transform="translate(72.216797 0)"/>
      <use xlink:href="#TimesNewRomanPS-BoldMT-43" transform="translate(144.433594 0)"/>
      <use xlink:href="#TimesNewRomanPS-BoldMT-54" transform="translate(216.650391 0)"/>
      <use xlink:href="#TimesNewRomanPS-BoldMT-5f" transform="translate(283.349609 0)"/>
      <use xlink:href="#TimesNewRomanPS-BoldMT-73" transform="translate(333.349609 0)"/>
      <use xlink:href="#TimesNewRomanPS-BoldMT-74" transform="translate(372.265625 0)"/>
      <use xlink:href="#TimesNewRomanPS-BoldMT-61" transform="translate(405.566406 0)"/>
      <use xlink:href="#TimesNewRomanPS-BoldMT-6e" transform="translate(455.566406 0)"/>
      <use xlink:href="#TimesNewRomanPS-BoldMT-64" transform="translate(511.181641 0)"/>
      <use xlink:href="#TimesNewRomanPS-BoldMT-61" transform="translate(566.796875 0)"/>
      <use xlink:href="#TimesNewRomanPS-BoldMT-72" transform="translate(616.796875 0)"/>
      <use xlink:href="#TimesNewRomanPS-BoldMT-64" transform="translate(661.181641 0)"/>
      <use xlink:href="#TimesNewRomanPS-BoldMT-5f" transform="translate(716.796875 0)"/>
      <use xlink:href="#TimesNewRomanPS-BoldMT-50" transform="translate(766.796875 0)"/>
      <use xlink:href="#TimesNewRomanPS-BoldMT-53" transform="translate(827.880859 0)"/>
      <use xlink:href="#TimesNewRomanPS-BoldMT-4f" transform="translate(883.496094 0)"/>
     </g>
    </g>
    <g id="line2d_72">
     <path d="M 597.376875 114.044271 
L 621.376875 114.044271 
L 645.376875 114.044271 
" style="fill: none; stroke-dasharray: 25.6,6.4,4,6.4; stroke-dashoffset: 0; stroke: #fdb670; stroke-width: 4"/>
    </g>
    <g id="text_18">
     <!-- NDCT_modified_PSO -->
     <g transform="translate(664.576875 122.444271) scale(0.24 -0.24)">
      <defs>
       <path id="TimesNewRomanPS-BoldMT-6d" d="M 1428 2922 
L 1428 2538 
Q 1669 2800 1873 2904 
Q 2078 3009 2322 3009 
Q 2603 3009 2793 2878 
Q 2984 2747 3088 2478 
Q 3338 2759 3567 2884 
Q 3797 3009 4047 3009 
Q 4350 3009 4529 2870 
Q 4709 2731 4779 2517 
Q 4850 2303 4850 1834 
L 4850 638 
Q 4850 300 4911 219 
Q 4972 138 5166 113 
L 5166 0 
L 3656 0 
L 3656 113 
Q 3834 128 3919 250 
Q 3975 334 3975 638 
L 3975 1894 
Q 3975 2284 3944 2390 
Q 3913 2497 3845 2548 
Q 3778 2600 3688 2600 
Q 3553 2600 3415 2501 
Q 3278 2403 3138 2206 
L 3138 638 
Q 3138 322 3191 241 
Q 3263 125 3466 113 
L 3466 0 
L 1953 0 
L 1953 113 
Q 2075 119 2145 173 
Q 2216 228 2239 304 
Q 2263 381 2263 638 
L 2263 1894 
Q 2263 2291 2231 2391 
Q 2200 2491 2126 2547 
Q 2053 2603 1969 2603 
Q 1844 2603 1741 2538 
Q 1594 2441 1428 2206 
L 1428 638 
Q 1428 328 1489 229 
Q 1550 131 1744 113 
L 1744 0 
L 238 0 
L 238 113 
Q 422 131 500 231 
Q 553 300 553 638 
L 553 2288 
Q 553 2619 492 2700 
Q 431 2781 238 2806 
L 238 2922 
L 1428 2922 
z
" transform="scale(0.015625)"/>
       <path id="TimesNewRomanPS-BoldMT-66" d="M 1497 2616 
L 1497 588 
Q 1497 294 1559 219 
Q 1659 103 1928 113 
L 1928 0 
L 206 0 
L 206 113 
Q 403 116 486 158 
Q 569 200 600 275 
Q 631 350 631 588 
L 631 2616 
L 206 2616 
L 206 2922 
L 631 2922 
L 631 3138 
L 628 3284 
Q 628 3734 958 4034 
Q 1288 4334 1850 4334 
Q 2234 4334 2420 4190 
Q 2606 4047 2606 3872 
Q 2606 3731 2490 3628 
Q 2375 3525 2184 3525 
Q 2022 3525 1926 3609 
Q 1831 3694 1831 3797 
Q 1831 3825 1850 3913 
Q 1863 3966 1863 4013 
Q 1863 4078 1825 4109 
Q 1775 4156 1703 4156 
Q 1613 4156 1552 4081 
Q 1491 4006 1491 3841 
L 1497 3294 
L 1497 2922 
L 1928 2922 
L 1928 2616 
L 1497 2616 
z
" transform="scale(0.015625)"/>
      </defs>
      <use xlink:href="#TimesNewRomanPS-BoldMT-4e"/>
      <use xlink:href="#TimesNewRomanPS-BoldMT-44" transform="translate(72.216797 0)"/>
      <use xlink:href="#TimesNewRomanPS-BoldMT-43" transform="translate(144.433594 0)"/>
      <use xlink:href="#TimesNewRomanPS-BoldMT-54" transform="translate(216.650391 0)"/>
      <use xlink:href="#TimesNewRomanPS-BoldMT-5f" transform="translate(283.349609 0)"/>
      <use xlink:href="#TimesNewRomanPS-BoldMT-6d" transform="translate(333.349609 0)"/>
      <use xlink:href="#TimesNewRomanPS-BoldMT-6f" transform="translate(416.650391 0)"/>
      <use xlink:href="#TimesNewRomanPS-BoldMT-64" transform="translate(466.650391 0)"/>
      <use xlink:href="#TimesNewRomanPS-BoldMT-69" transform="translate(522.265625 0)"/>
      <use xlink:href="#TimesNewRomanPS-BoldMT-66" transform="translate(550.048828 0)"/>
      <use xlink:href="#TimesNewRomanPS-BoldMT-69" transform="translate(583.349609 0)"/>
      <use xlink:href="#TimesNewRomanPS-BoldMT-65" transform="translate(611.132812 0)"/>
      <use xlink:href="#TimesNewRomanPS-BoldMT-64" transform="translate(655.517578 0)"/>
      <use xlink:href="#TimesNewRomanPS-BoldMT-5f" transform="translate(711.132812 0)"/>
      <use xlink:href="#TimesNewRomanPS-BoldMT-50" transform="translate(761.132812 0)"/>
      <use xlink:href="#TimesNewRomanPS-BoldMT-53" transform="translate(822.216797 0)"/>
      <use xlink:href="#TimesNewRomanPS-BoldMT-4f" transform="translate(877.832031 0)"/>
     </g>
    </g>
    <g id="line2d_73">
     <path d="M 597.376875 148.023021 
L 621.376875 148.023021 
L 645.376875 148.023021 
" style="fill: none; stroke-dasharray: 4,6.6; stroke-dashoffset: 0; stroke: #82b5d5; stroke-width: 4"/>
    </g>
    <g id="text_19">
     <!-- DYCORS -->
     <g transform="translate(664.576875 156.423021) scale(0.24 -0.24)">
      <defs>
       <path id="TimesNewRomanPS-BoldMT-59" d="M 4550 4238 
L 4550 4122 
Q 4341 4094 4228 4000 
Q 4072 3869 3734 3284 
L 2816 1750 
L 2816 725 
Q 2816 397 2850 317 
Q 2884 238 2986 177 
Q 3088 116 3256 116 
L 3494 116 
L 3494 0 
L 1116 0 
L 1116 116 
L 1338 116 
Q 1525 116 1634 181 
Q 1716 225 1763 331 
Q 1797 406 1797 725 
L 1797 1575 
L 800 3391 
Q 503 3928 381 4023 
Q 259 4119 56 4122 
L 56 4238 
L 2088 4238 
L 2088 4122 
L 1997 4122 
Q 1813 4122 1739 4069 
Q 1666 4016 1666 3956 
Q 1666 3844 1916 3391 
L 2681 1988 
L 3444 3266 
Q 3728 3734 3728 3888 
Q 3728 3972 3647 4028 
Q 3541 4106 3256 4122 
L 3256 4238 
L 4550 4238 
z
" transform="scale(0.015625)"/>
      </defs>
      <use xlink:href="#TimesNewRomanPS-BoldMT-44"/>
      <use xlink:href="#TimesNewRomanPS-BoldMT-59" transform="translate(72.216797 0)"/>
      <use xlink:href="#TimesNewRomanPS-BoldMT-43" transform="translate(144.433594 0)"/>
      <use xlink:href="#TimesNewRomanPS-BoldMT-4f" transform="translate(216.650391 0)"/>
      <use xlink:href="#TimesNewRomanPS-BoldMT-52" transform="translate(294.433594 0)"/>
      <use xlink:href="#TimesNewRomanPS-BoldMT-53" transform="translate(366.650391 0)"/>
     </g>
    </g>
    <g id="line2d_74">
     <path d="M 597.376875 181.956771 
L 621.376875 181.956771 
L 645.376875 181.956771 
" style="fill: none; stroke: #4db6ac; stroke-width: 4; stroke-linecap: square"/>
    </g>
    <g id="text_20">
     <!-- COBYLA -->
     <g transform="translate(664.576875 190.356771) scale(0.24 -0.24)">
      <defs>
       <path id="TimesNewRomanPS-BoldMT-4c" d="M 4041 1488 
L 3881 0 
L 119 0 
L 119 116 
L 259 116 
Q 444 116 556 181 
Q 638 225 681 331 
Q 716 406 716 725 
L 716 3513 
Q 716 3838 681 3919 
Q 647 4000 542 4061 
Q 438 4122 259 4122 
L 119 4122 
L 119 4238 
L 2378 4238 
L 2378 4122 
L 2194 4122 
Q 2009 4122 1897 4056 
Q 1816 4013 1769 3906 
Q 1734 3831 1734 3513 
L 1734 813 
Q 1734 488 1771 398 
Q 1809 309 1919 266 
Q 1997 238 2297 238 
L 2650 238 
Q 2988 238 3213 356 
Q 3438 475 3602 731 
Q 3766 988 3913 1488 
L 4041 1488 
z
" transform="scale(0.015625)"/>
       <path id="TimesNewRomanPS-BoldMT-41" d="M 2663 1206 
L 1166 1206 
L 988 794 
Q 900 588 900 453 
Q 900 275 1044 191 
Q 1128 141 1459 116 
L 1459 0 
L 50 0 
L 50 116 
Q 278 150 425 304 
Q 572 459 788 944 
L 2303 4325 
L 2363 4325 
L 3891 850 
Q 4109 356 4250 228 
Q 4356 131 4550 116 
L 4550 0 
L 2500 0 
L 2500 116 
L 2584 116 
Q 2831 116 2931 184 
Q 3000 234 3000 328 
Q 3000 384 2981 444 
Q 2975 472 2888 678 
L 2663 1206 
z
M 2556 1438 
L 1925 2897 
L 1275 1438 
L 2556 1438 
z
" transform="scale(0.015625)"/>
      </defs>
      <use xlink:href="#TimesNewRomanPS-BoldMT-43"/>
      <use xlink:href="#TimesNewRomanPS-BoldMT-4f" transform="translate(72.216797 0)"/>
      <use xlink:href="#TimesNewRomanPS-BoldMT-42" transform="translate(150 0)"/>
      <use xlink:href="#TimesNewRomanPS-BoldMT-59" transform="translate(216.699219 0)"/>
      <use xlink:href="#TimesNewRomanPS-BoldMT-4c" transform="translate(288.916016 0)"/>
      <use xlink:href="#TimesNewRomanPS-BoldMT-41" transform="translate(355.615234 0)"/>
     </g>
    </g>
    <g id="line2d_75">
     <path d="M 597.376875 215.890521 
L 621.376875 215.890521 
L 645.376875 215.890521 
" style="fill: none; stroke-dasharray: 14.8,6.4; stroke-dashoffset: 0; stroke: #5682bb; stroke-width: 4"/>
    </g>
    <g id="text_21">
     <!-- COBYQA -->
     <g transform="translate(664.576875 224.290521) scale(0.24 -0.24)">
      <defs>
       <path id="TimesNewRomanPS-BoldMT-51" d="M 3059 -38 
Q 3203 -453 3506 -662 
Q 3809 -872 4266 -872 
Q 4391 -872 4531 -847 
L 4531 -1038 
Q 4059 -1156 3688 -1156 
Q 3106 -1156 2648 -872 
Q 2191 -588 1959 -38 
Q 1191 125 720 715 
Q 250 1306 250 2125 
Q 250 3075 887 3704 
Q 1525 4334 2506 4334 
Q 3484 4334 4118 3703 
Q 4753 3072 4753 2125 
Q 4753 1300 4256 690 
Q 3759 81 3059 -38 
z
M 2503 4097 
Q 1941 4097 1634 3513 
Q 1378 3022 1378 2116 
Q 1378 1028 1763 503 
Q 2031 138 2503 138 
Q 2978 138 3244 497 
Q 3628 1013 3628 2047 
Q 3628 3066 3388 3522 
Q 3088 4097 2503 4097 
z
" transform="scale(0.015625)"/>
      </defs>
      <use xlink:href="#TimesNewRomanPS-BoldMT-43"/>
      <use xlink:href="#TimesNewRomanPS-BoldMT-4f" transform="translate(72.216797 0)"/>
      <use xlink:href="#TimesNewRomanPS-BoldMT-42" transform="translate(150 0)"/>
      <use xlink:href="#TimesNewRomanPS-BoldMT-59" transform="translate(216.699219 0)"/>
      <use xlink:href="#TimesNewRomanPS-BoldMT-51" transform="translate(288.916016 0)"/>
      <use xlink:href="#TimesNewRomanPS-BoldMT-41" transform="translate(366.699219 0)"/>
     </g>
    </g>
    <g id="line2d_76">
     <path d="M 597.376875 249.824271 
L 621.376875 249.824271 
L 645.376875 249.824271 
" style="fill: none; stroke-dasharray: 25.6,6.4,4,6.4; stroke-dashoffset: 0; stroke: #454a9f; stroke-width: 4"/>
    </g>
    <g id="text_22">
     <!-- opt_CUATRO -->
     <g transform="translate(664.576875 258.224271) scale(0.24 -0.24)">
      <defs>
       <path id="TimesNewRomanPS-BoldMT-70" d="M 1347 297 
L 1347 -791 
Q 1347 -1016 1383 -1097 
Q 1419 -1178 1494 -1215 
Q 1569 -1253 1788 -1253 
L 1788 -1369 
L 122 -1369 
L 122 -1253 
Q 316 -1247 409 -1144 
Q 472 -1072 472 -772 
L 472 2313 
Q 472 2622 400 2708 
Q 328 2794 122 2806 
L 122 2922 
L 1347 2922 
L 1347 2538 
Q 1500 2763 1659 2863 
Q 1888 3009 2156 3009 
Q 2478 3009 2742 2806 
Q 3006 2603 3143 2245 
Q 3281 1888 3281 1475 
Q 3281 1031 3139 664 
Q 2997 297 2726 104 
Q 2456 -88 2125 -88 
Q 1884 -88 1675 19 
Q 1519 100 1347 297 
z
M 1347 613 
Q 1616 231 1922 231 
Q 2091 231 2200 409 
Q 2363 672 2363 1409 
Q 2363 2166 2184 2444 
Q 2066 2628 1866 2628 
Q 1550 2628 1347 2172 
L 1347 613 
z
" transform="scale(0.015625)"/>
       <path id="TimesNewRomanPS-BoldMT-55" d="M 150 4238 
L 2338 4238 
L 2338 4122 
L 2228 4122 
Q 1981 4122 1889 4070 
Q 1797 4019 1758 3928 
Q 1719 3838 1719 3475 
L 1719 1400 
Q 1719 831 1805 647 
Q 1891 463 2087 341 
Q 2284 219 2584 219 
Q 2928 219 3170 373 
Q 3413 528 3533 800 
Q 3653 1072 3653 1747 
L 3653 3475 
Q 3653 3759 3593 3881 
Q 3534 4003 3444 4050 
Q 3303 4122 3047 4122 
L 3047 4238 
L 4513 4238 
L 4513 4122 
L 4425 4122 
Q 4247 4122 4128 4050 
Q 4009 3978 3956 3834 
Q 3916 3734 3916 3475 
L 3916 1866 
Q 3916 1119 3817 787 
Q 3719 456 3337 178 
Q 2956 -100 2297 -100 
Q 1747 -100 1447 47 
Q 1038 247 869 559 
Q 700 872 700 1400 
L 700 3475 
Q 700 3841 659 3930 
Q 619 4019 519 4072 
Q 419 4125 150 4122 
L 150 4238 
z
" transform="scale(0.015625)"/>
      </defs>
      <use xlink:href="#TimesNewRomanPS-BoldMT-6f"/>
      <use xlink:href="#TimesNewRomanPS-BoldMT-70" transform="translate(50 0)"/>
      <use xlink:href="#TimesNewRomanPS-BoldMT-74" transform="translate(105.615234 0)"/>
      <use xlink:href="#TimesNewRomanPS-BoldMT-5f" transform="translate(138.916016 0)"/>
      <use xlink:href="#TimesNewRomanPS-BoldMT-43" transform="translate(188.916016 0)"/>
      <use xlink:href="#TimesNewRomanPS-BoldMT-55" transform="translate(261.132812 0)"/>
      <use xlink:href="#TimesNewRomanPS-BoldMT-41" transform="translate(333.349609 0)"/>
      <use xlink:href="#TimesNewRomanPS-BoldMT-54" transform="translate(398.191406 0)"/>
      <use xlink:href="#TimesNewRomanPS-BoldMT-52" transform="translate(464.890625 0)"/>
      <use xlink:href="#TimesNewRomanPS-BoldMT-4f" transform="translate(537.107422 0)"/>
     </g>
    </g>
    <g id="line2d_77">
     <path d="M 597.376875 283.803021 
L 621.376875 283.803021 
L 645.376875 283.803021 
" style="fill: none; stroke-dasharray: 4,6.6; stroke-dashoffset: 0; stroke: #8e44ad; stroke-width: 4"/>
    </g>
    <g id="text_23">
     <!-- ENTMOOT -->
     <g transform="translate(664.576875 292.203021) scale(0.24 -0.24)">
      <defs>
       <path id="TimesNewRomanPS-BoldMT-45" d="M 1744 3994 
L 1744 2269 
L 1828 2269 
Q 2231 2269 2412 2522 
Q 2594 2775 2644 3269 
L 2763 3269 
L 2763 1050 
L 2644 1050 
Q 2606 1413 2486 1644 
Q 2366 1875 2206 1954 
Q 2047 2034 1744 2034 
L 1744 841 
Q 1744 491 1773 412 
Q 1803 334 1884 284 
Q 1966 234 2147 234 
L 2400 234 
Q 2994 234 3351 509 
Q 3709 784 3866 1347 
L 3981 1347 
L 3791 0 
L 128 0 
L 128 116 
L 269 116 
Q 453 116 566 181 
Q 647 225 691 331 
Q 725 406 725 725 
L 725 3513 
Q 725 3800 709 3866 
Q 678 3975 594 4034 
Q 475 4122 269 4122 
L 128 4122 
L 128 4238 
L 3675 4238 
L 3675 2984 
L 3556 2984 
Q 3466 3444 3302 3644 
Q 3138 3844 2838 3938 
Q 2663 3994 2181 3994 
L 1744 3994 
z
" transform="scale(0.015625)"/>
       <path id="TimesNewRomanPS-BoldMT-4d" d="M 3050 1444 
L 4200 4238 
L 5925 4238 
L 5925 4122 
L 5788 4122 
Q 5600 4122 5488 4056 
Q 5409 4013 5363 3909 
Q 5328 3834 5328 3519 
L 5328 725 
Q 5328 400 5362 319 
Q 5397 238 5503 177 
Q 5609 116 5788 116 
L 5925 116 
L 5925 0 
L 3713 0 
L 3713 116 
L 3850 116 
Q 4038 116 4150 181 
Q 4228 225 4275 331 
Q 4309 406 4309 725 
L 4309 3866 
L 2684 0 
L 2609 0 
L 959 3838 
L 959 853 
Q 959 541 975 469 
Q 1016 313 1152 214 
Q 1288 116 1578 116 
L 1578 0 
L 128 0 
L 128 116 
L 172 116 
Q 313 113 434 161 
Q 556 209 618 290 
Q 681 372 716 519 
Q 722 553 722 838 
L 722 3519 
Q 722 3841 687 3920 
Q 653 4000 547 4061 
Q 441 4122 263 4122 
L 128 4122 
L 128 4238 
L 1859 4238 
L 3050 1444 
z
" transform="scale(0.015625)"/>
      </defs>
      <use xlink:href="#TimesNewRomanPS-BoldMT-45"/>
      <use xlink:href="#TimesNewRomanPS-BoldMT-4e" transform="translate(66.699219 0)"/>
      <use xlink:href="#TimesNewRomanPS-BoldMT-54" transform="translate(138.916016 0)"/>
      <use xlink:href="#TimesNewRomanPS-BoldMT-4d" transform="translate(205.615234 0)"/>
      <use xlink:href="#TimesNewRomanPS-BoldMT-4f" transform="translate(300 0)"/>
      <use xlink:href="#TimesNewRomanPS-BoldMT-4f" transform="translate(377.783203 0)"/>
      <use xlink:href="#TimesNewRomanPS-BoldMT-54" transform="translate(455.566406 0)"/>
     </g>
    </g>
   </g>
  </g>
 </g>
 <defs>
  <clipPath id="p90578f76ce">
   <rect x="79.880625" y="16.131771" width="837" height="831.6"/>
  </clipPath>
 </defs>
</svg>
