<?xml version="1.0" encoding="utf-8" standalone="no"?>
<!DOCTYPE svg PUBLIC "-//W3C//DTD SVG 1.1//EN"
  "http://www.w3.org/Graphics/SVG/1.1/DTD/svg11.dtd">
<svg xmlns:xlink="http://www.w3.org/1999/xlink" width="930.980625pt" height="900.809063pt" viewBox="0 0 930.980625 900.809063" xmlns="http://www.w3.org/2000/svg" version="1.1">
 <metadata>
  <rdf:RDF xmlns:dc="http://purl.org/dc/elements/1.1/" xmlns:cc="http://creativecommons.org/ns#" xmlns:rdf="http://www.w3.org/1999/02/22-rdf-syntax-ns#">
   <cc:Work>
    <dc:type rdf:resource="http://purl.org/dc/dcmitype/StillImage"/>
    <dc:date>2025-09-28T20:39:31.073344</dc:date>
    <dc:format>image/svg+xml</dc:format>
    <dc:creator>
     <cc:Agent>
      <dc:title>Matplotlib v3.10.5, https://matplotlib.org/</dc:title>
     </cc:Agent>
    </dc:creator>
   </cc:Work>
  </rdf:RDF>
 </metadata>
 <defs>
  <style type="text/css">*{stroke-linejoin: round; stroke-linecap: butt}</style>
 </defs>
 <g id="figure_1">
  <g id="patch_1">
   <path d="M 0 900.809063 
L 930.980625 900.809063 
L 930.980625 0 
L 0 0 
z
" style="fill: #ffffff"/>
  </g>
  <g id="axes_1">
   <g id="patch_2">
    <path d="M 86.780625 838.8 
L 923.780625 838.8 
L 923.780625 7.2 
L 86.780625 7.2 
z
" style="fill: #ffffff"/>
   </g>
   <g id="FillBetweenPolyCollection_1">
    <defs>
     <path id="ma705d721bc" d="M 124.82608 -706.260518 
L 124.82608 -777.910872 
L 164.873926 -704.172508 
L 204.921773 -673.436318 
L 244.96962 -673.436318 
L 285.017467 -673.436318 
L 325.065314 -673.436318 
L 365.113161 -626.797489 
L 405.161008 -605.748093 
L 445.208855 -599.965171 
L 485.256702 -595.010174 
L 525.304548 -595.010174 
L 565.352395 -577.522953 
L 605.400242 -568.429922 
L 645.448089 -568.429922 
L 685.495936 -568.429922 
L 725.543783 -563.269103 
L 765.59163 -521.301696 
L 805.639477 -517.044998 
L 845.687324 -517.044998 
L 885.73517 -517.044998 
L 885.73517 -233.929975 
L 885.73517 -233.929975 
L 845.687324 -233.929975 
L 805.639477 -233.929975 
L 765.59163 -362.372749 
L 725.543783 -362.372749 
L 685.495936 -362.372749 
L 645.448089 -362.372749 
L 605.400242 -362.372749 
L 565.352395 -418.883852 
L 525.304548 -418.883852 
L 485.256702 -418.883852 
L 445.208855 -517.704804 
L 405.161008 -528.286845 
L 365.113161 -596.00408 
L 325.065314 -600.249546 
L 285.017467 -600.249546 
L 244.96962 -600.249546 
L 204.921773 -600.249546 
L 164.873926 -600.249546 
L 124.82608 -706.260518 
z
" style="stroke: #db443c; stroke-opacity: 0.2"/>
    </defs>
    <g clip-path="url(#pc823a8f0cc)">
     <use xlink:href="#ma705d721bc" x="0" y="900.809063" style="fill: #db443c; fill-opacity: 0.2; stroke: #db443c; stroke-opacity: 0.2"/>
    </g>
   </g>
   <g id="FillBetweenPolyCollection_2">
    <defs>
     <path id="m999fb2e6ac" d="M 124.82608 -736.377193 
L 124.82608 -850.920127 
L 164.873926 -724.339868 
L 204.921773 -691.141562 
L 244.96962 -673.58645 
L 285.017467 -673.58645 
L 325.065314 -673.58645 
L 365.113161 -636.057577 
L 405.161008 -636.057577 
L 445.208855 -636.057577 
L 485.256702 -636.057577 
L 525.304548 -620.980583 
L 565.352395 -620.980583 
L 605.400242 -620.980583 
L 645.448089 -620.980583 
L 685.495936 -620.980583 
L 725.543783 -620.980583 
L 765.59163 -620.980583 
L 805.639477 -620.980583 
L 845.687324 -591.357107 
L 885.73517 -591.357107 
L 885.73517 -476.665587 
L 885.73517 -476.665587 
L 845.687324 -476.665587 
L 805.639477 -476.665587 
L 765.59163 -476.665587 
L 725.543783 -476.665587 
L 685.495936 -476.665587 
L 645.448089 -476.665587 
L 605.400242 -476.665587 
L 565.352395 -476.665587 
L 525.304548 -476.665587 
L 485.256702 -476.665587 
L 445.208855 -476.665587 
L 405.161008 -476.665587 
L 365.113161 -476.665587 
L 325.065314 -562.874495 
L 285.017467 -562.874495 
L 244.96962 -562.874495 
L 204.921773 -627.412528 
L 164.873926 -662.116936 
L 124.82608 -736.377193 
z
" style="stroke: #f57b56; stroke-opacity: 0.2"/>
    </defs>
    <g clip-path="url(#pc823a8f0cc)">
     <use xlink:href="#m999fb2e6ac" x="0" y="900.809063" style="fill: #f57b56; fill-opacity: 0.2; stroke: #f57b56; stroke-opacity: 0.2"/>
    </g>
   </g>
   <g id="FillBetweenPolyCollection_3">
    <defs>
     <path id="m020451c50d" d="M 124.82608 -736.377193 
L 124.82608 -850.920127 
L 164.873926 -826.996743 
L 204.921773 -672.442629 
L 244.96962 -672.442629 
L 285.017467 -672.442629 
L 325.065314 -636.835091 
L 365.113161 -636.835091 
L 405.161008 -636.835091 
L 445.208855 -593.922142 
L 485.256702 -593.922142 
L 525.304548 -593.922142 
L 565.352395 -593.922142 
L 605.400242 -496.405717 
L 645.448089 -496.405717 
L 685.495936 -496.405717 
L 725.543783 -496.405717 
L 765.59163 -496.405717 
L 805.639477 -496.405717 
L 845.687324 -496.405717 
L 885.73517 -496.405717 
L 885.73517 -280.256279 
L 885.73517 -280.256279 
L 845.687324 -280.256279 
L 805.639477 -280.256279 
L 765.59163 -280.256279 
L 725.543783 -280.256279 
L 685.495936 -280.256279 
L 645.448089 -280.256279 
L 605.400242 -280.256279 
L 565.352395 -280.256279 
L 525.304548 -280.256279 
L 485.256702 -280.256279 
L 445.208855 -280.256279 
L 405.161008 -294.290432 
L 365.113161 -294.290432 
L 325.065314 -407.997351 
L 285.017467 -407.997351 
L 244.96962 -407.997351 
L 204.921773 -407.997351 
L 164.873926 -601.90313 
L 124.82608 -736.377193 
z
" style="stroke: #fdb670; stroke-opacity: 0.2"/>
    </defs>
    <g clip-path="url(#pc823a8f0cc)">
     <use xlink:href="#m020451c50d" x="0" y="900.809063" style="fill: #fdb670; fill-opacity: 0.2; stroke: #fdb670; stroke-opacity: 0.2"/>
    </g>
   </g>
   <g id="FillBetweenPolyCollection_4">
    <defs>
     <path id="md109c72368" d="M 124.82608 -706.481634 
L 124.82608 -776.663624 
L 164.873926 -702.164221 
L 204.921773 -644.853582 
L 244.96962 -644.853582 
L 285.017467 -644.853582 
L 325.065314 -644.853582 
L 365.113161 -644.853582 
L 405.161008 -640.485999 
L 445.208855 -595.235368 
L 485.256702 -590.605824 
L 525.304548 -590.605824 
L 565.352395 -589.272413 
L 605.400242 -566.671352 
L 645.448089 -510.234215 
L 685.495936 -510.234215 
L 725.543783 -507.741681 
L 765.59163 -507.741681 
L 805.639477 -488.538442 
L 845.687324 -469.734835 
L 885.73517 -469.734835 
L 885.73517 -195.178733 
L 885.73517 -195.178733 
L 845.687324 -195.178733 
L 805.639477 -195.178733 
L 765.59163 -356.25692 
L 725.543783 -356.25692 
L 685.495936 -356.25692 
L 645.448089 -356.25692 
L 605.400242 -449.701355 
L 565.352395 -511.473425 
L 525.304548 -522.114959 
L 485.256702 -522.114959 
L 445.208855 -579.602902 
L 405.161008 -579.602902 
L 365.113161 -579.602902 
L 325.065314 -579.602902 
L 285.017467 -579.602902 
L 244.96962 -579.602902 
L 204.921773 -579.602902 
L 164.873926 -579.602902 
L 124.82608 -706.481634 
z
" style="stroke: #82b5d5; stroke-opacity: 0.2"/>
    </defs>
    <g clip-path="url(#pc823a8f0cc)">
     <use xlink:href="#md109c72368" x="0" y="900.809063" style="fill: #82b5d5; fill-opacity: 0.2; stroke: #82b5d5; stroke-opacity: 0.2"/>
    </g>
   </g>
   <g id="FillBetweenPolyCollection_5">
    <defs>
     <path id="m1192a22b77" d="M 124.82608 -692.279631 
L 124.82608 -840.511333 
L 164.873926 -748.151335 
L 204.921773 -713.950979 
L 244.96962 -713.950979 
L 285.017467 -713.950979 
L 325.065314 -707.583055 
L 365.113161 -707.583055 
L 405.161008 -685.069175 
L 445.208855 -670.740084 
L 485.256702 -669.7202 
L 525.304548 -669.7202 
L 565.352395 -669.7202 
L 605.400242 -669.7202 
L 645.448089 -668.729485 
L 685.495936 -668.729485 
L 725.543783 -668.729485 
L 765.59163 -668.729485 
L 805.639477 -668.729485 
L 845.687324 -668.729485 
L 885.73517 -668.729485 
L 885.73517 -555.923776 
L 885.73517 -555.923776 
L 845.687324 -555.923776 
L 805.639477 -555.956897 
L 765.59163 -556.071072 
L 725.543783 -556.071072 
L 685.495936 -556.071072 
L 645.448089 -557.455689 
L 605.400242 -557.455689 
L 565.352395 -557.774133 
L 525.304548 -557.774133 
L 485.256702 -564.444079 
L 445.208855 -589.56598 
L 405.161008 -592.06687 
L 365.113161 -592.06687 
L 325.065314 -617.701731 
L 285.017467 -642.117511 
L 244.96962 -642.117511 
L 204.921773 -642.117511 
L 164.873926 -648.832827 
L 124.82608 -692.279631 
z
" style="stroke: #4db6ac; stroke-opacity: 0.2"/>
    </defs>
    <g clip-path="url(#pc823a8f0cc)">
     <use xlink:href="#m1192a22b77" x="0" y="900.809063" style="fill: #4db6ac; fill-opacity: 0.2; stroke: #4db6ac; stroke-opacity: 0.2"/>
    </g>
   </g>
   <g id="FillBetweenPolyCollection_6">
    <defs>
     <path id="md2ebc67c42" d="M 124.82608 -633.527407 
L 124.82608 -829.813019 
L 164.873926 -754.84285 
L 204.921773 -683.937167 
L 244.96962 -683.937167 
L 285.017467 -654.541024 
L 325.065314 -652.204708 
L 365.113161 -652.204708 
L 405.161008 -652.204708 
L 445.208855 -645.453557 
L 485.256702 -645.453557 
L 525.304548 -644.470781 
L 565.352395 -643.099339 
L 605.400242 -641.520951 
L 645.448089 -639.815812 
L 685.495936 -637.40764 
L 725.543783 -635.151751 
L 765.59163 -634.437641 
L 805.639477 -633.662364 
L 845.687324 -633.655081 
L 885.73517 -633.655081 
L 885.73517 -99.809063 
L 885.73517 -99.809063 
L 845.687324 -99.809063 
L 805.639477 -112.520119 
L 765.59163 -140.7288 
L 725.543783 -201.523243 
L 685.495936 -264.600749 
L 645.448089 -309.265668 
L 605.400242 -388.47661 
L 565.352395 -432.838054 
L 525.304548 -453.605406 
L 485.256702 -470.230045 
L 445.208855 -470.230045 
L 405.161008 -470.230045 
L 365.113161 -470.230045 
L 325.065314 -568.253916 
L 285.017467 -568.253916 
L 244.96962 -617.53105 
L 204.921773 -617.53105 
L 164.873926 -629.696473 
L 124.82608 -633.527407 
z
" style="stroke: #5682bb; stroke-opacity: 0.2"/>
    </defs>
    <g clip-path="url(#pc823a8f0cc)">
     <use xlink:href="#md2ebc67c42" x="0" y="900.809063" style="fill: #5682bb; fill-opacity: 0.2; stroke: #5682bb; stroke-opacity: 0.2"/>
    </g>
   </g>
   <g id="FillBetweenPolyCollection_7">
    <defs>
     <path id="m0ce0057f30" d="M 124.82608 -780.068018 
L 124.82608 -846.362463 
L 164.873926 -831.197956 
L 204.921773 -713.93723 
L 244.96962 -713.93723 
L 285.017467 -713.93723 
L 325.065314 -708.374682 
L 365.113161 -660.12328 
L 405.161008 -660.12328 
L 445.208855 -658.19759 
L 485.256702 -655.033133 
L 525.304548 -645.374767 
L 565.352395 -631.702704 
L 605.400242 -628.659519 
L 645.448089 -628.659519 
L 685.495936 -628.659519 
L 725.543783 -627.102557 
L 765.59163 -624.411491 
L 805.639477 -624.411491 
L 845.687324 -624.411491 
L 885.73517 -624.411491 
L 885.73517 -329.631357 
L 885.73517 -329.631357 
L 845.687324 -329.631357 
L 805.639477 -329.631357 
L 765.59163 -329.631357 
L 725.543783 -371.980503 
L 685.495936 -419.433112 
L 645.448089 -434.215785 
L 605.400242 -434.215785 
L 565.352395 -486.159644 
L 525.304548 -512.967591 
L 485.256702 -512.967591 
L 445.208855 -512.967591 
L 405.161008 -527.969342 
L 365.113161 -527.969342 
L 325.065314 -527.969342 
L 285.017467 -527.969342 
L 244.96962 -527.969342 
L 204.921773 -527.969342 
L 164.873926 -674.963365 
L 124.82608 -780.068018 
z
" style="stroke: #454a9f; stroke-opacity: 0.2"/>
    </defs>
    <g clip-path="url(#pc823a8f0cc)">
     <use xlink:href="#m0ce0057f30" x="0" y="900.809063" style="fill: #454a9f; fill-opacity: 0.2; stroke: #454a9f; stroke-opacity: 0.2"/>
    </g>
   </g>
   <g id="FillBetweenPolyCollection_8">
    <defs>
     <path id="m8830f5c940" d="M 124.82608 -701.242356 
L 124.82608 -855.809063 
L 164.873926 -758.722673 
L 204.921773 -668.125543 
L 244.96962 -668.125543 
L 285.017467 -646.433315 
L 325.065314 -646.433315 
L 365.113161 -646.433315 
L 405.161008 -646.433315 
L 445.208855 -579.87503 
L 485.256702 -579.87503 
L 525.304548 -562.505881 
L 565.352395 -562.505881 
L 605.400242 -562.505881 
L 645.448089 -562.505881 
L 685.495936 -559.345449 
L 725.543783 -549.113823 
L 765.59163 -549.113823 
L 805.639477 -549.113823 
L 845.687324 -549.113823 
L 885.73517 -549.113823 
L 885.73517 -455.995098 
L 885.73517 -455.995098 
L 845.687324 -455.995098 
L 805.639477 -455.995098 
L 765.59163 -455.995098 
L 725.543783 -455.995098 
L 685.495936 -455.995098 
L 645.448089 -455.995098 
L 605.400242 -455.995098 
L 565.352395 -455.995098 
L 525.304548 -455.995098 
L 485.256702 -490.325342 
L 445.208855 -490.325342 
L 405.161008 -534.092598 
L 365.113161 -534.092598 
L 325.065314 -534.092598 
L 285.017467 -534.092598 
L 244.96962 -534.092598 
L 204.921773 -534.092598 
L 164.873926 -681.318931 
L 124.82608 -701.242356 
z
" style="stroke: #8e44ad; stroke-opacity: 0.2"/>
    </defs>
    <g clip-path="url(#pc823a8f0cc)">
     <use xlink:href="#m8830f5c940" x="0" y="900.809063" style="fill: #8e44ad; fill-opacity: 0.2; stroke: #8e44ad; stroke-opacity: 0.2"/>
    </g>
   </g>
   <g id="matplotlib.axis_1">
    <g id="xtick_1">
     <g id="line2d_1">
      <defs>
       <path id="ma445e9c616" d="M 0 0 
L 0 -6 
" style="stroke: #000000; stroke-width: 2"/>
      </defs>
      <g>
       <use xlink:href="#ma445e9c616" x="124.82608" y="838.8" style="stroke: #000000; stroke-width: 2"/>
      </g>
     </g>
     <g id="text_1">
      <!-- 0 -->
      <g transform="translate(118.32608 859.516875) scale(0.26 -0.26)">
       <defs>
        <path id="TimesNewRomanPS-BoldMT-30" d="M 2966 2119 
Q 2966 1484 2788 934 
Q 2681 597 2501 381 
Q 2322 166 2094 39 
Q 1866 -88 1597 -88 
Q 1291 -88 1044 68 
Q 797 225 606 516 
Q 469 728 366 1081 
Q 231 1559 231 2069 
Q 231 2759 425 3338 
Q 584 3816 909 4070 
Q 1234 4325 1597 4325 
Q 1966 4325 2286 4073 
Q 2606 3822 2756 3397 
Q 2966 2813 2966 2119 
z
M 2003 2125 
Q 2003 3238 1991 3422 
Q 1959 3856 1841 4009 
Q 1763 4109 1588 4109 
Q 1453 4109 1375 4034 
Q 1259 3925 1218 3648 
Q 1178 3372 1178 1719 
Q 1178 819 1241 513 
Q 1288 291 1375 216 
Q 1463 141 1606 141 
Q 1763 141 1841 241 
Q 1972 416 1991 781 
L 2003 2125 
z
" transform="scale(0.015625)"/>
       </defs>
       <use xlink:href="#TimesNewRomanPS-BoldMT-30"/>
      </g>
     </g>
    </g>
    <g id="xtick_2">
     <g id="line2d_2">
      <g>
       <use xlink:href="#ma445e9c616" x="325.065314" y="838.8" style="stroke: #000000; stroke-width: 2"/>
      </g>
     </g>
     <g id="text_2">
      <!-- 5 -->
      <g transform="translate(318.565314 859.516875) scale(0.26 -0.26)">
       <defs>
        <path id="TimesNewRomanPS-BoldMT-35" d="M 975 4238 
L 2959 4238 
L 2644 3431 
L 975 3431 
L 816 3009 
Q 1894 2969 2475 2472 
Q 2953 2063 2953 1453 
Q 2953 1063 2731 689 
Q 2509 316 2106 114 
Q 1703 -88 1222 -88 
Q 703 -88 425 106 
Q 231 244 231 419 
Q 231 553 332 656 
Q 434 759 569 759 
Q 691 759 816 709 
Q 941 659 1244 447 
Q 1434 316 1572 266 
Q 1669 228 1791 228 
Q 2047 228 2226 415 
Q 2406 603 2406 866 
Q 2406 1416 1856 1759 
Q 1306 2103 469 2103 
Q 384 2103 216 2100 
L 975 4238 
z
" transform="scale(0.015625)"/>
       </defs>
       <use xlink:href="#TimesNewRomanPS-BoldMT-35"/>
      </g>
     </g>
    </g>
    <g id="xtick_3">
     <g id="line2d_3">
      <g>
       <use xlink:href="#ma445e9c616" x="525.304548" y="838.8" style="stroke: #000000; stroke-width: 2"/>
      </g>
     </g>
     <g id="text_3">
      <!-- 10 -->
      <g transform="translate(512.304548 859.516875) scale(0.26 -0.26)">
       <defs>
        <path id="TimesNewRomanPS-BoldMT-31" d="M 2084 4325 
L 2084 859 
Q 2084 469 2118 361 
Q 2153 253 2262 184 
Q 2372 116 2613 116 
L 2709 116 
L 2709 0 
L 478 0 
L 478 116 
L 591 116 
Q 863 116 978 178 
Q 1094 241 1134 350 
Q 1175 459 1175 859 
L 1175 3056 
Q 1175 3350 1147 3423 
Q 1119 3497 1042 3548 
Q 966 3600 866 3600 
Q 706 3600 478 3500 
L 422 3613 
L 1981 4325 
L 2084 4325 
z
" transform="scale(0.015625)"/>
       </defs>
       <use xlink:href="#TimesNewRomanPS-BoldMT-31"/>
       <use xlink:href="#TimesNewRomanPS-BoldMT-30" transform="translate(50 0)"/>
      </g>
     </g>
    </g>
    <g id="xtick_4">
     <g id="line2d_4">
      <g>
       <use xlink:href="#ma445e9c616" x="725.543783" y="838.8" style="stroke: #000000; stroke-width: 2"/>
      </g>
     </g>
     <g id="text_4">
      <!-- 15 -->
      <g transform="translate(712.543783 859.516875) scale(0.26 -0.26)">
       <use xlink:href="#TimesNewRomanPS-BoldMT-31"/>
       <use xlink:href="#TimesNewRomanPS-BoldMT-35" transform="translate(50 0)"/>
      </g>
     </g>
    </g>
    <g id="xtick_5">
     <g id="line2d_5">
      <g>
       <use xlink:href="#ma445e9c616" x="885.73517" y="838.8" style="stroke: #000000; stroke-width: 2"/>
      </g>
     </g>
     <g id="text_5">
      <!-- 19 -->
      <g transform="translate(872.73517 859.516875) scale(0.26 -0.26)">
       <defs>
        <path id="TimesNewRomanPS-BoldMT-39" d="M 197 -88 
L 197 0 
Q 716 119 1077 350 
Q 1438 581 1648 922 
Q 1859 1263 1944 1706 
Q 1750 1606 1614 1567 
Q 1478 1528 1328 1528 
Q 847 1528 526 1875 
Q 206 2222 206 2825 
Q 206 3244 379 3592 
Q 553 3941 875 4133 
Q 1197 4325 1544 4325 
Q 1916 4325 2247 4112 
Q 2578 3900 2775 3497 
Q 2972 3094 2972 2578 
Q 2972 1909 2651 1296 
Q 2331 684 1697 314 
Q 1063 -56 197 -88 
z
M 1991 1969 
Q 2022 2319 2022 2584 
Q 2022 3153 1891 3644 
Q 1816 3916 1669 4044 
Q 1591 4113 1466 4113 
Q 1309 4113 1222 3978 
Q 1100 3794 1100 3275 
Q 1100 2409 1306 2081 
Q 1441 1869 1669 1869 
Q 1791 1869 1991 1969 
z
" transform="scale(0.015625)"/>
       </defs>
       <use xlink:href="#TimesNewRomanPS-BoldMT-31"/>
       <use xlink:href="#TimesNewRomanPS-BoldMT-39" transform="translate(50 0)"/>
      </g>
     </g>
    </g>
    <g id="text_6">
     <!-- Iterations -->
     <g transform="translate(446.955312 887.619688) scale(0.28 -0.28)">
      <defs>
       <path id="TimesNewRomanPS-BoldMT-49" d="M 2344 116 
L 2344 0 
L 128 0 
L 128 116 
L 269 116 
Q 453 116 566 181 
Q 647 225 691 331 
Q 725 406 725 725 
L 725 3513 
Q 725 3838 690 3919 
Q 656 4000 551 4061 
Q 447 4122 269 4122 
L 128 4122 
L 128 4238 
L 2344 4238 
L 2344 4122 
L 2203 4122 
Q 2019 4122 1906 4056 
Q 1825 4013 1778 3906 
Q 1744 3831 1744 3513 
L 1744 725 
Q 1744 400 1780 319 
Q 1816 238 1920 177 
Q 2025 116 2203 116 
L 2344 116 
z
" transform="scale(0.015625)"/>
       <path id="TimesNewRomanPS-BoldMT-74" d="M 1375 3991 
L 1375 2922 
L 2069 2922 
L 2069 2613 
L 1375 2613 
L 1375 809 
Q 1375 556 1398 482 
Q 1422 409 1481 364 
Q 1541 319 1591 319 
Q 1794 319 1975 628 
L 2069 559 
Q 1816 -41 1247 -41 
Q 969 -41 776 114 
Q 584 269 531 459 
Q 500 566 500 1034 
L 500 2613 
L 119 2613 
L 119 2722 
Q 513 3000 789 3306 
Q 1066 3613 1272 3991 
L 1375 3991 
z
" transform="scale(0.015625)"/>
       <path id="TimesNewRomanPS-BoldMT-65" d="M 2691 1566 
L 1088 1566 
Q 1116 984 1397 647 
Q 1613 388 1916 388 
Q 2103 388 2256 492 
Q 2409 597 2584 869 
L 2691 800 
Q 2453 316 2165 114 
Q 1878 -88 1500 -88 
Q 850 -88 516 413 
Q 247 816 247 1413 
Q 247 2144 642 2576 
Q 1038 3009 1569 3009 
Q 2013 3009 2339 2645 
Q 2666 2281 2691 1566 
z
M 1922 1775 
Q 1922 2278 1867 2465 
Q 1813 2653 1697 2750 
Q 1631 2806 1522 2806 
Q 1359 2806 1256 2647 
Q 1072 2369 1072 1884 
L 1072 1775 
L 1922 1775 
z
" transform="scale(0.015625)"/>
       <path id="TimesNewRomanPS-BoldMT-72" d="M 1428 2922 
L 1428 2259 
Q 1719 2713 1937 2861 
Q 2156 3009 2359 3009 
Q 2534 3009 2639 2901 
Q 2744 2794 2744 2597 
Q 2744 2388 2642 2272 
Q 2541 2156 2397 2156 
Q 2231 2156 2109 2262 
Q 1988 2369 1966 2381 
Q 1934 2400 1894 2400 
Q 1803 2400 1722 2331 
Q 1594 2225 1528 2028 
Q 1428 1725 1428 1359 
L 1428 688 
L 1431 513 
Q 1431 334 1453 284 
Q 1491 200 1564 161 
Q 1638 122 1813 113 
L 1813 0 
L 234 0 
L 234 113 
Q 425 128 492 217 
Q 559 306 559 688 
L 559 2303 
Q 559 2553 534 2622 
Q 503 2709 443 2750 
Q 384 2791 234 2806 
L 234 2922 
L 1428 2922 
z
" transform="scale(0.015625)"/>
       <path id="TimesNewRomanPS-BoldMT-61" d="M 1828 431 
Q 1294 -41 869 -41 
Q 619 -41 453 123 
Q 288 288 288 534 
Q 288 869 575 1136 
Q 863 1403 1828 1847 
L 1828 2141 
Q 1828 2472 1792 2558 
Q 1756 2644 1656 2708 
Q 1556 2772 1431 2772 
Q 1228 2772 1097 2681 
Q 1016 2625 1016 2550 
Q 1016 2484 1103 2388 
Q 1222 2253 1222 2128 
Q 1222 1975 1108 1867 
Q 994 1759 809 1759 
Q 613 1759 480 1878 
Q 347 1997 347 2156 
Q 347 2381 525 2586 
Q 703 2791 1022 2900 
Q 1341 3009 1684 3009 
Q 2100 3009 2342 2832 
Q 2584 2656 2656 2450 
Q 2700 2319 2700 1847 
L 2700 713 
Q 2700 513 2715 461 
Q 2731 409 2762 384 
Q 2794 359 2834 359 
Q 2916 359 3000 475 
L 3094 400 
Q 2938 169 2770 64 
Q 2603 -41 2391 -41 
Q 2141 -41 2000 76 
Q 1859 194 1828 431 
z
M 1828 659 
L 1828 1638 
Q 1450 1416 1266 1163 
Q 1144 994 1144 822 
Q 1144 678 1247 569 
Q 1325 484 1466 484 
Q 1622 484 1828 659 
z
" transform="scale(0.015625)"/>
       <path id="TimesNewRomanPS-BoldMT-69" d="M 919 4338 
Q 1122 4338 1262 4195 
Q 1403 4053 1403 3853 
Q 1403 3653 1261 3512 
Q 1119 3372 919 3372 
Q 719 3372 578 3512 
Q 438 3653 438 3853 
Q 438 4053 578 4195 
Q 719 4338 919 4338 
z
M 1356 2922 
L 1356 606 
Q 1356 297 1428 211 
Q 1500 125 1709 113 
L 1709 0 
L 131 0 
L 131 113 
Q 325 119 419 225 
Q 481 297 481 606 
L 481 2313 
Q 481 2622 409 2708 
Q 338 2794 131 2806 
L 131 2922 
L 1356 2922 
z
" transform="scale(0.015625)"/>
       <path id="TimesNewRomanPS-BoldMT-6f" d="M 1594 3009 
Q 1975 3009 2303 2812 
Q 2631 2616 2801 2253 
Q 2972 1891 2972 1459 
Q 2972 838 2656 419 
Q 2275 -88 1603 -88 
Q 944 -88 587 375 
Q 231 838 231 1447 
Q 231 2075 595 2542 
Q 959 3009 1594 3009 
z
M 1606 2788 
Q 1447 2788 1333 2667 
Q 1219 2547 1183 2192 
Q 1147 1838 1147 1206 
Q 1147 872 1191 581 
Q 1225 359 1337 243 
Q 1450 128 1594 128 
Q 1734 128 1828 206 
Q 1950 313 1991 503 
Q 2053 800 2053 1703 
Q 2053 2234 1993 2432 
Q 1934 2631 1819 2722 
Q 1738 2788 1606 2788 
z
" transform="scale(0.015625)"/>
       <path id="TimesNewRomanPS-BoldMT-6e" d="M 1409 2922 
L 1409 2544 
Q 1634 2788 1840 2898 
Q 2047 3009 2284 3009 
Q 2569 3009 2756 2851 
Q 2944 2694 3006 2459 
Q 3056 2281 3056 1775 
L 3056 638 
Q 3056 300 3117 217 
Q 3178 134 3372 113 
L 3372 0 
L 1894 0 
L 1894 113 
Q 2059 134 2131 250 
Q 2181 328 2181 638 
L 2181 1938 
Q 2181 2297 2153 2390 
Q 2125 2484 2058 2536 
Q 1991 2588 1909 2588 
Q 1641 2588 1409 2203 
L 1409 638 
Q 1409 309 1470 221 
Q 1531 134 1697 113 
L 1697 0 
L 219 0 
L 219 113 
Q 403 131 481 231 
Q 534 300 534 638 
L 534 2288 
Q 534 2619 473 2700 
Q 413 2781 219 2806 
L 219 2922 
L 1409 2922 
z
" transform="scale(0.015625)"/>
       <path id="TimesNewRomanPS-BoldMT-73" d="M 2063 3003 
L 2109 2006 
L 2003 2006 
Q 1813 2450 1608 2612 
Q 1403 2775 1200 2775 
Q 1072 2775 981 2689 
Q 891 2603 891 2491 
Q 891 2406 953 2328 
Q 1053 2200 1512 1889 
Q 1972 1578 2117 1361 
Q 2263 1144 2263 875 
Q 2263 631 2141 397 
Q 2019 163 1797 37 
Q 1575 -88 1306 -88 
Q 1097 -88 747 44 
Q 653 78 619 78 
Q 516 78 447 -78 
L 344 -78 
L 294 972 
L 400 972 
Q 541 559 786 353 
Q 1031 147 1250 147 
Q 1400 147 1495 239 
Q 1591 331 1591 463 
Q 1591 613 1497 722 
Q 1403 831 1078 1053 
Q 600 1384 459 1559 
Q 253 1816 253 2125 
Q 253 2463 486 2736 
Q 719 3009 1159 3009 
Q 1397 3009 1619 2894 
Q 1703 2847 1756 2847 
Q 1813 2847 1847 2870 
Q 1881 2894 1956 3003 
L 2063 3003 
z
" transform="scale(0.015625)"/>
      </defs>
      <use xlink:href="#TimesNewRomanPS-BoldMT-49"/>
      <use xlink:href="#TimesNewRomanPS-BoldMT-74" transform="translate(38.916016 0)"/>
      <use xlink:href="#TimesNewRomanPS-BoldMT-65" transform="translate(72.216797 0)"/>
      <use xlink:href="#TimesNewRomanPS-BoldMT-72" transform="translate(116.601562 0)"/>
      <use xlink:href="#TimesNewRomanPS-BoldMT-61" transform="translate(160.986328 0)"/>
      <use xlink:href="#TimesNewRomanPS-BoldMT-74" transform="translate(210.986328 0)"/>
      <use xlink:href="#TimesNewRomanPS-BoldMT-69" transform="translate(244.287109 0)"/>
      <use xlink:href="#TimesNewRomanPS-BoldMT-6f" transform="translate(272.070312 0)"/>
      <use xlink:href="#TimesNewRomanPS-BoldMT-6e" transform="translate(322.070312 0)"/>
      <use xlink:href="#TimesNewRomanPS-BoldMT-73" transform="translate(377.685547 0)"/>
     </g>
    </g>
   </g>
   <g id="matplotlib.axis_2">
    <g id="ytick_1">
     <g id="line2d_6">
      <defs>
       <path id="me1e0a5f811" d="M 0 0 
L 6 0 
" style="stroke: #000000; stroke-width: 2"/>
      </defs>
      <g>
       <use xlink:href="#me1e0a5f811" x="86.780625" y="766.963344" style="stroke: #000000; stroke-width: 2"/>
      </g>
     </g>
     <g id="text_7">
      <!-- $\mathdefault{10^{-3}}$ -->
      <g transform="translate(36.220625 778.612563) scale(0.26 -0.26)">
       <defs>
        <path id="TimesNewRomanPS-BoldMT-2212" d="M 125 2325 
L 3541 2325 
L 3541 1913 
L 125 1913 
L 125 2325 
z
" transform="scale(0.015625)"/>
        <path id="TimesNewRomanPS-BoldMT-33" d="M 947 2125 
L 947 2234 
Q 1303 2338 1440 2427 
Q 1578 2516 1678 2698 
Q 1778 2881 1778 3069 
Q 1778 3328 1589 3514 
Q 1400 3700 1119 3700 
Q 681 3700 375 3238 
L 259 3278 
Q 484 3800 836 4062 
Q 1188 4325 1619 4325 
Q 2059 4325 2345 4056 
Q 2631 3788 2631 3428 
Q 2631 3194 2498 2976 
Q 2366 2759 2081 2594 
Q 2447 2416 2639 2155 
Q 2831 1894 2831 1500 
Q 2831 838 2351 373 
Q 1872 -91 1066 -91 
Q 528 -91 281 88 
Q 103 213 103 409 
Q 103 553 206 654 
Q 309 756 444 756 
Q 547 756 638 713 
Q 688 688 992 439 
Q 1297 191 1563 191 
Q 1794 191 1959 373 
Q 2125 556 2125 838 
Q 2125 1266 1825 1627 
Q 1525 1988 947 2125 
z
" transform="scale(0.015625)"/>
       </defs>
       <use xlink:href="#TimesNewRomanPS-BoldMT-31" transform="translate(0 0.335938)"/>
       <use xlink:href="#TimesNewRomanPS-BoldMT-30" transform="translate(50 0.335938)"/>
       <use xlink:href="#TimesNewRomanPS-BoldMT-2212" transform="translate(101.533984 61.695312) scale(0.7)"/>
       <use xlink:href="#TimesNewRomanPS-BoldMT-33" transform="translate(141.42168 61.695312) scale(0.7)"/>
      </g>
     </g>
    </g>
    <g id="ytick_2">
     <g id="line2d_7">
      <g>
       <use xlink:href="#me1e0a5f811" x="86.780625" y="608.794093" style="stroke: #000000; stroke-width: 2"/>
      </g>
     </g>
     <g id="text_8">
      <!-- $\mathdefault{10^{-2}}$ -->
      <g transform="translate(36.220625 620.443312) scale(0.26 -0.26)">
       <defs>
        <path id="TimesNewRomanPS-BoldMT-32" d="M 2650 0 
L 156 0 
L 156 69 
Q 1303 1434 1548 1906 
Q 1794 2378 1794 2828 
Q 1794 3156 1591 3373 
Q 1388 3591 1094 3591 
Q 613 3591 347 3109 
L 231 3150 
Q 400 3750 744 4037 
Q 1088 4325 1538 4325 
Q 1859 4325 2125 4175 
Q 2391 4025 2541 3764 
Q 2691 3503 2691 3275 
Q 2691 2859 2459 2431 
Q 2144 1853 1081 819 
L 1997 819 
Q 2334 819 2436 847 
Q 2538 875 2603 942 
Q 2669 1009 2775 1225 
L 2888 1225 
L 2650 0 
z
" transform="scale(0.015625)"/>
       </defs>
       <use xlink:href="#TimesNewRomanPS-BoldMT-31" transform="translate(0 0.335938)"/>
       <use xlink:href="#TimesNewRomanPS-BoldMT-30" transform="translate(50 0.335938)"/>
       <use xlink:href="#TimesNewRomanPS-BoldMT-2212" transform="translate(101.533984 61.695312) scale(0.7)"/>
       <use xlink:href="#TimesNewRomanPS-BoldMT-32" transform="translate(141.42168 61.695312) scale(0.7)"/>
      </g>
     </g>
    </g>
    <g id="ytick_3">
     <g id="line2d_8">
      <g>
       <use xlink:href="#me1e0a5f811" x="86.780625" y="450.624842" style="stroke: #000000; stroke-width: 2"/>
      </g>
     </g>
     <g id="text_9">
      <!-- $\mathdefault{10^{-1}}$ -->
      <g transform="translate(36.220625 462.274061) scale(0.26 -0.26)">
       <use xlink:href="#TimesNewRomanPS-BoldMT-31" transform="translate(0 0.335938)"/>
       <use xlink:href="#TimesNewRomanPS-BoldMT-30" transform="translate(50 0.335938)"/>
       <use xlink:href="#TimesNewRomanPS-BoldMT-2212" transform="translate(101.533984 61.695312) scale(0.7)"/>
       <use xlink:href="#TimesNewRomanPS-BoldMT-31" transform="translate(141.42168 61.695312) scale(0.7)"/>
      </g>
     </g>
    </g>
    <g id="ytick_4">
     <g id="line2d_9">
      <g>
       <use xlink:href="#me1e0a5f811" x="86.780625" y="292.455591" style="stroke: #000000; stroke-width: 2"/>
      </g>
     </g>
     <g id="text_10">
      <!-- $\mathdefault{10^{0}}$ -->
      <g transform="translate(46.620625 304.10481) scale(0.26 -0.26)">
       <use xlink:href="#TimesNewRomanPS-BoldMT-31" transform="translate(0 0.335938)"/>
       <use xlink:href="#TimesNewRomanPS-BoldMT-30" transform="translate(50 0.335938)"/>
       <use xlink:href="#TimesNewRomanPS-BoldMT-30" transform="translate(101.533984 61.695312) scale(0.7)"/>
      </g>
     </g>
    </g>
    <g id="ytick_5">
     <g id="line2d_10">
      <g>
       <use xlink:href="#me1e0a5f811" x="86.780625" y="134.28634" style="stroke: #000000; stroke-width: 2"/>
      </g>
     </g>
     <g id="text_11">
      <!-- $\mathdefault{10^{1}}$ -->
      <g transform="translate(46.620625 145.935559) scale(0.26 -0.26)">
       <use xlink:href="#TimesNewRomanPS-BoldMT-31" transform="translate(0 0.335938)"/>
       <use xlink:href="#TimesNewRomanPS-BoldMT-30" transform="translate(50 0.335938)"/>
       <use xlink:href="#TimesNewRomanPS-BoldMT-31" transform="translate(101.533984 61.695312) scale(0.7)"/>
      </g>
     </g>
    </g>
    <g id="ytick_6"/>
    <g id="ytick_7"/>
    <g id="ytick_8"/>
    <g id="ytick_9"/>
    <g id="ytick_10"/>
    <g id="ytick_11"/>
    <g id="ytick_12"/>
    <g id="ytick_13"/>
    <g id="ytick_14"/>
    <g id="ytick_15"/>
    <g id="ytick_16"/>
    <g id="ytick_17"/>
    <g id="ytick_18"/>
    <g id="ytick_19"/>
    <g id="ytick_20"/>
    <g id="ytick_21"/>
    <g id="ytick_22"/>
    <g id="ytick_23"/>
    <g id="ytick_24"/>
    <g id="ytick_25"/>
    <g id="ytick_26"/>
    <g id="ytick_27"/>
    <g id="ytick_28"/>
    <g id="ytick_29"/>
    <g id="ytick_30"/>
    <g id="ytick_31"/>
    <g id="ytick_32"/>
    <g id="ytick_33"/>
    <g id="ytick_34"/>
    <g id="ytick_35"/>
    <g id="ytick_36"/>
    <g id="ytick_37"/>
    <g id="ytick_38"/>
    <g id="ytick_39"/>
    <g id="ytick_40"/>
    <g id="ytick_41"/>
    <g id="ytick_42"/>
    <g id="ytick_43"/>
    <g id="ytick_44"/>
    <g id="ytick_45"/>
    <g id="ytick_46"/>
    <g id="ytick_47"/>
    <g id="ytick_48"/>
    <g id="text_12">
     <!-- Objective Function Value -->
     <g transform="translate(26.17875 574.68125) rotate(-90) scale(0.28 -0.28)">
      <defs>
       <path id="TimesNewRomanPS-BoldMT-4f" d="M 2472 4297 
Q 3484 4334 4117 3706 
Q 4750 3078 4750 2134 
Q 4750 1328 4278 716 
Q 3653 -97 2513 -97 
Q 1369 -97 744 678 
Q 250 1291 250 2131 
Q 250 3075 892 3704 
Q 1534 4334 2472 4297 
z
M 2509 4097 
Q 1928 4097 1625 3503 
Q 1378 3016 1378 2103 
Q 1378 1019 1759 500 
Q 2025 138 2503 138 
Q 2825 138 3041 294 
Q 3316 494 3469 933 
Q 3622 1372 3622 2078 
Q 3622 2919 3465 3336 
Q 3309 3753 3067 3925 
Q 2825 4097 2509 4097 
z
" transform="scale(0.015625)"/>
       <path id="TimesNewRomanPS-BoldMT-62" d="M 1347 4238 
L 1347 2628 
Q 1716 3009 2153 3009 
Q 2453 3009 2718 2832 
Q 2984 2656 3134 2331 
Q 3284 2006 3284 1581 
Q 3284 1103 3093 712 
Q 2903 322 2584 117 
Q 2266 -88 1856 -88 
Q 1619 -88 1434 -12 
Q 1250 63 1072 231 
L 588 -84 
L 481 -84 
L 481 3631 
Q 481 3884 459 3944 
Q 428 4031 361 4073 
Q 294 4116 134 4122 
L 134 4238 
L 1347 4238 
z
M 1347 2350 
L 1347 1050 
Q 1347 653 1366 544 
Q 1397 359 1515 245 
Q 1634 131 1819 131 
Q 1978 131 2092 222 
Q 2206 313 2282 581 
Q 2359 850 2359 1550 
Q 2359 2222 2191 2472 
Q 2069 2653 1863 2653 
Q 1594 2653 1347 2350 
z
" transform="scale(0.015625)"/>
       <path id="TimesNewRomanPS-BoldMT-6a" d="M 1113 4334 
Q 1313 4334 1452 4195 
Q 1591 4056 1591 3859 
Q 1591 3659 1450 3518 
Q 1309 3378 1113 3378 
Q 916 3378 775 3518 
Q 634 3659 634 3859 
Q 634 4056 773 4195 
Q 913 4334 1113 4334 
z
M 1550 2922 
L 1550 -103 
Q 1550 -528 1497 -731 
Q 1419 -1025 1186 -1203 
Q 953 -1381 572 -1381 
Q 188 -1381 5 -1225 
Q -178 -1069 -178 -847 
Q -178 -709 -82 -607 
Q 13 -506 141 -506 
Q 259 -506 328 -576 
Q 397 -647 397 -788 
Q 397 -825 394 -875 
Q 388 -941 388 -966 
Q 388 -1075 438 -1128 
Q 488 -1181 566 -1181 
Q 638 -1181 689 -1118 
Q 741 -1056 741 -941 
Q 741 -878 722 -688 
Q 691 -341 688 -269 
L 678 472 
L 678 2278 
L 681 2441 
Q 681 2638 614 2711 
Q 547 2784 331 2806 
L 331 2922 
L 1550 2922 
z
" transform="scale(0.015625)"/>
       <path id="TimesNewRomanPS-BoldMT-63" d="M 2600 753 
L 2697 678 
Q 2491 291 2183 101 
Q 1875 -88 1528 -88 
Q 944 -88 594 353 
Q 244 794 244 1413 
Q 244 2009 563 2463 
Q 947 3009 1622 3009 
Q 2075 3009 2342 2781 
Q 2609 2553 2609 2272 
Q 2609 2094 2501 1987 
Q 2394 1881 2219 1881 
Q 2034 1881 1914 2003 
Q 1794 2125 1766 2438 
Q 1747 2634 1675 2713 
Q 1603 2791 1506 2791 
Q 1356 2791 1250 2631 
Q 1088 2391 1088 1894 
Q 1088 1481 1219 1104 
Q 1350 728 1578 544 
Q 1750 409 1984 409 
Q 2138 409 2275 481 
Q 2413 553 2600 753 
z
" transform="scale(0.015625)"/>
       <path id="TimesNewRomanPS-BoldMT-76" d="M 1534 -88 
L 550 2178 
Q 372 2588 272 2697 
Q 200 2778 59 2806 
L 59 2922 
L 1613 2922 
L 1613 2806 
Q 1466 2806 1413 2753 
Q 1338 2684 1338 2591 
Q 1338 2475 1475 2156 
L 1956 1059 
L 2341 2006 
Q 2506 2413 2506 2581 
Q 2506 2678 2436 2739 
Q 2366 2800 2188 2806 
L 2188 2922 
L 3144 2922 
L 3144 2806 
Q 3006 2788 2918 2703 
Q 2831 2619 2656 2206 
L 1681 -88 
L 1534 -88 
z
" transform="scale(0.015625)"/>
       <path id="TimesNewRomanPS-BoldMT-20" transform="scale(0.015625)"/>
       <path id="TimesNewRomanPS-BoldMT-46" d="M 1759 3994 
L 1759 2253 
L 1881 2253 
Q 2163 2253 2341 2337 
Q 2519 2422 2642 2622 
Q 2766 2822 2803 3163 
L 2913 3163 
L 2913 1034 
L 2803 1034 
Q 2744 1638 2480 1830 
Q 2216 2022 1881 2022 
L 1759 2022 
L 1759 725 
Q 1759 400 1795 319 
Q 1831 238 1936 177 
Q 2041 116 2219 116 
L 2359 116 
L 2359 0 
L 144 0 
L 144 116 
L 284 116 
Q 469 116 581 181 
Q 663 225 706 331 
Q 741 406 741 725 
L 741 3513 
Q 741 3838 706 3919 
Q 672 4000 567 4061 
Q 463 4122 284 4122 
L 144 4122 
L 144 4238 
L 3719 4238 
L 3719 3022 
L 3591 3022 
Q 3547 3450 3367 3656 
Q 3188 3863 2847 3947 
Q 2659 3994 2153 3994 
L 1759 3994 
z
" transform="scale(0.015625)"/>
       <path id="TimesNewRomanPS-BoldMT-75" d="M 3038 2922 
L 3038 634 
Q 3038 300 3100 217 
Q 3163 134 3353 113 
L 3353 0 
L 2163 0 
L 2163 391 
Q 1953 141 1743 26 
Q 1534 -88 1275 -88 
Q 1028 -88 836 64 
Q 644 216 578 419 
Q 513 622 513 1128 
L 513 2288 
Q 513 2619 452 2700 
Q 391 2781 197 2806 
L 197 2922 
L 1388 2922 
L 1388 925 
Q 1388 613 1417 522 
Q 1447 431 1511 384 
Q 1575 338 1659 338 
Q 1772 338 1863 397 
Q 1988 478 2163 725 
L 2163 2288 
Q 2163 2619 2102 2700 
Q 2041 2781 1847 2806 
L 1847 2922 
L 3038 2922 
z
" transform="scale(0.015625)"/>
       <path id="TimesNewRomanPS-BoldMT-56" d="M 4556 4238 
L 4556 4122 
Q 4325 4084 4144 3875 
Q 4013 3719 3753 3141 
L 2294 -97 
L 2191 -97 
L 738 3272 
Q 475 3881 386 3987 
Q 297 4094 50 4122 
L 50 4238 
L 2081 4238 
L 2081 4122 
L 2013 4122 
Q 1738 4122 1638 4053 
Q 1566 4006 1566 3916 
Q 1566 3859 1591 3782 
Q 1616 3706 1759 3372 
L 2663 1263 
L 3500 3141 
Q 3650 3481 3684 3597 
Q 3719 3713 3719 3794 
Q 3719 3888 3669 3959 
Q 3619 4031 3522 4069 
Q 3388 4122 3166 4122 
L 3166 4238 
L 4556 4238 
z
" transform="scale(0.015625)"/>
       <path id="TimesNewRomanPS-BoldMT-6c" d="M 1359 4238 
L 1359 606 
Q 1359 297 1431 211 
Q 1503 125 1713 113 
L 1713 0 
L 134 0 
L 134 113 
Q 328 119 422 225 
Q 484 297 484 606 
L 484 3631 
Q 484 3938 412 4023 
Q 341 4109 134 4122 
L 134 4238 
L 1359 4238 
z
" transform="scale(0.015625)"/>
      </defs>
      <use xlink:href="#TimesNewRomanPS-BoldMT-4f"/>
      <use xlink:href="#TimesNewRomanPS-BoldMT-62" transform="translate(77.783203 0)"/>
      <use xlink:href="#TimesNewRomanPS-BoldMT-6a" transform="translate(133.398438 0)"/>
      <use xlink:href="#TimesNewRomanPS-BoldMT-65" transform="translate(166.699219 0)"/>
      <use xlink:href="#TimesNewRomanPS-BoldMT-63" transform="translate(211.083984 0)"/>
      <use xlink:href="#TimesNewRomanPS-BoldMT-74" transform="translate(255.46875 0)"/>
      <use xlink:href="#TimesNewRomanPS-BoldMT-69" transform="translate(288.769531 0)"/>
      <use xlink:href="#TimesNewRomanPS-BoldMT-76" transform="translate(316.552734 0)"/>
      <use xlink:href="#TimesNewRomanPS-BoldMT-65" transform="translate(366.552734 0)"/>
      <use xlink:href="#TimesNewRomanPS-BoldMT-20" transform="translate(410.9375 0)"/>
      <use xlink:href="#TimesNewRomanPS-BoldMT-46" transform="translate(435.9375 0)"/>
      <use xlink:href="#TimesNewRomanPS-BoldMT-75" transform="translate(497.021484 0)"/>
      <use xlink:href="#TimesNewRomanPS-BoldMT-6e" transform="translate(552.636719 0)"/>
      <use xlink:href="#TimesNewRomanPS-BoldMT-63" transform="translate(608.251953 0)"/>
      <use xlink:href="#TimesNewRomanPS-BoldMT-74" transform="translate(652.636719 0)"/>
      <use xlink:href="#TimesNewRomanPS-BoldMT-69" transform="translate(685.9375 0)"/>
      <use xlink:href="#TimesNewRomanPS-BoldMT-6f" transform="translate(713.720703 0)"/>
      <use xlink:href="#TimesNewRomanPS-BoldMT-6e" transform="translate(763.720703 0)"/>
      <use xlink:href="#TimesNewRomanPS-BoldMT-20" transform="translate(819.335938 0)"/>
      <use xlink:href="#TimesNewRomanPS-BoldMT-56" transform="translate(842.585938 0)"/>
      <use xlink:href="#TimesNewRomanPS-BoldMT-61" transform="translate(905.677734 0)"/>
      <use xlink:href="#TimesNewRomanPS-BoldMT-6c" transform="translate(955.677734 0)"/>
      <use xlink:href="#TimesNewRomanPS-BoldMT-75" transform="translate(983.460938 0)"/>
      <use xlink:href="#TimesNewRomanPS-BoldMT-65" transform="translate(1039.076172 0)"/>
     </g>
    </g>
   </g>
   <g id="line2d_11">
    <path d="M 124.82608 155.508003 
L 164.873926 235.634619 
L 204.921773 259.05718 
L 244.96962 259.05718 
L 285.017467 259.05718 
L 325.065314 259.05718 
L 365.113161 289.478594 
L 405.161008 318.937036 
L 445.208855 328.911275 
L 485.256702 348.513025 
L 525.304548 348.513025 
L 565.352395 358.835081 
L 605.400242 386.641671 
L 645.448089 386.641671 
L 685.495936 386.641671 
L 725.543783 392.349366 
L 765.59163 433.781168 
L 805.639477 449.573726 
L 845.687324 449.573726 
L 885.73517 449.573726 
" clip-path="url(#pc823a8f0cc)" style="fill: none; stroke: #db443c; stroke-width: 4; stroke-linecap: square"/>
   </g>
   <g id="line2d_12">
    <path d="M 124.82608 78.6362 
L 164.873926 203.553088 
L 204.921773 236.956039 
L 244.96962 257.940001 
L 285.017467 257.940001 
L 325.065314 257.940001 
L 365.113161 313.459452 
L 405.161008 313.459452 
L 445.208855 313.459452 
L 485.256702 313.459452 
L 525.304548 323.301691 
L 565.352395 323.301691 
L 605.400242 323.301691 
L 645.448089 323.301691 
L 685.495936 323.301691 
L 725.543783 323.301691 
L 765.59163 323.301691 
L 805.639477 331.998985 
L 845.687324 351.722186 
L 885.73517 351.722186 
" clip-path="url(#pc823a8f0cc)" style="fill: none; stroke-dasharray: 14.8,6.4; stroke-dashoffset: 0; stroke: #f57b56; stroke-width: 4"/>
   </g>
   <g id="line2d_13">
    <path d="M 124.82608 78.6362 
L 164.873926 135.335013 
L 204.921773 283.957278 
L 244.96962 283.957278 
L 285.017467 283.957278 
L 325.065314 313.088229 
L 365.113161 325.419971 
L 405.161008 326.39315 
L 445.208855 379.651572 
L 485.256702 379.651572 
L 525.304548 379.651572 
L 565.352395 379.651572 
L 605.400242 469.327448 
L 645.448089 469.327448 
L 685.495936 469.327448 
L 725.543783 469.327448 
L 765.59163 469.327448 
L 805.639477 469.327448 
L 845.687324 469.327448 
L 885.73517 469.327448 
" clip-path="url(#pc823a8f0cc)" style="fill: none; stroke-dasharray: 25.6,6.4,4,6.4; stroke-dashoffset: 0; stroke: #fdb670; stroke-width: 4"/>
   </g>
   <g id="line2d_14">
    <path d="M 124.82608 158.196032 
L 164.873926 245.749826 
L 204.921773 280.699388 
L 244.96962 280.699388 
L 285.017467 280.699388 
L 325.065314 280.699388 
L 365.113161 281.63413 
L 405.161008 289.96672 
L 445.208855 312.838467 
L 485.256702 329.290687 
L 525.304548 329.290687 
L 565.352395 334.655264 
L 605.400242 373.761645 
L 645.448089 427.673362 
L 685.495936 427.673362 
L 725.543783 429.806559 
L 765.59163 429.806559 
L 805.639477 477.949267 
L 845.687324 493.93906 
L 885.73517 493.93906 
" clip-path="url(#pc823a8f0cc)" style="fill: none; stroke-dasharray: 4,6.6; stroke-dashoffset: 0; stroke: #82b5d5; stroke-width: 4"/>
   </g>
   <g id="line2d_15">
    <path d="M 124.82608 117.079705 
L 164.873926 188.824036 
L 204.921773 212.531316 
L 244.96962 212.531316 
L 285.017467 212.531316 
L 325.065314 219.297707 
L 365.113161 223.658526 
L 405.161008 243.422531 
L 445.208855 250.944544 
L 485.256702 255.241889 
L 525.304548 255.895416 
L 565.352395 255.895416 
L 605.400242 256.202035 
L 645.448089 256.764881 
L 685.495936 256.959464 
L 725.543783 256.959464 
L 765.59163 256.959464 
L 805.639477 256.971304 
L 845.687324 256.974375 
L 885.73517 256.974375 
" clip-path="url(#pc823a8f0cc)" style="fill: none; stroke: #4db6ac; stroke-width: 4; stroke-linecap: square"/>
   </g>
   <g id="line2d_16">
    <path d="M 124.82608 131.302289 
L 164.873926 189.927127 
L 204.921773 245.204676 
L 244.96962 245.204676 
L 285.017467 280.43603 
L 325.065314 281.779754 
L 365.113161 295.655336 
L 405.161008 295.655336 
L 445.208855 311.653739 
L 485.256702 311.653739 
L 525.304548 314.111675 
L 565.352395 317.038354 
L 605.400242 323.517532 
L 645.448089 330.642569 
L 685.495936 334.371458 
L 725.543783 338.807816 
L 765.59163 340.406564 
L 805.639477 342.399442 
L 845.687324 342.41257 
L 885.73517 342.41257 
" clip-path="url(#pc823a8f0cc)" style="fill: none; stroke-dasharray: 14.8,6.4; stroke-dashoffset: 0; stroke: #5682bb; stroke-width: 4"/>
   </g>
   <g id="line2d_17">
    <path d="M 124.82608 75.681451 
L 164.873926 114.684059 
L 204.921773 231.651474 
L 244.96962 231.651474 
L 285.017467 231.651474 
L 325.065314 236.980241 
L 365.113161 270.729464 
L 405.161008 270.729464 
L 445.208855 288.104429 
L 485.256702 290.133197 
L 525.304548 298.376674 
L 565.352395 317.746951 
L 605.400242 330.29367 
L 645.448089 330.29367 
L 685.495936 331.006197 
L 725.543783 334.315793 
L 765.59163 345.746079 
L 805.639477 345.746079 
L 845.687324 345.746079 
L 885.73517 345.746079 
" clip-path="url(#pc823a8f0cc)" style="fill: none; stroke-dasharray: 25.6,6.4,4,6.4; stroke-dashoffset: 0; stroke: #454a9f; stroke-width: 4"/>
   </g>
   <g id="line2d_18">
    <path d="M 124.82608 75.973767 
L 164.873926 169.880906 
L 204.921773 280.05312 
L 244.96962 280.05312 
L 285.017467 300.126485 
L 325.065314 300.126485 
L 365.113161 300.126485 
L 405.161008 300.126485 
L 445.208855 350.414883 
L 485.256702 350.414883 
L 525.304548 375.919115 
L 565.352395 375.919115 
L 605.400242 375.919115 
L 645.448089 375.919115 
L 685.495936 378.642861 
L 725.543783 385.137436 
L 765.59163 385.137436 
L 805.639477 385.137436 
L 845.687324 385.137436 
L 885.73517 385.137436 
" clip-path="url(#pc823a8f0cc)" style="fill: none; stroke-dasharray: 4,6.6; stroke-dashoffset: 0; stroke: #8e44ad; stroke-width: 4"/>
   </g>
   <g id="patch_3">
    <path d="M 86.780625 838.8 
L 86.780625 7.2 
" style="fill: none; stroke: #000000; stroke-width: 2; stroke-linejoin: miter; stroke-linecap: square"/>
   </g>
   <g id="patch_4">
    <path d="M 923.780625 838.8 
L 923.780625 7.2 
" style="fill: none; stroke: #000000; stroke-width: 2; stroke-linejoin: miter; stroke-linecap: square"/>
   </g>
   <g id="patch_5">
    <path d="M 86.780625 838.8 
L 923.780625 838.8 
" style="fill: none; stroke: #000000; stroke-width: 2; stroke-linejoin: miter; stroke-linecap: square"/>
   </g>
   <g id="patch_6">
    <path d="M 86.780625 7.2 
L 923.780625 7.2 
" style="fill: none; stroke: #000000; stroke-width: 2; stroke-linejoin: miter; stroke-linecap: square"/>
   </g>
   <g id="text_13">
    <!-- (a) -->
    <g transform="translate(866.024375 50.72425) scale(0.28 -0.28)">
     <defs>
      <path id="TimesNewRomanPS-BoldMT-28" d="M 2056 4334 
L 2056 4191 
Q 1731 3978 1578 3775 
Q 1366 3494 1247 3053 
Q 1097 2506 1097 1525 
Q 1097 600 1233 87 
Q 1369 -425 1603 -741 
Q 1766 -959 2056 -1125 
L 2056 -1281 
Q 1303 -1028 779 -248 
Q 256 531 256 1544 
Q 256 2544 778 3314 
Q 1300 4084 2056 4334 
z
" transform="scale(0.015625)"/>
      <path id="TimesNewRomanPS-BoldMT-29" d="M 78 -1281 
L 78 -1138 
Q 403 -922 556 -719 
Q 766 -438 888 0 
Q 1038 550 1038 1531 
Q 1038 2456 902 2967 
Q 766 3478 531 3794 
Q 369 4013 78 4178 
L 78 4334 
Q 831 4081 1354 3301 
Q 1878 2522 1878 1509 
Q 1878 513 1354 -257 
Q 831 -1028 78 -1281 
z
" transform="scale(0.015625)"/>
     </defs>
     <use xlink:href="#TimesNewRomanPS-BoldMT-28"/>
     <use xlink:href="#TimesNewRomanPS-BoldMT-61" transform="translate(33.300781 0)"/>
     <use xlink:href="#TimesNewRomanPS-BoldMT-29" transform="translate(83.300781 0)"/>
    </g>
   </g>
   <g id="legend_1">
    <g id="patch_7">
     <path d="M 103.580625 826.8 
L 411.084375 826.8 
Q 415.884375 826.8 415.884375 822 
L 415.884375 552.795 
Q 415.884375 547.995 411.084375 547.995 
L 103.580625 547.995 
Q 98.780625 547.995 98.780625 552.795 
L 98.780625 822 
Q 98.780625 826.8 103.580625 826.8 
z
" style="fill: #ffffff; opacity: 0.8; stroke: #cccccc; stroke-width: 2; stroke-linejoin: miter"/>
    </g>
    <g id="line2d_19">
     <path d="M 108.380625 565.995 
L 132.380625 565.995 
L 156.380625 565.995 
" style="fill: none; stroke: #db443c; stroke-width: 4; stroke-linecap: square"/>
    </g>
    <g id="text_14">
     <!-- SRBF -->
     <g transform="translate(175.580625 574.395) scale(0.24 -0.24)">
      <defs>
       <path id="TimesNewRomanPS-BoldMT-53" d="M 3006 4334 
L 3041 2922 
L 2913 2922 
Q 2822 3453 2467 3776 
Q 2113 4100 1700 4100 
Q 1381 4100 1195 3929 
Q 1009 3759 1009 3538 
Q 1009 3397 1075 3288 
Q 1166 3141 1366 2997 
Q 1513 2894 2044 2631 
Q 2788 2266 3047 1941 
Q 3303 1616 3303 1197 
Q 3303 666 2889 283 
Q 2475 -100 1838 -100 
Q 1638 -100 1459 -59 
Q 1281 -19 1013 94 
Q 863 156 766 156 
Q 684 156 593 93 
Q 503 31 447 -97 
L 331 -97 
L 331 1503 
L 447 1503 
Q 584 828 976 473 
Q 1369 119 1822 119 
Q 2172 119 2380 309 
Q 2588 500 2588 753 
Q 2588 903 2508 1043 
Q 2428 1184 2265 1311 
Q 2103 1438 1691 1641 
Q 1113 1925 859 2125 
Q 606 2325 470 2572 
Q 334 2819 334 3116 
Q 334 3622 706 3978 
Q 1078 4334 1644 4334 
Q 1850 4334 2044 4284 
Q 2191 4247 2402 4145 
Q 2613 4044 2697 4044 
Q 2778 4044 2825 4094 
Q 2872 4144 2913 4334 
L 3006 4334 
z
" transform="scale(0.015625)"/>
       <path id="TimesNewRomanPS-BoldMT-52" d="M 1700 1931 
L 1700 744 
Q 1700 400 1742 311 
Q 1784 222 1890 169 
Q 1997 116 2288 116 
L 2288 0 
L 119 0 
L 119 116 
Q 413 116 517 170 
Q 622 225 664 312 
Q 706 400 706 744 
L 706 3494 
Q 706 3838 664 3927 
Q 622 4016 515 4069 
Q 409 4122 119 4122 
L 119 4238 
L 2088 4238 
Q 2856 4238 3212 4131 
Q 3569 4025 3794 3739 
Q 4019 3453 4019 3069 
Q 4019 2600 3681 2294 
Q 3466 2100 3078 2003 
L 4097 569 
Q 4297 291 4381 222 
Q 4509 125 4678 116 
L 4678 0 
L 3344 0 
L 1978 1931 
L 1700 1931 
z
M 1700 4009 
L 1700 2153 
L 1878 2153 
Q 2313 2153 2528 2233 
Q 2744 2313 2867 2520 
Q 2991 2728 2991 3063 
Q 2991 3547 2764 3778 
Q 2538 4009 2034 4009 
L 1700 4009 
z
" transform="scale(0.015625)"/>
       <path id="TimesNewRomanPS-BoldMT-42" d="M 2847 2247 
Q 3450 2106 3694 1906 
Q 4044 1622 4044 1169 
Q 4044 691 3659 378 
Q 3188 0 2288 0 
L 134 0 
L 134 116 
Q 428 116 533 170 
Q 638 225 680 312 
Q 722 400 722 744 
L 722 3494 
Q 722 3838 680 3927 
Q 638 4016 531 4069 
Q 425 4122 134 4122 
L 134 4238 
L 2166 4238 
Q 2894 4238 3197 4108 
Q 3500 3978 3675 3720 
Q 3850 3463 3850 3172 
Q 3850 2866 3628 2627 
Q 3406 2388 2847 2247 
z
M 1709 2331 
Q 2153 2331 2364 2431 
Q 2575 2531 2687 2712 
Q 2800 2894 2800 3175 
Q 2800 3456 2689 3636 
Q 2578 3816 2372 3909 
Q 2166 4003 1709 4000 
L 1709 2331 
z
M 1709 2088 
L 1709 728 
L 1706 572 
Q 1706 403 1792 317 
Q 1878 231 2047 231 
Q 2297 231 2508 342 
Q 2719 453 2831 664 
Q 2944 875 2944 1134 
Q 2944 1431 2806 1667 
Q 2669 1903 2428 1997 
Q 2188 2091 1709 2088 
z
" transform="scale(0.015625)"/>
      </defs>
      <use xlink:href="#TimesNewRomanPS-BoldMT-53"/>
      <use xlink:href="#TimesNewRomanPS-BoldMT-52" transform="translate(55.615234 0)"/>
      <use xlink:href="#TimesNewRomanPS-BoldMT-42" transform="translate(127.832031 0)"/>
      <use xlink:href="#TimesNewRomanPS-BoldMT-46" transform="translate(194.53125 0)"/>
     </g>
    </g>
    <g id="line2d_20">
     <path d="M 108.380625 599.92875 
L 132.380625 599.92875 
L 156.380625 599.92875 
" style="fill: none; stroke-dasharray: 14.8,6.4; stroke-dashoffset: 0; stroke: #f57b56; stroke-width: 4"/>
    </g>
    <g id="text_15">
     <!-- NDCT_standard_PSO -->
     <g transform="translate(175.580625 608.32875) scale(0.24 -0.24)">
      <defs>
       <path id="TimesNewRomanPS-BoldMT-4e" d="M 1594 4238 
L 3684 1609 
L 3684 3431 
Q 3684 3813 3575 3947 
Q 3425 4128 3072 4122 
L 3072 4238 
L 4472 4238 
L 4472 4122 
Q 4203 4088 4111 4033 
Q 4019 3978 3967 3854 
Q 3916 3731 3916 3431 
L 3916 -97 
L 3809 -97 
L 944 3431 
L 944 738 
Q 944 372 1111 244 
Q 1278 116 1494 116 
L 1594 116 
L 1594 0 
L 91 0 
L 91 116 
Q 441 119 578 259 
Q 716 400 716 738 
L 716 3728 
L 625 3841 
Q 491 4009 387 4062 
Q 284 4116 91 4122 
L 91 4238 
L 1594 4238 
z
" transform="scale(0.015625)"/>
       <path id="TimesNewRomanPS-BoldMT-44" d="M 84 0 
L 84 116 
L 225 116 
Q 409 116 507 173 
Q 606 231 653 331 
Q 681 397 681 725 
L 681 3513 
Q 681 3838 647 3919 
Q 613 4000 508 4061 
Q 403 4122 225 4122 
L 84 4122 
L 84 4238 
L 1981 4238 
Q 2741 4238 3203 4031 
Q 3769 3778 4061 3265 
Q 4353 2753 4353 2106 
Q 4353 1659 4209 1282 
Q 4066 906 3837 661 
Q 3609 416 3311 267 
Q 3013 119 2581 38 
Q 2391 0 1981 0 
L 84 0 
z
M 1700 3997 
L 1700 691 
Q 1700 428 1725 368 
Q 1750 309 1809 278 
Q 1894 231 2053 231 
Q 2575 231 2850 588 
Q 3225 1069 3225 2081 
Q 3225 2897 2969 3384 
Q 2766 3766 2447 3903 
Q 2222 4000 1700 3997 
z
" transform="scale(0.015625)"/>
       <path id="TimesNewRomanPS-BoldMT-43" d="M 4272 4334 
L 4272 2866 
L 4150 2866 
Q 4013 3441 3638 3747 
Q 3263 4053 2788 4053 
Q 2391 4053 2059 3825 
Q 1728 3597 1575 3228 
Q 1378 2756 1378 2178 
Q 1378 1609 1522 1142 
Q 1666 675 1972 436 
Q 2278 197 2766 197 
Q 3166 197 3498 372 
Q 3831 547 4200 975 
L 4200 609 
Q 3844 238 3458 70 
Q 3072 -97 2556 -97 
Q 1878 -97 1351 175 
Q 825 447 539 956 
Q 253 1466 253 2041 
Q 253 2647 570 3190 
Q 888 3734 1427 4034 
Q 1966 4334 2572 4334 
Q 3019 4334 3516 4141 
Q 3803 4028 3881 4028 
Q 3981 4028 4054 4101 
Q 4128 4175 4150 4334 
L 4272 4334 
z
" transform="scale(0.015625)"/>
       <path id="TimesNewRomanPS-BoldMT-54" d="M 4038 4238 
L 4038 3091 
L 3925 3091 
Q 3825 3488 3703 3661 
Q 3581 3834 3369 3938 
Q 3250 3994 2953 3994 
L 2638 3994 
L 2638 725 
Q 2638 400 2673 319 
Q 2709 238 2814 177 
Q 2919 116 3100 116 
L 3241 116 
L 3241 0 
L 1022 0 
L 1022 116 
L 1163 116 
Q 1347 116 1459 181 
Q 1541 225 1588 331 
Q 1622 406 1622 725 
L 1622 3994 
L 1316 3994 
Q 888 3994 694 3813 
Q 422 3559 350 3091 
L 231 3091 
L 231 4238 
L 4038 4238 
z
" transform="scale(0.015625)"/>
       <path id="TimesNewRomanPS-BoldMT-5f" d="M -59 -972 
L 3259 -972 
L 3259 -1381 
L -59 -1381 
L -59 -972 
z
" transform="scale(0.015625)"/>
       <path id="TimesNewRomanPS-BoldMT-64" d="M 3056 4238 
L 3056 875 
Q 3056 534 3075 472 
Q 3100 369 3170 319 
Q 3241 269 3416 256 
L 3416 153 
L 2181 -88 
L 2181 375 
Q 1959 106 1786 9 
Q 1613 -88 1394 -88 
Q 834 -88 509 413 
Q 247 819 247 1409 
Q 247 1881 409 2254 
Q 572 2628 855 2818 
Q 1138 3009 1463 3009 
Q 1672 3009 1834 2928 
Q 1997 2847 2181 2644 
L 2181 3525 
Q 2181 3859 2153 3928 
Q 2116 4019 2041 4062 
Q 1966 4106 1759 4106 
L 1759 4238 
L 3056 4238 
z
M 2181 2256 
Q 1950 2700 1616 2700 
Q 1500 2700 1425 2638 
Q 1309 2541 1236 2297 
Q 1163 2053 1163 1550 
Q 1163 997 1244 731 
Q 1325 466 1466 347 
Q 1538 288 1663 288 
Q 1938 288 2181 719 
L 2181 2256 
z
" transform="scale(0.015625)"/>
       <path id="TimesNewRomanPS-BoldMT-50" d="M 1728 1919 
L 1728 744 
Q 1728 400 1770 311 
Q 1813 222 1920 169 
Q 2028 116 2316 116 
L 2316 0 
L 163 0 
L 163 116 
Q 456 116 561 170 
Q 666 225 708 312 
Q 750 400 750 744 
L 750 3494 
Q 750 3838 708 3927 
Q 666 4016 559 4069 
Q 453 4122 163 4122 
L 163 4238 
L 2009 4238 
Q 2922 4238 3319 3913 
Q 3716 3588 3716 3100 
Q 3716 2688 3459 2394 
Q 3203 2100 2753 1994 
Q 2450 1919 1728 1919 
z
M 1728 3994 
L 1728 2163 
Q 1831 2156 1884 2156 
Q 2266 2156 2472 2382 
Q 2678 2609 2678 3084 
Q 2678 3556 2472 3775 
Q 2266 3994 1856 3994 
L 1728 3994 
z
" transform="scale(0.015625)"/>
      </defs>
      <use xlink:href="#TimesNewRomanPS-BoldMT-4e"/>
      <use xlink:href="#TimesNewRomanPS-BoldMT-44" transform="translate(72.216797 0)"/>
      <use xlink:href="#TimesNewRomanPS-BoldMT-43" transform="translate(144.433594 0)"/>
      <use xlink:href="#TimesNewRomanPS-BoldMT-54" transform="translate(216.650391 0)"/>
      <use xlink:href="#TimesNewRomanPS-BoldMT-5f" transform="translate(283.349609 0)"/>
      <use xlink:href="#TimesNewRomanPS-BoldMT-73" transform="translate(333.349609 0)"/>
      <use xlink:href="#TimesNewRomanPS-BoldMT-74" transform="translate(372.265625 0)"/>
      <use xlink:href="#TimesNewRomanPS-BoldMT-61" transform="translate(405.566406 0)"/>
      <use xlink:href="#TimesNewRomanPS-BoldMT-6e" transform="translate(455.566406 0)"/>
      <use xlink:href="#TimesNewRomanPS-BoldMT-64" transform="translate(511.181641 0)"/>
      <use xlink:href="#TimesNewRomanPS-BoldMT-61" transform="translate(566.796875 0)"/>
      <use xlink:href="#TimesNewRomanPS-BoldMT-72" transform="translate(616.796875 0)"/>
      <use xlink:href="#TimesNewRomanPS-BoldMT-64" transform="translate(661.181641 0)"/>
      <use xlink:href="#TimesNewRomanPS-BoldMT-5f" transform="translate(716.796875 0)"/>
      <use xlink:href="#TimesNewRomanPS-BoldMT-50" transform="translate(766.796875 0)"/>
      <use xlink:href="#TimesNewRomanPS-BoldMT-53" transform="translate(827.880859 0)"/>
      <use xlink:href="#TimesNewRomanPS-BoldMT-4f" transform="translate(883.496094 0)"/>
     </g>
    </g>
    <g id="line2d_21">
     <path d="M 108.380625 633.9075 
L 132.380625 633.9075 
L 156.380625 633.9075 
" style="fill: none; stroke-dasharray: 25.6,6.4,4,6.4; stroke-dashoffset: 0; stroke: #fdb670; stroke-width: 4"/>
    </g>
    <g id="text_16">
     <!-- NDCT_modified_PSO -->
     <g transform="translate(175.580625 642.3075) scale(0.24 -0.24)">
      <defs>
       <path id="TimesNewRomanPS-BoldMT-6d" d="M 1428 2922 
L 1428 2538 
Q 1669 2800 1873 2904 
Q 2078 3009 2322 3009 
Q 2603 3009 2793 2878 
Q 2984 2747 3088 2478 
Q 3338 2759 3567 2884 
Q 3797 3009 4047 3009 
Q 4350 3009 4529 2870 
Q 4709 2731 4779 2517 
Q 4850 2303 4850 1834 
L 4850 638 
Q 4850 300 4911 219 
Q 4972 138 5166 113 
L 5166 0 
L 3656 0 
L 3656 113 
Q 3834 128 3919 250 
Q 3975 334 3975 638 
L 3975 1894 
Q 3975 2284 3944 2390 
Q 3913 2497 3845 2548 
Q 3778 2600 3688 2600 
Q 3553 2600 3415 2501 
Q 3278 2403 3138 2206 
L 3138 638 
Q 3138 322 3191 241 
Q 3263 125 3466 113 
L 3466 0 
L 1953 0 
L 1953 113 
Q 2075 119 2145 173 
Q 2216 228 2239 304 
Q 2263 381 2263 638 
L 2263 1894 
Q 2263 2291 2231 2391 
Q 2200 2491 2126 2547 
Q 2053 2603 1969 2603 
Q 1844 2603 1741 2538 
Q 1594 2441 1428 2206 
L 1428 638 
Q 1428 328 1489 229 
Q 1550 131 1744 113 
L 1744 0 
L 238 0 
L 238 113 
Q 422 131 500 231 
Q 553 300 553 638 
L 553 2288 
Q 553 2619 492 2700 
Q 431 2781 238 2806 
L 238 2922 
L 1428 2922 
z
" transform="scale(0.015625)"/>
       <path id="TimesNewRomanPS-BoldMT-66" d="M 1497 2616 
L 1497 588 
Q 1497 294 1559 219 
Q 1659 103 1928 113 
L 1928 0 
L 206 0 
L 206 113 
Q 403 116 486 158 
Q 569 200 600 275 
Q 631 350 631 588 
L 631 2616 
L 206 2616 
L 206 2922 
L 631 2922 
L 631 3138 
L 628 3284 
Q 628 3734 958 4034 
Q 1288 4334 1850 4334 
Q 2234 4334 2420 4190 
Q 2606 4047 2606 3872 
Q 2606 3731 2490 3628 
Q 2375 3525 2184 3525 
Q 2022 3525 1926 3609 
Q 1831 3694 1831 3797 
Q 1831 3825 1850 3913 
Q 1863 3966 1863 4013 
Q 1863 4078 1825 4109 
Q 1775 4156 1703 4156 
Q 1613 4156 1552 4081 
Q 1491 4006 1491 3841 
L 1497 3294 
L 1497 2922 
L 1928 2922 
L 1928 2616 
L 1497 2616 
z
" transform="scale(0.015625)"/>
      </defs>
      <use xlink:href="#TimesNewRomanPS-BoldMT-4e"/>
      <use xlink:href="#TimesNewRomanPS-BoldMT-44" transform="translate(72.216797 0)"/>
      <use xlink:href="#TimesNewRomanPS-BoldMT-43" transform="translate(144.433594 0)"/>
      <use xlink:href="#TimesNewRomanPS-BoldMT-54" transform="translate(216.650391 0)"/>
      <use xlink:href="#TimesNewRomanPS-BoldMT-5f" transform="translate(283.349609 0)"/>
      <use xlink:href="#TimesNewRomanPS-BoldMT-6d" transform="translate(333.349609 0)"/>
      <use xlink:href="#TimesNewRomanPS-BoldMT-6f" transform="translate(416.650391 0)"/>
      <use xlink:href="#TimesNewRomanPS-BoldMT-64" transform="translate(466.650391 0)"/>
      <use xlink:href="#TimesNewRomanPS-BoldMT-69" transform="translate(522.265625 0)"/>
      <use xlink:href="#TimesNewRomanPS-BoldMT-66" transform="translate(550.048828 0)"/>
      <use xlink:href="#TimesNewRomanPS-BoldMT-69" transform="translate(583.349609 0)"/>
      <use xlink:href="#TimesNewRomanPS-BoldMT-65" transform="translate(611.132812 0)"/>
      <use xlink:href="#TimesNewRomanPS-BoldMT-64" transform="translate(655.517578 0)"/>
      <use xlink:href="#TimesNewRomanPS-BoldMT-5f" transform="translate(711.132812 0)"/>
      <use xlink:href="#TimesNewRomanPS-BoldMT-50" transform="translate(761.132812 0)"/>
      <use xlink:href="#TimesNewRomanPS-BoldMT-53" transform="translate(822.216797 0)"/>
      <use xlink:href="#TimesNewRomanPS-BoldMT-4f" transform="translate(877.832031 0)"/>
     </g>
    </g>
    <g id="line2d_22">
     <path d="M 108.380625 667.88625 
L 132.380625 667.88625 
L 156.380625 667.88625 
" style="fill: none; stroke-dasharray: 4,6.6; stroke-dashoffset: 0; stroke: #82b5d5; stroke-width: 4"/>
    </g>
    <g id="text_17">
     <!-- DYCORS -->
     <g transform="translate(175.580625 676.28625) scale(0.24 -0.24)">
      <defs>
       <path id="TimesNewRomanPS-BoldMT-59" d="M 4550 4238 
L 4550 4122 
Q 4341 4094 4228 4000 
Q 4072 3869 3734 3284 
L 2816 1750 
L 2816 725 
Q 2816 397 2850 317 
Q 2884 238 2986 177 
Q 3088 116 3256 116 
L 3494 116 
L 3494 0 
L 1116 0 
L 1116 116 
L 1338 116 
Q 1525 116 1634 181 
Q 1716 225 1763 331 
Q 1797 406 1797 725 
L 1797 1575 
L 800 3391 
Q 503 3928 381 4023 
Q 259 4119 56 4122 
L 56 4238 
L 2088 4238 
L 2088 4122 
L 1997 4122 
Q 1813 4122 1739 4069 
Q 1666 4016 1666 3956 
Q 1666 3844 1916 3391 
L 2681 1988 
L 3444 3266 
Q 3728 3734 3728 3888 
Q 3728 3972 3647 4028 
Q 3541 4106 3256 4122 
L 3256 4238 
L 4550 4238 
z
" transform="scale(0.015625)"/>
      </defs>
      <use xlink:href="#TimesNewRomanPS-BoldMT-44"/>
      <use xlink:href="#TimesNewRomanPS-BoldMT-59" transform="translate(72.216797 0)"/>
      <use xlink:href="#TimesNewRomanPS-BoldMT-43" transform="translate(144.433594 0)"/>
      <use xlink:href="#TimesNewRomanPS-BoldMT-4f" transform="translate(216.650391 0)"/>
      <use xlink:href="#TimesNewRomanPS-BoldMT-52" transform="translate(294.433594 0)"/>
      <use xlink:href="#TimesNewRomanPS-BoldMT-53" transform="translate(366.650391 0)"/>
     </g>
    </g>
    <g id="line2d_23">
     <path d="M 108.380625 701.82 
L 132.380625 701.82 
L 156.380625 701.82 
" style="fill: none; stroke: #4db6ac; stroke-width: 4; stroke-linecap: square"/>
    </g>
    <g id="text_18">
     <!-- COBYLA -->
     <g transform="translate(175.580625 710.22) scale(0.24 -0.24)">
      <defs>
       <path id="TimesNewRomanPS-BoldMT-4c" d="M 4041 1488 
L 3881 0 
L 119 0 
L 119 116 
L 259 116 
Q 444 116 556 181 
Q 638 225 681 331 
Q 716 406 716 725 
L 716 3513 
Q 716 3838 681 3919 
Q 647 4000 542 4061 
Q 438 4122 259 4122 
L 119 4122 
L 119 4238 
L 2378 4238 
L 2378 4122 
L 2194 4122 
Q 2009 4122 1897 4056 
Q 1816 4013 1769 3906 
Q 1734 3831 1734 3513 
L 1734 813 
Q 1734 488 1771 398 
Q 1809 309 1919 266 
Q 1997 238 2297 238 
L 2650 238 
Q 2988 238 3213 356 
Q 3438 475 3602 731 
Q 3766 988 3913 1488 
L 4041 1488 
z
" transform="scale(0.015625)"/>
       <path id="TimesNewRomanPS-BoldMT-41" d="M 2663 1206 
L 1166 1206 
L 988 794 
Q 900 588 900 453 
Q 900 275 1044 191 
Q 1128 141 1459 116 
L 1459 0 
L 50 0 
L 50 116 
Q 278 150 425 304 
Q 572 459 788 944 
L 2303 4325 
L 2363 4325 
L 3891 850 
Q 4109 356 4250 228 
Q 4356 131 4550 116 
L 4550 0 
L 2500 0 
L 2500 116 
L 2584 116 
Q 2831 116 2931 184 
Q 3000 234 3000 328 
Q 3000 384 2981 444 
Q 2975 472 2888 678 
L 2663 1206 
z
M 2556 1438 
L 1925 2897 
L 1275 1438 
L 2556 1438 
z
" transform="scale(0.015625)"/>
      </defs>
      <use xlink:href="#TimesNewRomanPS-BoldMT-43"/>
      <use xlink:href="#TimesNewRomanPS-BoldMT-4f" transform="translate(72.216797 0)"/>
      <use xlink:href="#TimesNewRomanPS-BoldMT-42" transform="translate(150 0)"/>
      <use xlink:href="#TimesNewRomanPS-BoldMT-59" transform="translate(216.699219 0)"/>
      <use xlink:href="#TimesNewRomanPS-BoldMT-4c" transform="translate(288.916016 0)"/>
      <use xlink:href="#TimesNewRomanPS-BoldMT-41" transform="translate(355.615234 0)"/>
     </g>
    </g>
    <g id="line2d_24">
     <path d="M 108.380625 735.75375 
L 132.380625 735.75375 
L 156.380625 735.75375 
" style="fill: none; stroke-dasharray: 14.8,6.4; stroke-dashoffset: 0; stroke: #5682bb; stroke-width: 4"/>
    </g>
    <g id="text_19">
     <!-- COBYQA -->
     <g transform="translate(175.580625 744.15375) scale(0.24 -0.24)">
      <defs>
       <path id="TimesNewRomanPS-BoldMT-51" d="M 3059 -38 
Q 3203 -453 3506 -662 
Q 3809 -872 4266 -872 
Q 4391 -872 4531 -847 
L 4531 -1038 
Q 4059 -1156 3688 -1156 
Q 3106 -1156 2648 -872 
Q 2191 -588 1959 -38 
Q 1191 125 720 715 
Q 250 1306 250 2125 
Q 250 3075 887 3704 
Q 1525 4334 2506 4334 
Q 3484 4334 4118 3703 
Q 4753 3072 4753 2125 
Q 4753 1300 4256 690 
Q 3759 81 3059 -38 
z
M 2503 4097 
Q 1941 4097 1634 3513 
Q 1378 3022 1378 2116 
Q 1378 1028 1763 503 
Q 2031 138 2503 138 
Q 2978 138 3244 497 
Q 3628 1013 3628 2047 
Q 3628 3066 3388 3522 
Q 3088 4097 2503 4097 
z
" transform="scale(0.015625)"/>
      </defs>
      <use xlink:href="#TimesNewRomanPS-BoldMT-43"/>
      <use xlink:href="#TimesNewRomanPS-BoldMT-4f" transform="translate(72.216797 0)"/>
      <use xlink:href="#TimesNewRomanPS-BoldMT-42" transform="translate(150 0)"/>
      <use xlink:href="#TimesNewRomanPS-BoldMT-59" transform="translate(216.699219 0)"/>
      <use xlink:href="#TimesNewRomanPS-BoldMT-51" transform="translate(288.916016 0)"/>
      <use xlink:href="#TimesNewRomanPS-BoldMT-41" transform="translate(366.699219 0)"/>
     </g>
    </g>
    <g id="line2d_25">
     <path d="M 108.380625 769.6875 
L 132.380625 769.6875 
L 156.380625 769.6875 
" style="fill: none; stroke-dasharray: 25.6,6.4,4,6.4; stroke-dashoffset: 0; stroke: #454a9f; stroke-width: 4"/>
    </g>
    <g id="text_20">
     <!-- opt_CUATRO -->
     <g transform="translate(175.580625 778.0875) scale(0.24 -0.24)">
      <defs>
       <path id="TimesNewRomanPS-BoldMT-70" d="M 1347 297 
L 1347 -791 
Q 1347 -1016 1383 -1097 
Q 1419 -1178 1494 -1215 
Q 1569 -1253 1788 -1253 
L 1788 -1369 
L 122 -1369 
L 122 -1253 
Q 316 -1247 409 -1144 
Q 472 -1072 472 -772 
L 472 2313 
Q 472 2622 400 2708 
Q 328 2794 122 2806 
L 122 2922 
L 1347 2922 
L 1347 2538 
Q 1500 2763 1659 2863 
Q 1888 3009 2156 3009 
Q 2478 3009 2742 2806 
Q 3006 2603 3143 2245 
Q 3281 1888 3281 1475 
Q 3281 1031 3139 664 
Q 2997 297 2726 104 
Q 2456 -88 2125 -88 
Q 1884 -88 1675 19 
Q 1519 100 1347 297 
z
M 1347 613 
Q 1616 231 1922 231 
Q 2091 231 2200 409 
Q 2363 672 2363 1409 
Q 2363 2166 2184 2444 
Q 2066 2628 1866 2628 
Q 1550 2628 1347 2172 
L 1347 613 
z
" transform="scale(0.015625)"/>
       <path id="TimesNewRomanPS-BoldMT-55" d="M 150 4238 
L 2338 4238 
L 2338 4122 
L 2228 4122 
Q 1981 4122 1889 4070 
Q 1797 4019 1758 3928 
Q 1719 3838 1719 3475 
L 1719 1400 
Q 1719 831 1805 647 
Q 1891 463 2087 341 
Q 2284 219 2584 219 
Q 2928 219 3170 373 
Q 3413 528 3533 800 
Q 3653 1072 3653 1747 
L 3653 3475 
Q 3653 3759 3593 3881 
Q 3534 4003 3444 4050 
Q 3303 4122 3047 4122 
L 3047 4238 
L 4513 4238 
L 4513 4122 
L 4425 4122 
Q 4247 4122 4128 4050 
Q 4009 3978 3956 3834 
Q 3916 3734 3916 3475 
L 3916 1866 
Q 3916 1119 3817 787 
Q 3719 456 3337 178 
Q 2956 -100 2297 -100 
Q 1747 -100 1447 47 
Q 1038 247 869 559 
Q 700 872 700 1400 
L 700 3475 
Q 700 3841 659 3930 
Q 619 4019 519 4072 
Q 419 4125 150 4122 
L 150 4238 
z
" transform="scale(0.015625)"/>
      </defs>
      <use xlink:href="#TimesNewRomanPS-BoldMT-6f"/>
      <use xlink:href="#TimesNewRomanPS-BoldMT-70" transform="translate(50 0)"/>
      <use xlink:href="#TimesNewRomanPS-BoldMT-74" transform="translate(105.615234 0)"/>
      <use xlink:href="#TimesNewRomanPS-BoldMT-5f" transform="translate(138.916016 0)"/>
      <use xlink:href="#TimesNewRomanPS-BoldMT-43" transform="translate(188.916016 0)"/>
      <use xlink:href="#TimesNewRomanPS-BoldMT-55" transform="translate(261.132812 0)"/>
      <use xlink:href="#TimesNewRomanPS-BoldMT-41" transform="translate(333.349609 0)"/>
      <use xlink:href="#TimesNewRomanPS-BoldMT-54" transform="translate(398.191406 0)"/>
      <use xlink:href="#TimesNewRomanPS-BoldMT-52" transform="translate(464.890625 0)"/>
      <use xlink:href="#TimesNewRomanPS-BoldMT-4f" transform="translate(537.107422 0)"/>
     </g>
    </g>
    <g id="line2d_26">
     <path d="M 108.380625 803.66625 
L 132.380625 803.66625 
L 156.380625 803.66625 
" style="fill: none; stroke-dasharray: 4,6.6; stroke-dashoffset: 0; stroke: #8e44ad; stroke-width: 4"/>
    </g>
    <g id="text_21">
     <!-- ENTMOOT -->
     <g transform="translate(175.580625 812.06625) scale(0.24 -0.24)">
      <defs>
       <path id="TimesNewRomanPS-BoldMT-45" d="M 1744 3994 
L 1744 2269 
L 1828 2269 
Q 2231 2269 2412 2522 
Q 2594 2775 2644 3269 
L 2763 3269 
L 2763 1050 
L 2644 1050 
Q 2606 1413 2486 1644 
Q 2366 1875 2206 1954 
Q 2047 2034 1744 2034 
L 1744 841 
Q 1744 491 1773 412 
Q 1803 334 1884 284 
Q 1966 234 2147 234 
L 2400 234 
Q 2994 234 3351 509 
Q 3709 784 3866 1347 
L 3981 1347 
L 3791 0 
L 128 0 
L 128 116 
L 269 116 
Q 453 116 566 181 
Q 647 225 691 331 
Q 725 406 725 725 
L 725 3513 
Q 725 3800 709 3866 
Q 678 3975 594 4034 
Q 475 4122 269 4122 
L 128 4122 
L 128 4238 
L 3675 4238 
L 3675 2984 
L 3556 2984 
Q 3466 3444 3302 3644 
Q 3138 3844 2838 3938 
Q 2663 3994 2181 3994 
L 1744 3994 
z
" transform="scale(0.015625)"/>
       <path id="TimesNewRomanPS-BoldMT-4d" d="M 3050 1444 
L 4200 4238 
L 5925 4238 
L 5925 4122 
L 5788 4122 
Q 5600 4122 5488 4056 
Q 5409 4013 5363 3909 
Q 5328 3834 5328 3519 
L 5328 725 
Q 5328 400 5362 319 
Q 5397 238 5503 177 
Q 5609 116 5788 116 
L 5925 116 
L 5925 0 
L 3713 0 
L 3713 116 
L 3850 116 
Q 4038 116 4150 181 
Q 4228 225 4275 331 
Q 4309 406 4309 725 
L 4309 3866 
L 2684 0 
L 2609 0 
L 959 3838 
L 959 853 
Q 959 541 975 469 
Q 1016 313 1152 214 
Q 1288 116 1578 116 
L 1578 0 
L 128 0 
L 128 116 
L 172 116 
Q 313 113 434 161 
Q 556 209 618 290 
Q 681 372 716 519 
Q 722 553 722 838 
L 722 3519 
Q 722 3841 687 3920 
Q 653 4000 547 4061 
Q 441 4122 263 4122 
L 128 4122 
L 128 4238 
L 1859 4238 
L 3050 1444 
z
" transform="scale(0.015625)"/>
      </defs>
      <use xlink:href="#TimesNewRomanPS-BoldMT-45"/>
      <use xlink:href="#TimesNewRomanPS-BoldMT-4e" transform="translate(66.699219 0)"/>
      <use xlink:href="#TimesNewRomanPS-BoldMT-54" transform="translate(138.916016 0)"/>
      <use xlink:href="#TimesNewRomanPS-BoldMT-4d" transform="translate(205.615234 0)"/>
      <use xlink:href="#TimesNewRomanPS-BoldMT-4f" transform="translate(300 0)"/>
      <use xlink:href="#TimesNewRomanPS-BoldMT-4f" transform="translate(377.783203 0)"/>
      <use xlink:href="#TimesNewRomanPS-BoldMT-54" transform="translate(455.566406 0)"/>
     </g>
    </g>
   </g>
  </g>
 </g>
 <defs>
  <clipPath id="pc823a8f0cc">
   <rect x="86.780625" y="7.2" width="837" height="831.6"/>
  </clipPath>
 </defs>
</svg>
