<?xml version="1.0" encoding="utf-8" standalone="no"?>
<!DOCTYPE svg PUBLIC "-//W3C//DTD SVG 1.1//EN"
  "http://www.w3.org/Graphics/SVG/1.1/DTD/svg11.dtd">
<svg xmlns:xlink="http://www.w3.org/1999/xlink" width="451.8575pt" height="435.734993pt" viewBox="0 0 451.8575 435.734993" xmlns="http://www.w3.org/2000/svg" version="1.1">
 <metadata>
  <rdf:RDF xmlns:dc="http://purl.org/dc/elements/1.1/" xmlns:cc="http://creativecommons.org/ns#" xmlns:rdf="http://www.w3.org/1999/02/22-rdf-syntax-ns#">
   <cc:Work>
    <dc:type rdf:resource="http://purl.org/dc/dcmitype/StillImage"/>
    <dc:date>2025-10-15T12:38:02.986593</dc:date>
    <dc:format>image/svg+xml</dc:format>
    <dc:creator>
     <cc:Agent>
      <dc:title>Matplotlib v3.9.4, https://matplotlib.org/</dc:title>
     </cc:Agent>
    </dc:creator>
   </cc:Work>
  </rdf:RDF>
 </metadata>
 <defs>
  <style type="text/css">*{stroke-linejoin: round; stroke-linecap: butt}</style>
 </defs>
 <g id="figure_1">
  <g id="patch_1">
   <path d="M 0 435.734993 
L 451.8575 435.734993 
L 451.8575 0 
L 0 0 
z
" style="fill: #ffffff"/>
  </g>
  <g id="axes_1">
   <g id="patch_2">
    <path d="M 54.0575 396.504368 
L 444.6575 396.504368 
L 444.6575 8.424368 
L 54.0575 8.424368 
z
" style="fill: #ffffff"/>
   </g>
   <g id="line2d_1">
    <path d="M 71.812045 150.543064 
L 90.501041 149.775163 
L 109.190036 118.379972 
L 127.879031 181.690063 
L 146.568026 158.883915 
L 165.257022 153.443683 
L 183.946017 152.198772 
L 202.635012 121.286589 
L 221.324007 117.376565 
L 240.013002 141.572532 
L 258.701998 144.88125 
L 277.390993 118.548712 
L 296.079988 84.171235 
L 314.768983 147.444305 
L 333.457978 119.768141 
L 352.146974 170.07922 
L 370.835969 143.602015 
L 389.524964 118.741564 
L 408.213959 164.950676 
L 426.902955 116.971663 
" clip-path="url(#pc839fb94f9)" style="fill: none; stroke: #db443c; stroke-opacity: 0.9; stroke-width: 2; stroke-linecap: square"/>
   </g>
   <g id="line2d_2">
    <path d="M 71.812045 160.51474 
L 90.501041 140.579725 
L 109.190036 130.886324 
L 127.879031 102.686675 
L 146.568026 55.701644 
L 165.257022 101.679582 
L 183.946017 174.869828 
L 202.635012 105.041584 
L 221.324007 26.064368 
L 240.013002 162.477288 
L 258.701998 119.651434 
L 277.390993 181.916543 
L 296.079988 83.356466 
L 314.768983 139.969757 
L 333.457978 108.744832 
L 352.146974 101.121688 
L 370.835969 125.071737 
L 389.524964 109.066689 
L 408.213959 124.604232 
L 426.902955 109.327603 
" clip-path="url(#pc839fb94f9)" style="fill: none; stroke: #5682bb; stroke-opacity: 0.9; stroke-width: 2; stroke-linecap: square"/>
   </g>
   <g id="line2d_3">
    <path d="M 71.812045 168.207401 
L 90.501041 200.162921 
L 109.190036 124.265934 
L 127.879031 193.592804 
L 146.568026 199.641096 
L 165.257022 163.743996 
L 183.946017 211.309413 
L 202.635012 132.461281 
L 221.324007 214.535984 
L 240.013002 192.958819 
L 258.701998 262.65359 
L 277.390993 167.021933 
L 296.079988 114.229203 
L 314.768983 187.921278 
L 333.457978 204.318558 
L 352.146974 157.676401 
L 370.835969 166.486961 
L 389.524964 136.313589 
L 408.213959 181.680349 
L 426.902955 183.513241 
" clip-path="url(#pc839fb94f9)" style="fill: none; stroke: #fdb670; stroke-opacity: 0.9; stroke-width: 2; stroke-linecap: square"/>
   </g>
   <g id="line2d_4">
    <path d="M 71.812045 289.22479 
L 90.501041 183.585691 
L 109.190036 114.785616 
L 127.879031 201.126512 
L 146.568026 163.246297 
L 165.257022 263.012834 
L 183.946017 219.777646 
L 202.635012 162.045582 
L 221.324007 166.130128 
L 240.013002 213.972027 
L 258.701998 171.252237 
L 277.390993 168.766114 
L 296.079988 105.268733 
L 314.768983 368.651423 
L 333.457978 153.501377 
L 352.146974 252.065414 
L 370.835969 265.775338 
L 389.524964 141.041955 
L 408.213959 187.703747 
L 426.902955 178.257574 
" clip-path="url(#pc839fb94f9)" style="fill: none; stroke: #82b5d5; stroke-opacity: 0.9; stroke-width: 2; stroke-linecap: square"/>
   </g>
   <g id="line2d_5">
    <path d="M 71.812045 252.705376 
L 90.501041 315.967899 
L 109.190036 272.948932 
L 127.879031 242.036558 
L 146.568026 245.538534 
L 165.257022 244.307382 
L 183.946017 254.456784 
L 202.635012 217.529698 
L 221.324007 278.130878 
L 240.013002 248.787158 
L 258.701998 261.73577 
L 277.390993 240.250105 
L 296.079988 196.410525 
L 314.768983 378.864368 
L 333.457978 261.015845 
L 352.146974 244.183426 
L 370.835969 250.81656 
L 389.524964 202.068675 
L 408.213959 320.983143 
L 426.902955 279.64457 
" clip-path="url(#pc839fb94f9)" style="fill: none; stroke: #f57b56; stroke-opacity: 0.9; stroke-width: 2.5; stroke-linecap: square"/>
   </g>
   <g id="line2d_6">
    <path d="M 71.812045 100.230557 
L 90.501041 144.022752 
L 109.190036 77.547247 
L 127.879031 100.518652 
L 146.568026 109.122823 
L 165.257022 110.757725 
L 183.946017 136.397259 
L 202.635012 87.729375 
L 221.324007 252.92511 
L 240.013002 142.545089 
L 258.701998 179.867833 
L 277.390993 84.905474 
L 296.079988 75.936786 
L 314.768983 147.578362 
L 333.457978 138.162662 
L 352.146974 111.747064 
L 370.835969 108.893552 
L 389.524964 96.515779 
L 408.213959 134.708563 
L 426.902955 113.481148 
" clip-path="url(#pc839fb94f9)" style="fill: none; stroke: #454a9f; stroke-opacity: 0.9; stroke-width: 2; stroke-linecap: square"/>
   </g>
   <g id="matplotlib.axis_1">
    <g id="xtick_1">
     <g id="line2d_7">
      <defs>
       <path id="m62fb9ba9a0" d="M 0 0 
L 0 -3.5 
" style="stroke: #000000; stroke-width: 1.5"/>
      </defs>
      <g>
       <use xlink:href="#m62fb9ba9a0" x="109.190036" y="396.504368" style="stroke: #000000; stroke-width: 1.5"/>
      </g>
     </g>
     <g id="text_1">
      <!-- 2 -->
      <g transform="translate(105.690036 409.274993) scale(0.14 -0.14)">
       <defs>
        <path id="TimesNewRomanPS-BoldMT-32" d="M 2650 0 
L 156 0 
L 156 69 
Q 1303 1434 1548 1906 
Q 1794 2378 1794 2828 
Q 1794 3156 1591 3373 
Q 1388 3591 1094 3591 
Q 613 3591 347 3109 
L 231 3150 
Q 400 3750 744 4037 
Q 1088 4325 1538 4325 
Q 1859 4325 2125 4175 
Q 2391 4025 2541 3764 
Q 2691 3503 2691 3275 
Q 2691 2859 2459 2431 
Q 2144 1853 1081 819 
L 1997 819 
Q 2334 819 2436 847 
Q 2538 875 2603 942 
Q 2669 1009 2775 1225 
L 2888 1225 
L 2650 0 
z
" transform="scale(0.015625)"/>
       </defs>
       <use xlink:href="#TimesNewRomanPS-BoldMT-32"/>
      </g>
     </g>
    </g>
    <g id="xtick_2">
     <g id="line2d_8">
      <g>
       <use xlink:href="#m62fb9ba9a0" x="146.568026" y="396.504368" style="stroke: #000000; stroke-width: 1.5"/>
      </g>
     </g>
     <g id="text_2">
      <!-- 4 -->
      <g transform="translate(143.068026 409.274993) scale(0.14 -0.14)">
       <defs>
        <path id="TimesNewRomanPS-BoldMT-34" d="M 159 1597 
L 2172 4325 
L 2553 4325 
L 2553 1597 
L 2941 1597 
L 2941 950 
L 2553 950 
L 2553 0 
L 1694 0 
L 1694 950 
L 159 950 
L 159 1597 
z
M 463 1597 
L 1694 1597 
L 1694 3269 
L 463 1597 
z
" transform="scale(0.015625)"/>
       </defs>
       <use xlink:href="#TimesNewRomanPS-BoldMT-34"/>
      </g>
     </g>
    </g>
    <g id="xtick_3">
     <g id="line2d_9">
      <g>
       <use xlink:href="#m62fb9ba9a0" x="183.946017" y="396.504368" style="stroke: #000000; stroke-width: 1.5"/>
      </g>
     </g>
     <g id="text_3">
      <!-- 6 -->
      <g transform="translate(180.446017 409.274993) scale(0.14 -0.14)">
       <defs>
        <path id="TimesNewRomanPS-BoldMT-36" d="M 3006 4325 
L 3006 4238 
Q 2441 4094 2098 3867 
Q 1756 3641 1557 3317 
Q 1359 2994 1250 2516 
Q 1388 2609 1478 2638 
Q 1681 2700 1888 2700 
Q 2363 2700 2680 2354 
Q 2997 2009 2997 1413 
Q 2997 994 2825 644 
Q 2653 294 2337 103 
Q 2022 -88 1663 -88 
Q 1272 -88 940 126 
Q 609 341 423 753 
Q 238 1166 238 1650 
Q 238 2363 580 2977 
Q 922 3591 1551 3955 
Q 2181 4319 3006 4325 
z
M 1209 2263 
Q 1184 1831 1184 1631 
Q 1184 1200 1267 797 
Q 1350 394 1494 231 
Q 1597 116 1738 116 
Q 1881 116 1993 283 
Q 2106 450 2106 963 
Q 2106 1825 1897 2153 
Q 1763 2366 1534 2366 
Q 1409 2366 1209 2263 
z
" transform="scale(0.015625)"/>
       </defs>
       <use xlink:href="#TimesNewRomanPS-BoldMT-36"/>
      </g>
     </g>
    </g>
    <g id="xtick_4">
     <g id="line2d_10">
      <g>
       <use xlink:href="#m62fb9ba9a0" x="221.324007" y="396.504368" style="stroke: #000000; stroke-width: 1.5"/>
      </g>
     </g>
     <g id="text_4">
      <!-- 8 -->
      <g transform="translate(217.824007 409.274993) scale(0.14 -0.14)">
       <defs>
        <path id="TimesNewRomanPS-BoldMT-38" d="M 2181 2394 
Q 2628 2066 2801 1783 
Q 2975 1500 2975 1134 
Q 2975 622 2589 267 
Q 2203 -88 1541 -88 
Q 913 -88 569 221 
Q 225 531 225 978 
Q 225 1319 423 1575 
Q 622 1831 1084 2044 
Q 581 2428 439 2672 
Q 297 2916 297 3238 
Q 297 3663 658 3986 
Q 1019 4309 1647 4309 
Q 2253 4309 2579 4023 
Q 2906 3738 2906 3338 
Q 2906 3038 2729 2808 
Q 2553 2578 2181 2394 
z
M 1944 2553 
Q 2059 2709 2115 2903 
Q 2172 3097 2172 3328 
Q 2172 3734 1997 3950 
Q 1866 4116 1634 4116 
Q 1425 4116 1278 3964 
Q 1131 3813 1131 3588 
Q 1131 3359 1295 3114 
Q 1459 2869 1944 2553 
z
M 1319 1894 
Q 1222 1806 1181 1734 
Q 1119 1625 1069 1415 
Q 1019 1206 1019 978 
Q 1019 684 1094 486 
Q 1169 288 1308 200 
Q 1447 113 1594 113 
Q 1822 113 1978 280 
Q 2134 447 2134 738 
Q 2134 1344 1319 1894 
z
" transform="scale(0.015625)"/>
       </defs>
       <use xlink:href="#TimesNewRomanPS-BoldMT-38"/>
      </g>
     </g>
    </g>
    <g id="xtick_5">
     <g id="line2d_11">
      <g>
       <use xlink:href="#m62fb9ba9a0" x="258.701998" y="396.504368" style="stroke: #000000; stroke-width: 1.5"/>
      </g>
     </g>
     <g id="text_5">
      <!-- 10 -->
      <g transform="translate(251.701998 409.274993) scale(0.14 -0.14)">
       <defs>
        <path id="TimesNewRomanPS-BoldMT-31" d="M 2084 4325 
L 2084 859 
Q 2084 469 2118 361 
Q 2153 253 2262 184 
Q 2372 116 2613 116 
L 2709 116 
L 2709 0 
L 478 0 
L 478 116 
L 591 116 
Q 863 116 978 178 
Q 1094 241 1134 350 
Q 1175 459 1175 859 
L 1175 3056 
Q 1175 3350 1147 3423 
Q 1119 3497 1042 3548 
Q 966 3600 866 3600 
Q 706 3600 478 3500 
L 422 3613 
L 1981 4325 
L 2084 4325 
z
" transform="scale(0.015625)"/>
        <path id="TimesNewRomanPS-BoldMT-30" d="M 2966 2119 
Q 2966 1484 2788 934 
Q 2681 597 2501 381 
Q 2322 166 2094 39 
Q 1866 -88 1597 -88 
Q 1291 -88 1044 68 
Q 797 225 606 516 
Q 469 728 366 1081 
Q 231 1559 231 2069 
Q 231 2759 425 3338 
Q 584 3816 909 4070 
Q 1234 4325 1597 4325 
Q 1966 4325 2286 4073 
Q 2606 3822 2756 3397 
Q 2966 2813 2966 2119 
z
M 2003 2125 
Q 2003 3238 1991 3422 
Q 1959 3856 1841 4009 
Q 1763 4109 1588 4109 
Q 1453 4109 1375 4034 
Q 1259 3925 1218 3648 
Q 1178 3372 1178 1719 
Q 1178 819 1241 513 
Q 1288 291 1375 216 
Q 1463 141 1606 141 
Q 1763 141 1841 241 
Q 1972 416 1991 781 
L 2003 2125 
z
" transform="scale(0.015625)"/>
       </defs>
       <use xlink:href="#TimesNewRomanPS-BoldMT-31"/>
       <use xlink:href="#TimesNewRomanPS-BoldMT-30" x="50"/>
      </g>
     </g>
    </g>
    <g id="xtick_6">
     <g id="line2d_12">
      <g>
       <use xlink:href="#m62fb9ba9a0" x="296.079988" y="396.504368" style="stroke: #000000; stroke-width: 1.5"/>
      </g>
     </g>
     <g id="text_6">
      <!-- 12 -->
      <g transform="translate(289.079988 409.274993) scale(0.14 -0.14)">
       <use xlink:href="#TimesNewRomanPS-BoldMT-31"/>
       <use xlink:href="#TimesNewRomanPS-BoldMT-32" x="50"/>
      </g>
     </g>
    </g>
    <g id="xtick_7">
     <g id="line2d_13">
      <g>
       <use xlink:href="#m62fb9ba9a0" x="333.457978" y="396.504368" style="stroke: #000000; stroke-width: 1.5"/>
      </g>
     </g>
     <g id="text_7">
      <!-- 14 -->
      <g transform="translate(326.457978 409.274993) scale(0.14 -0.14)">
       <use xlink:href="#TimesNewRomanPS-BoldMT-31"/>
       <use xlink:href="#TimesNewRomanPS-BoldMT-34" x="50"/>
      </g>
     </g>
    </g>
    <g id="xtick_8">
     <g id="line2d_14">
      <g>
       <use xlink:href="#m62fb9ba9a0" x="370.835969" y="396.504368" style="stroke: #000000; stroke-width: 1.5"/>
      </g>
     </g>
     <g id="text_8">
      <!-- 16 -->
      <g transform="translate(363.835969 409.274993) scale(0.14 -0.14)">
       <use xlink:href="#TimesNewRomanPS-BoldMT-31"/>
       <use xlink:href="#TimesNewRomanPS-BoldMT-36" x="50"/>
      </g>
     </g>
    </g>
    <g id="xtick_9">
     <g id="line2d_15">
      <g>
       <use xlink:href="#m62fb9ba9a0" x="408.213959" y="396.504368" style="stroke: #000000; stroke-width: 1.5"/>
      </g>
     </g>
     <g id="text_9">
      <!-- 18 -->
      <g transform="translate(401.213959 409.274993) scale(0.14 -0.14)">
       <use xlink:href="#TimesNewRomanPS-BoldMT-31"/>
       <use xlink:href="#TimesNewRomanPS-BoldMT-38" x="50"/>
      </g>
     </g>
    </g>
    <g id="text_10">
     <!-- Cases -->
     <g transform="translate(232.245781 425.540305) scale(0.14 -0.14)">
      <defs>
       <path id="TimesNewRomanPS-BoldMT-43" d="M 4272 4334 
L 4272 2866 
L 4150 2866 
Q 4013 3441 3638 3747 
Q 3263 4053 2788 4053 
Q 2391 4053 2059 3825 
Q 1728 3597 1575 3228 
Q 1378 2756 1378 2178 
Q 1378 1609 1522 1142 
Q 1666 675 1972 436 
Q 2278 197 2766 197 
Q 3166 197 3498 372 
Q 3831 547 4200 975 
L 4200 609 
Q 3844 238 3458 70 
Q 3072 -97 2556 -97 
Q 1878 -97 1351 175 
Q 825 447 539 956 
Q 253 1466 253 2041 
Q 253 2647 570 3190 
Q 888 3734 1427 4034 
Q 1966 4334 2572 4334 
Q 3019 4334 3516 4141 
Q 3803 4028 3881 4028 
Q 3981 4028 4054 4101 
Q 4128 4175 4150 4334 
L 4272 4334 
z
" transform="scale(0.015625)"/>
       <path id="TimesNewRomanPS-BoldMT-61" d="M 1828 431 
Q 1294 -41 869 -41 
Q 619 -41 453 123 
Q 288 288 288 534 
Q 288 869 575 1136 
Q 863 1403 1828 1847 
L 1828 2141 
Q 1828 2472 1792 2558 
Q 1756 2644 1656 2708 
Q 1556 2772 1431 2772 
Q 1228 2772 1097 2681 
Q 1016 2625 1016 2550 
Q 1016 2484 1103 2388 
Q 1222 2253 1222 2128 
Q 1222 1975 1108 1867 
Q 994 1759 809 1759 
Q 613 1759 480 1878 
Q 347 1997 347 2156 
Q 347 2381 525 2586 
Q 703 2791 1022 2900 
Q 1341 3009 1684 3009 
Q 2100 3009 2342 2832 
Q 2584 2656 2656 2450 
Q 2700 2319 2700 1847 
L 2700 713 
Q 2700 513 2715 461 
Q 2731 409 2762 384 
Q 2794 359 2834 359 
Q 2916 359 3000 475 
L 3094 400 
Q 2938 169 2770 64 
Q 2603 -41 2391 -41 
Q 2141 -41 2000 76 
Q 1859 194 1828 431 
z
M 1828 659 
L 1828 1638 
Q 1450 1416 1266 1163 
Q 1144 994 1144 822 
Q 1144 678 1247 569 
Q 1325 484 1466 484 
Q 1622 484 1828 659 
z
" transform="scale(0.015625)"/>
       <path id="TimesNewRomanPS-BoldMT-73" d="M 2063 3003 
L 2109 2006 
L 2003 2006 
Q 1813 2450 1608 2612 
Q 1403 2775 1200 2775 
Q 1072 2775 981 2689 
Q 891 2603 891 2491 
Q 891 2406 953 2328 
Q 1053 2200 1512 1889 
Q 1972 1578 2117 1361 
Q 2263 1144 2263 875 
Q 2263 631 2141 397 
Q 2019 163 1797 37 
Q 1575 -88 1306 -88 
Q 1097 -88 747 44 
Q 653 78 619 78 
Q 516 78 447 -78 
L 344 -78 
L 294 972 
L 400 972 
Q 541 559 786 353 
Q 1031 147 1250 147 
Q 1400 147 1495 239 
Q 1591 331 1591 463 
Q 1591 613 1497 722 
Q 1403 831 1078 1053 
Q 600 1384 459 1559 
Q 253 1816 253 2125 
Q 253 2463 486 2736 
Q 719 3009 1159 3009 
Q 1397 3009 1619 2894 
Q 1703 2847 1756 2847 
Q 1813 2847 1847 2870 
Q 1881 2894 1956 3003 
L 2063 3003 
z
" transform="scale(0.015625)"/>
       <path id="TimesNewRomanPS-BoldMT-65" d="M 2691 1566 
L 1088 1566 
Q 1116 984 1397 647 
Q 1613 388 1916 388 
Q 2103 388 2256 492 
Q 2409 597 2584 869 
L 2691 800 
Q 2453 316 2165 114 
Q 1878 -88 1500 -88 
Q 850 -88 516 413 
Q 247 816 247 1413 
Q 247 2144 642 2576 
Q 1038 3009 1569 3009 
Q 2013 3009 2339 2645 
Q 2666 2281 2691 1566 
z
M 1922 1775 
Q 1922 2278 1867 2465 
Q 1813 2653 1697 2750 
Q 1631 2806 1522 2806 
Q 1359 2806 1256 2647 
Q 1072 2369 1072 1884 
L 1072 1775 
L 1922 1775 
z
" transform="scale(0.015625)"/>
      </defs>
      <use xlink:href="#TimesNewRomanPS-BoldMT-43"/>
      <use xlink:href="#TimesNewRomanPS-BoldMT-61" x="72.216797"/>
      <use xlink:href="#TimesNewRomanPS-BoldMT-73" x="122.216797"/>
      <use xlink:href="#TimesNewRomanPS-BoldMT-65" x="161.132812"/>
      <use xlink:href="#TimesNewRomanPS-BoldMT-73" x="205.517578"/>
     </g>
    </g>
   </g>
   <g id="matplotlib.axis_2">
    <g id="ytick_1">
     <g id="line2d_16">
      <defs>
       <path id="m26245d5397" d="M 0 0 
L 3.5 0 
" style="stroke: #000000; stroke-width: 1.5"/>
      </defs>
      <g>
       <use xlink:href="#m26245d5397" x="54.0575" y="394.397496" style="stroke: #000000; stroke-width: 1.5"/>
      </g>
     </g>
     <g id="text_11">
      <!-- $\mathdefault{10^{-7}}$ -->
      <g transform="translate(25.2175 400.600152) scale(0.14 -0.14)">
       <defs>
        <path id="TimesNewRomanPS-BoldMT-2212" d="M 125 2325 
L 3541 2325 
L 3541 1913 
L 125 1913 
L 125 2325 
z
" transform="scale(0.015625)"/>
        <path id="TimesNewRomanPS-BoldMT-37" d="M 1134 -88 
L 2288 3409 
L 1409 3409 
Q 894 3409 634 3275 
Q 453 3181 334 2922 
L 216 2922 
L 522 4238 
L 3047 4238 
L 1625 -88 
L 1134 -88 
z
" transform="scale(0.015625)"/>
       </defs>
       <use xlink:href="#TimesNewRomanPS-BoldMT-31" transform="translate(0 0.2875)"/>
       <use xlink:href="#TimesNewRomanPS-BoldMT-30" transform="translate(50 0.2875)"/>
       <use xlink:href="#TimesNewRomanPS-BoldMT-2212" transform="translate(101.533984 61.646875) scale(0.7)"/>
       <use xlink:href="#TimesNewRomanPS-BoldMT-37" transform="translate(141.42168 61.646875) scale(0.7)"/>
      </g>
     </g>
    </g>
    <g id="ytick_2">
     <g id="line2d_17">
      <g>
       <use xlink:href="#m26245d5397" x="54.0575" y="318.212528" style="stroke: #000000; stroke-width: 1.5"/>
      </g>
     </g>
     <g id="text_12">
      <!-- $\mathdefault{10^{-6}}$ -->
      <g transform="translate(25.2175 324.485184) scale(0.14 -0.14)">
       <use xlink:href="#TimesNewRomanPS-BoldMT-31" transform="translate(0 0.335938)"/>
       <use xlink:href="#TimesNewRomanPS-BoldMT-30" transform="translate(50 0.335938)"/>
       <use xlink:href="#TimesNewRomanPS-BoldMT-2212" transform="translate(101.533984 61.695312) scale(0.7)"/>
       <use xlink:href="#TimesNewRomanPS-BoldMT-36" transform="translate(141.42168 61.695312) scale(0.7)"/>
      </g>
     </g>
    </g>
    <g id="ytick_3">
     <g id="line2d_18">
      <g>
       <use xlink:href="#m26245d5397" x="54.0575" y="242.02756" style="stroke: #000000; stroke-width: 1.5"/>
      </g>
     </g>
     <g id="text_13">
      <!-- $\mathdefault{10^{-5}}$ -->
      <g transform="translate(25.2175 248.230216) scale(0.14 -0.14)">
       <defs>
        <path id="TimesNewRomanPS-BoldMT-35" d="M 975 4238 
L 2959 4238 
L 2644 3431 
L 975 3431 
L 816 3009 
Q 1894 2969 2475 2472 
Q 2953 2063 2953 1453 
Q 2953 1063 2731 689 
Q 2509 316 2106 114 
Q 1703 -88 1222 -88 
Q 703 -88 425 106 
Q 231 244 231 419 
Q 231 553 332 656 
Q 434 759 569 759 
Q 691 759 816 709 
Q 941 659 1244 447 
Q 1434 316 1572 266 
Q 1669 228 1791 228 
Q 2047 228 2226 415 
Q 2406 603 2406 866 
Q 2406 1416 1856 1759 
Q 1306 2103 469 2103 
Q 384 2103 216 2100 
L 975 4238 
z
" transform="scale(0.015625)"/>
       </defs>
       <use xlink:href="#TimesNewRomanPS-BoldMT-31" transform="translate(0 0.2875)"/>
       <use xlink:href="#TimesNewRomanPS-BoldMT-30" transform="translate(50 0.2875)"/>
       <use xlink:href="#TimesNewRomanPS-BoldMT-2212" transform="translate(101.533984 61.646875) scale(0.7)"/>
       <use xlink:href="#TimesNewRomanPS-BoldMT-35" transform="translate(141.42168 61.646875) scale(0.7)"/>
      </g>
     </g>
    </g>
    <g id="ytick_4">
     <g id="line2d_19">
      <g>
       <use xlink:href="#m26245d5397" x="54.0575" y="165.842592" style="stroke: #000000; stroke-width: 1.5"/>
      </g>
     </g>
     <g id="text_14">
      <!-- $\mathdefault{10^{-4}}$ -->
      <g transform="translate(25.2175 172.115248) scale(0.14 -0.14)">
       <use xlink:href="#TimesNewRomanPS-BoldMT-31" transform="translate(0 0.335938)"/>
       <use xlink:href="#TimesNewRomanPS-BoldMT-30" transform="translate(50 0.335938)"/>
       <use xlink:href="#TimesNewRomanPS-BoldMT-2212" transform="translate(101.533984 61.695312) scale(0.7)"/>
       <use xlink:href="#TimesNewRomanPS-BoldMT-34" transform="translate(141.42168 61.695312) scale(0.7)"/>
      </g>
     </g>
    </g>
    <g id="ytick_5">
     <g id="line2d_20">
      <g>
       <use xlink:href="#m26245d5397" x="54.0575" y="89.657624" style="stroke: #000000; stroke-width: 1.5"/>
      </g>
     </g>
     <g id="text_15">
      <!-- $\mathdefault{10^{-3}}$ -->
      <g transform="translate(25.2175 95.93028) scale(0.14 -0.14)">
       <defs>
        <path id="TimesNewRomanPS-BoldMT-33" d="M 947 2125 
L 947 2234 
Q 1303 2338 1440 2427 
Q 1578 2516 1678 2698 
Q 1778 2881 1778 3069 
Q 1778 3328 1589 3514 
Q 1400 3700 1119 3700 
Q 681 3700 375 3238 
L 259 3278 
Q 484 3800 836 4062 
Q 1188 4325 1619 4325 
Q 2059 4325 2345 4056 
Q 2631 3788 2631 3428 
Q 2631 3194 2498 2976 
Q 2366 2759 2081 2594 
Q 2447 2416 2639 2155 
Q 2831 1894 2831 1500 
Q 2831 838 2351 373 
Q 1872 -91 1066 -91 
Q 528 -91 281 88 
Q 103 213 103 409 
Q 103 553 206 654 
Q 309 756 444 756 
Q 547 756 638 713 
Q 688 688 992 439 
Q 1297 191 1563 191 
Q 1794 191 1959 373 
Q 2125 556 2125 838 
Q 2125 1266 1825 1627 
Q 1525 1988 947 2125 
z
" transform="scale(0.015625)"/>
       </defs>
       <use xlink:href="#TimesNewRomanPS-BoldMT-31" transform="translate(0 0.335938)"/>
       <use xlink:href="#TimesNewRomanPS-BoldMT-30" transform="translate(50 0.335938)"/>
       <use xlink:href="#TimesNewRomanPS-BoldMT-2212" transform="translate(101.533984 61.695312) scale(0.7)"/>
       <use xlink:href="#TimesNewRomanPS-BoldMT-33" transform="translate(141.42168 61.695312) scale(0.7)"/>
      </g>
     </g>
    </g>
    <g id="ytick_6">
     <g id="line2d_21">
      <g>
       <use xlink:href="#m26245d5397" x="54.0575" y="13.472656" style="stroke: #000000; stroke-width: 1.5"/>
      </g>
     </g>
     <g id="text_16">
      <!-- $\mathdefault{10^{-2}}$ -->
      <g transform="translate(25.2175 19.745312) scale(0.14 -0.14)">
       <use xlink:href="#TimesNewRomanPS-BoldMT-31" transform="translate(0 0.335938)"/>
       <use xlink:href="#TimesNewRomanPS-BoldMT-30" transform="translate(50 0.335938)"/>
       <use xlink:href="#TimesNewRomanPS-BoldMT-2212" transform="translate(101.533984 61.695312) scale(0.7)"/>
       <use xlink:href="#TimesNewRomanPS-BoldMT-32" transform="translate(141.42168 61.695312) scale(0.7)"/>
      </g>
     </g>
    </g>
    <g id="ytick_7"/>
    <g id="ytick_8"/>
    <g id="ytick_9"/>
    <g id="ytick_10"/>
    <g id="ytick_11"/>
    <g id="ytick_12"/>
    <g id="ytick_13"/>
    <g id="ytick_14"/>
    <g id="ytick_15"/>
    <g id="ytick_16"/>
    <g id="ytick_17"/>
    <g id="ytick_18"/>
    <g id="ytick_19"/>
    <g id="ytick_20"/>
    <g id="ytick_21"/>
    <g id="ytick_22"/>
    <g id="ytick_23"/>
    <g id="ytick_24"/>
    <g id="ytick_25"/>
    <g id="ytick_26"/>
    <g id="ytick_27"/>
    <g id="ytick_28"/>
    <g id="ytick_29"/>
    <g id="ytick_30"/>
    <g id="ytick_31"/>
    <g id="ytick_32"/>
    <g id="ytick_33"/>
    <g id="ytick_34"/>
    <g id="ytick_35"/>
    <g id="ytick_36"/>
    <g id="ytick_37"/>
    <g id="ytick_38"/>
    <g id="ytick_39"/>
    <g id="ytick_40"/>
    <g id="ytick_41"/>
    <g id="ytick_42"/>
    <g id="ytick_43"/>
    <g id="ytick_44"/>
    <g id="ytick_45"/>
    <g id="ytick_46"/>
    <g id="text_17">
     <!-- Absolute Error -->
     <g transform="translate(17.795 254.540618) rotate(-90) scale(0.16 -0.16)">
      <defs>
       <path id="TimesNewRomanPS-BoldMT-41" d="M 2663 1206 
L 1166 1206 
L 988 794 
Q 900 588 900 453 
Q 900 275 1044 191 
Q 1128 141 1459 116 
L 1459 0 
L 50 0 
L 50 116 
Q 278 150 425 304 
Q 572 459 788 944 
L 2303 4325 
L 2363 4325 
L 3891 850 
Q 4109 356 4250 228 
Q 4356 131 4550 116 
L 4550 0 
L 2500 0 
L 2500 116 
L 2584 116 
Q 2831 116 2931 184 
Q 3000 234 3000 328 
Q 3000 384 2981 444 
Q 2975 472 2888 678 
L 2663 1206 
z
M 2556 1438 
L 1925 2897 
L 1275 1438 
L 2556 1438 
z
" transform="scale(0.015625)"/>
       <path id="TimesNewRomanPS-BoldMT-62" d="M 1347 4238 
L 1347 2628 
Q 1716 3009 2153 3009 
Q 2453 3009 2718 2832 
Q 2984 2656 3134 2331 
Q 3284 2006 3284 1581 
Q 3284 1103 3093 712 
Q 2903 322 2584 117 
Q 2266 -88 1856 -88 
Q 1619 -88 1434 -12 
Q 1250 63 1072 231 
L 588 -84 
L 481 -84 
L 481 3631 
Q 481 3884 459 3944 
Q 428 4031 361 4073 
Q 294 4116 134 4122 
L 134 4238 
L 1347 4238 
z
M 1347 2350 
L 1347 1050 
Q 1347 653 1366 544 
Q 1397 359 1515 245 
Q 1634 131 1819 131 
Q 1978 131 2092 222 
Q 2206 313 2282 581 
Q 2359 850 2359 1550 
Q 2359 2222 2191 2472 
Q 2069 2653 1863 2653 
Q 1594 2653 1347 2350 
z
" transform="scale(0.015625)"/>
       <path id="TimesNewRomanPS-BoldMT-6f" d="M 1594 3009 
Q 1975 3009 2303 2812 
Q 2631 2616 2801 2253 
Q 2972 1891 2972 1459 
Q 2972 838 2656 419 
Q 2275 -88 1603 -88 
Q 944 -88 587 375 
Q 231 838 231 1447 
Q 231 2075 595 2542 
Q 959 3009 1594 3009 
z
M 1606 2788 
Q 1447 2788 1333 2667 
Q 1219 2547 1183 2192 
Q 1147 1838 1147 1206 
Q 1147 872 1191 581 
Q 1225 359 1337 243 
Q 1450 128 1594 128 
Q 1734 128 1828 206 
Q 1950 313 1991 503 
Q 2053 800 2053 1703 
Q 2053 2234 1993 2432 
Q 1934 2631 1819 2722 
Q 1738 2788 1606 2788 
z
" transform="scale(0.015625)"/>
       <path id="TimesNewRomanPS-BoldMT-6c" d="M 1359 4238 
L 1359 606 
Q 1359 297 1431 211 
Q 1503 125 1713 113 
L 1713 0 
L 134 0 
L 134 113 
Q 328 119 422 225 
Q 484 297 484 606 
L 484 3631 
Q 484 3938 412 4023 
Q 341 4109 134 4122 
L 134 4238 
L 1359 4238 
z
" transform="scale(0.015625)"/>
       <path id="TimesNewRomanPS-BoldMT-75" d="M 3038 2922 
L 3038 634 
Q 3038 300 3100 217 
Q 3163 134 3353 113 
L 3353 0 
L 2163 0 
L 2163 391 
Q 1953 141 1743 26 
Q 1534 -88 1275 -88 
Q 1028 -88 836 64 
Q 644 216 578 419 
Q 513 622 513 1128 
L 513 2288 
Q 513 2619 452 2700 
Q 391 2781 197 2806 
L 197 2922 
L 1388 2922 
L 1388 925 
Q 1388 613 1417 522 
Q 1447 431 1511 384 
Q 1575 338 1659 338 
Q 1772 338 1863 397 
Q 1988 478 2163 725 
L 2163 2288 
Q 2163 2619 2102 2700 
Q 2041 2781 1847 2806 
L 1847 2922 
L 3038 2922 
z
" transform="scale(0.015625)"/>
       <path id="TimesNewRomanPS-BoldMT-74" d="M 1375 3991 
L 1375 2922 
L 2069 2922 
L 2069 2613 
L 1375 2613 
L 1375 809 
Q 1375 556 1398 482 
Q 1422 409 1481 364 
Q 1541 319 1591 319 
Q 1794 319 1975 628 
L 2069 559 
Q 1816 -41 1247 -41 
Q 969 -41 776 114 
Q 584 269 531 459 
Q 500 566 500 1034 
L 500 2613 
L 119 2613 
L 119 2722 
Q 513 3000 789 3306 
Q 1066 3613 1272 3991 
L 1375 3991 
z
" transform="scale(0.015625)"/>
       <path id="TimesNewRomanPS-BoldMT-20" transform="scale(0.015625)"/>
       <path id="TimesNewRomanPS-BoldMT-45" d="M 1744 3994 
L 1744 2269 
L 1828 2269 
Q 2231 2269 2412 2522 
Q 2594 2775 2644 3269 
L 2763 3269 
L 2763 1050 
L 2644 1050 
Q 2606 1413 2486 1644 
Q 2366 1875 2206 1954 
Q 2047 2034 1744 2034 
L 1744 841 
Q 1744 491 1773 412 
Q 1803 334 1884 284 
Q 1966 234 2147 234 
L 2400 234 
Q 2994 234 3351 509 
Q 3709 784 3866 1347 
L 3981 1347 
L 3791 0 
L 128 0 
L 128 116 
L 269 116 
Q 453 116 566 181 
Q 647 225 691 331 
Q 725 406 725 725 
L 725 3513 
Q 725 3800 709 3866 
Q 678 3975 594 4034 
Q 475 4122 269 4122 
L 128 4122 
L 128 4238 
L 3675 4238 
L 3675 2984 
L 3556 2984 
Q 3466 3444 3302 3644 
Q 3138 3844 2838 3938 
Q 2663 3994 2181 3994 
L 1744 3994 
z
" transform="scale(0.015625)"/>
       <path id="TimesNewRomanPS-BoldMT-72" d="M 1428 2922 
L 1428 2259 
Q 1719 2713 1937 2861 
Q 2156 3009 2359 3009 
Q 2534 3009 2639 2901 
Q 2744 2794 2744 2597 
Q 2744 2388 2642 2272 
Q 2541 2156 2397 2156 
Q 2231 2156 2109 2262 
Q 1988 2369 1966 2381 
Q 1934 2400 1894 2400 
Q 1803 2400 1722 2331 
Q 1594 2225 1528 2028 
Q 1428 1725 1428 1359 
L 1428 688 
L 1431 513 
Q 1431 334 1453 284 
Q 1491 200 1564 161 
Q 1638 122 1813 113 
L 1813 0 
L 234 0 
L 234 113 
Q 425 128 492 217 
Q 559 306 559 688 
L 559 2303 
Q 559 2553 534 2622 
Q 503 2709 443 2750 
Q 384 2791 234 2806 
L 234 2922 
L 1428 2922 
z
" transform="scale(0.015625)"/>
      </defs>
      <use xlink:href="#TimesNewRomanPS-BoldMT-41"/>
      <use xlink:href="#TimesNewRomanPS-BoldMT-62" x="72.216797"/>
      <use xlink:href="#TimesNewRomanPS-BoldMT-73" x="127.832031"/>
      <use xlink:href="#TimesNewRomanPS-BoldMT-6f" x="166.748047"/>
      <use xlink:href="#TimesNewRomanPS-BoldMT-6c" x="216.748047"/>
      <use xlink:href="#TimesNewRomanPS-BoldMT-75" x="244.53125"/>
      <use xlink:href="#TimesNewRomanPS-BoldMT-74" x="300.146484"/>
      <use xlink:href="#TimesNewRomanPS-BoldMT-65" x="333.447266"/>
      <use xlink:href="#TimesNewRomanPS-BoldMT-20" x="377.832031"/>
      <use xlink:href="#TimesNewRomanPS-BoldMT-45" x="402.832031"/>
      <use xlink:href="#TimesNewRomanPS-BoldMT-72" x="469.53125"/>
      <use xlink:href="#TimesNewRomanPS-BoldMT-72" x="513.916016"/>
      <use xlink:href="#TimesNewRomanPS-BoldMT-6f" x="556.550781"/>
      <use xlink:href="#TimesNewRomanPS-BoldMT-72" x="606.550781"/>
     </g>
    </g>
   </g>
   <g id="patch_3">
    <path d="M 54.0575 396.504368 
L 54.0575 8.424368 
" style="fill: none; stroke: #000000; stroke-width: 1.5; stroke-linejoin: miter; stroke-linecap: square"/>
   </g>
   <g id="patch_4">
    <path d="M 444.6575 396.504368 
L 444.6575 8.424368 
" style="fill: none; stroke: #000000; stroke-width: 1.5; stroke-linejoin: miter; stroke-linecap: square"/>
   </g>
   <g id="patch_5">
    <path d="M 54.0575 396.504368 
L 444.6575 396.504368 
" style="fill: none; stroke: #000000; stroke-width: 1.5; stroke-linejoin: miter; stroke-linecap: square"/>
   </g>
   <g id="patch_6">
    <path d="M 54.0575 8.424368 
L 444.6575 8.424368 
" style="fill: none; stroke: #000000; stroke-width: 1.5; stroke-linejoin: miter; stroke-linecap: square"/>
   </g>
   <g id="PathCollection_1">
    <defs>
     <path id="mb54e7c9f66" d="M 0 3.354102 
C 0.889518 3.354102 1.742724 3.000693 2.371708 2.371708 
C 3.000693 1.742724 3.354102 0.889518 3.354102 0 
C 3.354102 -0.889518 3.000693 -1.742724 2.371708 -2.371708 
C 1.742724 -3.000693 0.889518 -3.354102 0 -3.354102 
C -0.889518 -3.354102 -1.742724 -3.000693 -2.371708 -2.371708 
C -3.000693 -1.742724 -3.354102 -0.889518 -3.354102 0 
C -3.354102 0.889518 -3.000693 1.742724 -2.371708 2.371708 
C -1.742724 3.000693 -0.889518 3.354102 0 3.354102 
z
" style="stroke: #db443c"/>
    </defs>
    <g clip-path="url(#pc839fb94f9)">
     <use xlink:href="#mb54e7c9f66" x="71.812045" y="150.543064" style="fill: #ffffff; stroke: #db443c"/>
     <use xlink:href="#mb54e7c9f66" x="90.501041" y="149.775163" style="fill: #ffffff; stroke: #db443c"/>
     <use xlink:href="#mb54e7c9f66" x="109.190036" y="118.379972" style="fill: #ffffff; stroke: #db443c"/>
     <use xlink:href="#mb54e7c9f66" x="127.879031" y="181.690063" style="fill: #ffffff; stroke: #db443c"/>
     <use xlink:href="#mb54e7c9f66" x="146.568026" y="158.883915" style="fill: #ffffff; stroke: #db443c"/>
     <use xlink:href="#mb54e7c9f66" x="165.257022" y="153.443683" style="fill: #ffffff; stroke: #db443c"/>
     <use xlink:href="#mb54e7c9f66" x="183.946017" y="152.198772" style="fill: #ffffff; stroke: #db443c"/>
     <use xlink:href="#mb54e7c9f66" x="202.635012" y="121.286589" style="fill: #ffffff; stroke: #db443c"/>
     <use xlink:href="#mb54e7c9f66" x="221.324007" y="117.376565" style="fill: #ffffff; stroke: #db443c"/>
     <use xlink:href="#mb54e7c9f66" x="240.013002" y="141.572532" style="fill: #ffffff; stroke: #db443c"/>
     <use xlink:href="#mb54e7c9f66" x="258.701998" y="144.88125" style="fill: #ffffff; stroke: #db443c"/>
     <use xlink:href="#mb54e7c9f66" x="277.390993" y="118.548712" style="fill: #ffffff; stroke: #db443c"/>
     <use xlink:href="#mb54e7c9f66" x="296.079988" y="84.171235" style="fill: #ffffff; stroke: #db443c"/>
     <use xlink:href="#mb54e7c9f66" x="314.768983" y="147.444305" style="fill: #ffffff; stroke: #db443c"/>
     <use xlink:href="#mb54e7c9f66" x="333.457978" y="119.768141" style="fill: #ffffff; stroke: #db443c"/>
     <use xlink:href="#mb54e7c9f66" x="352.146974" y="170.07922" style="fill: #ffffff; stroke: #db443c"/>
     <use xlink:href="#mb54e7c9f66" x="370.835969" y="143.602015" style="fill: #ffffff; stroke: #db443c"/>
     <use xlink:href="#mb54e7c9f66" x="389.524964" y="118.741564" style="fill: #ffffff; stroke: #db443c"/>
     <use xlink:href="#mb54e7c9f66" x="408.213959" y="164.950676" style="fill: #ffffff; stroke: #db443c"/>
     <use xlink:href="#mb54e7c9f66" x="426.902955" y="116.971663" style="fill: #ffffff; stroke: #db443c"/>
    </g>
   </g>
   <g id="PathCollection_2">
    <defs>
     <path id="m521b86020c" d="M 0 3.354102 
C 0.889518 3.354102 1.742724 3.000693 2.371708 2.371708 
C 3.000693 1.742724 3.354102 0.889518 3.354102 0 
C 3.354102 -0.889518 3.000693 -1.742724 2.371708 -2.371708 
C 1.742724 -3.000693 0.889518 -3.354102 0 -3.354102 
C -0.889518 -3.354102 -1.742724 -3.000693 -2.371708 -2.371708 
C -3.000693 -1.742724 -3.354102 -0.889518 -3.354102 0 
C -3.354102 0.889518 -3.000693 1.742724 -2.371708 2.371708 
C -1.742724 3.000693 -0.889518 3.354102 0 3.354102 
z
" style="stroke: #5682bb"/>
    </defs>
    <g clip-path="url(#pc839fb94f9)">
     <use xlink:href="#m521b86020c" x="71.812045" y="160.51474" style="fill: #ffffff; stroke: #5682bb"/>
     <use xlink:href="#m521b86020c" x="90.501041" y="140.579725" style="fill: #ffffff; stroke: #5682bb"/>
     <use xlink:href="#m521b86020c" x="109.190036" y="130.886324" style="fill: #ffffff; stroke: #5682bb"/>
     <use xlink:href="#m521b86020c" x="127.879031" y="102.686675" style="fill: #ffffff; stroke: #5682bb"/>
     <use xlink:href="#m521b86020c" x="146.568026" y="55.701644" style="fill: #ffffff; stroke: #5682bb"/>
     <use xlink:href="#m521b86020c" x="165.257022" y="101.679582" style="fill: #ffffff; stroke: #5682bb"/>
     <use xlink:href="#m521b86020c" x="183.946017" y="174.869828" style="fill: #ffffff; stroke: #5682bb"/>
     <use xlink:href="#m521b86020c" x="202.635012" y="105.041584" style="fill: #ffffff; stroke: #5682bb"/>
     <use xlink:href="#m521b86020c" x="221.324007" y="26.064368" style="fill: #ffffff; stroke: #5682bb"/>
     <use xlink:href="#m521b86020c" x="240.013002" y="162.477288" style="fill: #ffffff; stroke: #5682bb"/>
     <use xlink:href="#m521b86020c" x="258.701998" y="119.651434" style="fill: #ffffff; stroke: #5682bb"/>
     <use xlink:href="#m521b86020c" x="277.390993" y="181.916543" style="fill: #ffffff; stroke: #5682bb"/>
     <use xlink:href="#m521b86020c" x="296.079988" y="83.356466" style="fill: #ffffff; stroke: #5682bb"/>
     <use xlink:href="#m521b86020c" x="314.768983" y="139.969757" style="fill: #ffffff; stroke: #5682bb"/>
     <use xlink:href="#m521b86020c" x="333.457978" y="108.744832" style="fill: #ffffff; stroke: #5682bb"/>
     <use xlink:href="#m521b86020c" x="352.146974" y="101.121688" style="fill: #ffffff; stroke: #5682bb"/>
     <use xlink:href="#m521b86020c" x="370.835969" y="125.071737" style="fill: #ffffff; stroke: #5682bb"/>
     <use xlink:href="#m521b86020c" x="389.524964" y="109.066689" style="fill: #ffffff; stroke: #5682bb"/>
     <use xlink:href="#m521b86020c" x="408.213959" y="124.604232" style="fill: #ffffff; stroke: #5682bb"/>
     <use xlink:href="#m521b86020c" x="426.902955" y="109.327603" style="fill: #ffffff; stroke: #5682bb"/>
    </g>
   </g>
   <g id="PathCollection_3">
    <defs>
     <path id="m2a8b713ded" d="M 0 3.354102 
C 0.889518 3.354102 1.742724 3.000693 2.371708 2.371708 
C 3.000693 1.742724 3.354102 0.889518 3.354102 0 
C 3.354102 -0.889518 3.000693 -1.742724 2.371708 -2.371708 
C 1.742724 -3.000693 0.889518 -3.354102 0 -3.354102 
C -0.889518 -3.354102 -1.742724 -3.000693 -2.371708 -2.371708 
C -3.000693 -1.742724 -3.354102 -0.889518 -3.354102 0 
C -3.354102 0.889518 -3.000693 1.742724 -2.371708 2.371708 
C -1.742724 3.000693 -0.889518 3.354102 0 3.354102 
z
" style="stroke: #fdb670"/>
    </defs>
    <g clip-path="url(#pc839fb94f9)">
     <use xlink:href="#m2a8b713ded" x="71.812045" y="168.207401" style="fill: #ffffff; stroke: #fdb670"/>
     <use xlink:href="#m2a8b713ded" x="90.501041" y="200.162921" style="fill: #ffffff; stroke: #fdb670"/>
     <use xlink:href="#m2a8b713ded" x="109.190036" y="124.265934" style="fill: #ffffff; stroke: #fdb670"/>
     <use xlink:href="#m2a8b713ded" x="127.879031" y="193.592804" style="fill: #ffffff; stroke: #fdb670"/>
     <use xlink:href="#m2a8b713ded" x="146.568026" y="199.641096" style="fill: #ffffff; stroke: #fdb670"/>
     <use xlink:href="#m2a8b713ded" x="165.257022" y="163.743996" style="fill: #ffffff; stroke: #fdb670"/>
     <use xlink:href="#m2a8b713ded" x="183.946017" y="211.309413" style="fill: #ffffff; stroke: #fdb670"/>
     <use xlink:href="#m2a8b713ded" x="202.635012" y="132.461281" style="fill: #ffffff; stroke: #fdb670"/>
     <use xlink:href="#m2a8b713ded" x="221.324007" y="214.535984" style="fill: #ffffff; stroke: #fdb670"/>
     <use xlink:href="#m2a8b713ded" x="240.013002" y="192.958819" style="fill: #ffffff; stroke: #fdb670"/>
     <use xlink:href="#m2a8b713ded" x="258.701998" y="262.65359" style="fill: #ffffff; stroke: #fdb670"/>
     <use xlink:href="#m2a8b713ded" x="277.390993" y="167.021933" style="fill: #ffffff; stroke: #fdb670"/>
     <use xlink:href="#m2a8b713ded" x="296.079988" y="114.229203" style="fill: #ffffff; stroke: #fdb670"/>
     <use xlink:href="#m2a8b713ded" x="314.768983" y="187.921278" style="fill: #ffffff; stroke: #fdb670"/>
     <use xlink:href="#m2a8b713ded" x="333.457978" y="204.318558" style="fill: #ffffff; stroke: #fdb670"/>
     <use xlink:href="#m2a8b713ded" x="352.146974" y="157.676401" style="fill: #ffffff; stroke: #fdb670"/>
     <use xlink:href="#m2a8b713ded" x="370.835969" y="166.486961" style="fill: #ffffff; stroke: #fdb670"/>
     <use xlink:href="#m2a8b713ded" x="389.524964" y="136.313589" style="fill: #ffffff; stroke: #fdb670"/>
     <use xlink:href="#m2a8b713ded" x="408.213959" y="181.680349" style="fill: #ffffff; stroke: #fdb670"/>
     <use xlink:href="#m2a8b713ded" x="426.902955" y="183.513241" style="fill: #ffffff; stroke: #fdb670"/>
    </g>
   </g>
   <g id="PathCollection_4">
    <defs>
     <path id="m4da5b7b330" d="M 0 3.354102 
C 0.889518 3.354102 1.742724 3.000693 2.371708 2.371708 
C 3.000693 1.742724 3.354102 0.889518 3.354102 0 
C 3.354102 -0.889518 3.000693 -1.742724 2.371708 -2.371708 
C 1.742724 -3.000693 0.889518 -3.354102 0 -3.354102 
C -0.889518 -3.354102 -1.742724 -3.000693 -2.371708 -2.371708 
C -3.000693 -1.742724 -3.354102 -0.889518 -3.354102 0 
C -3.354102 0.889518 -3.000693 1.742724 -2.371708 2.371708 
C -1.742724 3.000693 -0.889518 3.354102 0 3.354102 
z
" style="stroke: #82b5d5"/>
    </defs>
    <g clip-path="url(#pc839fb94f9)">
     <use xlink:href="#m4da5b7b330" x="71.812045" y="289.22479" style="fill: #ffffff; stroke: #82b5d5"/>
     <use xlink:href="#m4da5b7b330" x="90.501041" y="183.585691" style="fill: #ffffff; stroke: #82b5d5"/>
     <use xlink:href="#m4da5b7b330" x="109.190036" y="114.785616" style="fill: #ffffff; stroke: #82b5d5"/>
     <use xlink:href="#m4da5b7b330" x="127.879031" y="201.126512" style="fill: #ffffff; stroke: #82b5d5"/>
     <use xlink:href="#m4da5b7b330" x="146.568026" y="163.246297" style="fill: #ffffff; stroke: #82b5d5"/>
     <use xlink:href="#m4da5b7b330" x="165.257022" y="263.012834" style="fill: #ffffff; stroke: #82b5d5"/>
     <use xlink:href="#m4da5b7b330" x="183.946017" y="219.777646" style="fill: #ffffff; stroke: #82b5d5"/>
     <use xlink:href="#m4da5b7b330" x="202.635012" y="162.045582" style="fill: #ffffff; stroke: #82b5d5"/>
     <use xlink:href="#m4da5b7b330" x="221.324007" y="166.130128" style="fill: #ffffff; stroke: #82b5d5"/>
     <use xlink:href="#m4da5b7b330" x="240.013002" y="213.972027" style="fill: #ffffff; stroke: #82b5d5"/>
     <use xlink:href="#m4da5b7b330" x="258.701998" y="171.252237" style="fill: #ffffff; stroke: #82b5d5"/>
     <use xlink:href="#m4da5b7b330" x="277.390993" y="168.766114" style="fill: #ffffff; stroke: #82b5d5"/>
     <use xlink:href="#m4da5b7b330" x="296.079988" y="105.268733" style="fill: #ffffff; stroke: #82b5d5"/>
     <use xlink:href="#m4da5b7b330" x="314.768983" y="368.651423" style="fill: #ffffff; stroke: #82b5d5"/>
     <use xlink:href="#m4da5b7b330" x="333.457978" y="153.501377" style="fill: #ffffff; stroke: #82b5d5"/>
     <use xlink:href="#m4da5b7b330" x="352.146974" y="252.065414" style="fill: #ffffff; stroke: #82b5d5"/>
     <use xlink:href="#m4da5b7b330" x="370.835969" y="265.775338" style="fill: #ffffff; stroke: #82b5d5"/>
     <use xlink:href="#m4da5b7b330" x="389.524964" y="141.041955" style="fill: #ffffff; stroke: #82b5d5"/>
     <use xlink:href="#m4da5b7b330" x="408.213959" y="187.703747" style="fill: #ffffff; stroke: #82b5d5"/>
     <use xlink:href="#m4da5b7b330" x="426.902955" y="178.257574" style="fill: #ffffff; stroke: #82b5d5"/>
    </g>
   </g>
   <g id="PathCollection_5">
    <defs>
     <path id="me98985c510" d="M 0 3.354102 
C 0.889518 3.354102 1.742724 3.000693 2.371708 2.371708 
C 3.000693 1.742724 3.354102 0.889518 3.354102 0 
C 3.354102 -0.889518 3.000693 -1.742724 2.371708 -2.371708 
C 1.742724 -3.000693 0.889518 -3.354102 0 -3.354102 
C -0.889518 -3.354102 -1.742724 -3.000693 -2.371708 -2.371708 
C -3.000693 -1.742724 -3.354102 -0.889518 -3.354102 0 
C -3.354102 0.889518 -3.000693 1.742724 -2.371708 2.371708 
C -1.742724 3.000693 -0.889518 3.354102 0 3.354102 
z
" style="stroke: #f57b56"/>
    </defs>
    <g clip-path="url(#pc839fb94f9)">
     <use xlink:href="#me98985c510" x="71.812045" y="252.705376" style="fill: #ffffff; stroke: #f57b56"/>
     <use xlink:href="#me98985c510" x="90.501041" y="315.967899" style="fill: #ffffff; stroke: #f57b56"/>
     <use xlink:href="#me98985c510" x="109.190036" y="272.948932" style="fill: #ffffff; stroke: #f57b56"/>
     <use xlink:href="#me98985c510" x="127.879031" y="242.036558" style="fill: #ffffff; stroke: #f57b56"/>
     <use xlink:href="#me98985c510" x="146.568026" y="245.538534" style="fill: #ffffff; stroke: #f57b56"/>
     <use xlink:href="#me98985c510" x="165.257022" y="244.307382" style="fill: #ffffff; stroke: #f57b56"/>
     <use xlink:href="#me98985c510" x="183.946017" y="254.456784" style="fill: #ffffff; stroke: #f57b56"/>
     <use xlink:href="#me98985c510" x="202.635012" y="217.529698" style="fill: #ffffff; stroke: #f57b56"/>
     <use xlink:href="#me98985c510" x="221.324007" y="278.130878" style="fill: #ffffff; stroke: #f57b56"/>
     <use xlink:href="#me98985c510" x="240.013002" y="248.787158" style="fill: #ffffff; stroke: #f57b56"/>
     <use xlink:href="#me98985c510" x="258.701998" y="261.73577" style="fill: #ffffff; stroke: #f57b56"/>
     <use xlink:href="#me98985c510" x="277.390993" y="240.250105" style="fill: #ffffff; stroke: #f57b56"/>
     <use xlink:href="#me98985c510" x="296.079988" y="196.410525" style="fill: #ffffff; stroke: #f57b56"/>
     <use xlink:href="#me98985c510" x="314.768983" y="378.864368" style="fill: #ffffff; stroke: #f57b56"/>
     <use xlink:href="#me98985c510" x="333.457978" y="261.015845" style="fill: #ffffff; stroke: #f57b56"/>
     <use xlink:href="#me98985c510" x="352.146974" y="244.183426" style="fill: #ffffff; stroke: #f57b56"/>
     <use xlink:href="#me98985c510" x="370.835969" y="250.81656" style="fill: #ffffff; stroke: #f57b56"/>
     <use xlink:href="#me98985c510" x="389.524964" y="202.068675" style="fill: #ffffff; stroke: #f57b56"/>
     <use xlink:href="#me98985c510" x="408.213959" y="320.983143" style="fill: #ffffff; stroke: #f57b56"/>
     <use xlink:href="#me98985c510" x="426.902955" y="279.64457" style="fill: #ffffff; stroke: #f57b56"/>
    </g>
   </g>
   <g id="PathCollection_6">
    <defs>
     <path id="mca56daac5a" d="M 0 3.354102 
C 0.889518 3.354102 1.742724 3.000693 2.371708 2.371708 
C 3.000693 1.742724 3.354102 0.889518 3.354102 0 
C 3.354102 -0.889518 3.000693 -1.742724 2.371708 -2.371708 
C 1.742724 -3.000693 0.889518 -3.354102 0 -3.354102 
C -0.889518 -3.354102 -1.742724 -3.000693 -2.371708 -2.371708 
C -3.000693 -1.742724 -3.354102 -0.889518 -3.354102 0 
C -3.354102 0.889518 -3.000693 1.742724 -2.371708 2.371708 
C -1.742724 3.000693 -0.889518 3.354102 0 3.354102 
z
" style="stroke: #454a9f"/>
    </defs>
    <g clip-path="url(#pc839fb94f9)">
     <use xlink:href="#mca56daac5a" x="71.812045" y="100.230557" style="fill: #ffffff; stroke: #454a9f"/>
     <use xlink:href="#mca56daac5a" x="90.501041" y="144.022752" style="fill: #ffffff; stroke: #454a9f"/>
     <use xlink:href="#mca56daac5a" x="109.190036" y="77.547247" style="fill: #ffffff; stroke: #454a9f"/>
     <use xlink:href="#mca56daac5a" x="127.879031" y="100.518652" style="fill: #ffffff; stroke: #454a9f"/>
     <use xlink:href="#mca56daac5a" x="146.568026" y="109.122823" style="fill: #ffffff; stroke: #454a9f"/>
     <use xlink:href="#mca56daac5a" x="165.257022" y="110.757725" style="fill: #ffffff; stroke: #454a9f"/>
     <use xlink:href="#mca56daac5a" x="183.946017" y="136.397259" style="fill: #ffffff; stroke: #454a9f"/>
     <use xlink:href="#mca56daac5a" x="202.635012" y="87.729375" style="fill: #ffffff; stroke: #454a9f"/>
     <use xlink:href="#mca56daac5a" x="221.324007" y="252.92511" style="fill: #ffffff; stroke: #454a9f"/>
     <use xlink:href="#mca56daac5a" x="240.013002" y="142.545089" style="fill: #ffffff; stroke: #454a9f"/>
     <use xlink:href="#mca56daac5a" x="258.701998" y="179.867833" style="fill: #ffffff; stroke: #454a9f"/>
     <use xlink:href="#mca56daac5a" x="277.390993" y="84.905474" style="fill: #ffffff; stroke: #454a9f"/>
     <use xlink:href="#mca56daac5a" x="296.079988" y="75.936786" style="fill: #ffffff; stroke: #454a9f"/>
     <use xlink:href="#mca56daac5a" x="314.768983" y="147.578362" style="fill: #ffffff; stroke: #454a9f"/>
     <use xlink:href="#mca56daac5a" x="333.457978" y="138.162662" style="fill: #ffffff; stroke: #454a9f"/>
     <use xlink:href="#mca56daac5a" x="352.146974" y="111.747064" style="fill: #ffffff; stroke: #454a9f"/>
     <use xlink:href="#mca56daac5a" x="370.835969" y="108.893552" style="fill: #ffffff; stroke: #454a9f"/>
     <use xlink:href="#mca56daac5a" x="389.524964" y="96.515779" style="fill: #ffffff; stroke: #454a9f"/>
     <use xlink:href="#mca56daac5a" x="408.213959" y="134.708563" style="fill: #ffffff; stroke: #454a9f"/>
     <use xlink:href="#mca56daac5a" x="426.902955" y="113.481148" style="fill: #ffffff; stroke: #454a9f"/>
    </g>
   </g>
   <g id="text_18">
    <!-- (c) -->
    <g transform="translate(412.962312 32.008643) scale(0.18 -0.18)">
     <defs>
      <path id="TimesNewRomanPS-BoldMT-28" d="M 2056 4334 
L 2056 4191 
Q 1731 3978 1578 3775 
Q 1366 3494 1247 3053 
Q 1097 2506 1097 1525 
Q 1097 600 1233 87 
Q 1369 -425 1603 -741 
Q 1766 -959 2056 -1125 
L 2056 -1281 
Q 1303 -1028 779 -248 
Q 256 531 256 1544 
Q 256 2544 778 3314 
Q 1300 4084 2056 4334 
z
" transform="scale(0.015625)"/>
      <path id="TimesNewRomanPS-BoldMT-63" d="M 2600 753 
L 2697 678 
Q 2491 291 2183 101 
Q 1875 -88 1528 -88 
Q 944 -88 594 353 
Q 244 794 244 1413 
Q 244 2009 563 2463 
Q 947 3009 1622 3009 
Q 2075 3009 2342 2781 
Q 2609 2553 2609 2272 
Q 2609 2094 2501 1987 
Q 2394 1881 2219 1881 
Q 2034 1881 1914 2003 
Q 1794 2125 1766 2438 
Q 1747 2634 1675 2713 
Q 1603 2791 1506 2791 
Q 1356 2791 1250 2631 
Q 1088 2391 1088 1894 
Q 1088 1481 1219 1104 
Q 1350 728 1578 544 
Q 1750 409 1984 409 
Q 2138 409 2275 481 
Q 2413 553 2600 753 
z
" transform="scale(0.015625)"/>
      <path id="TimesNewRomanPS-BoldMT-29" d="M 78 -1281 
L 78 -1138 
Q 403 -922 556 -719 
Q 766 -438 888 0 
Q 1038 550 1038 1531 
Q 1038 2456 902 2967 
Q 766 3478 531 3794 
Q 369 4013 78 4178 
L 78 4334 
Q 831 4081 1354 3301 
Q 1878 2522 1878 1509 
Q 1878 513 1354 -257 
Q 831 -1028 78 -1281 
z
" transform="scale(0.015625)"/>
     </defs>
     <use xlink:href="#TimesNewRomanPS-BoldMT-28"/>
     <use xlink:href="#TimesNewRomanPS-BoldMT-63" x="33.300781"/>
     <use xlink:href="#TimesNewRomanPS-BoldMT-29" x="77.685547"/>
    </g>
   </g>
   <g id="legend_1">
    <g id="line2d_22">
     <path d="M 206.242188 285.56968 
L 219.242188 285.56968 
L 232.242188 285.56968 
" style="fill: none; stroke: #db443c; stroke-opacity: 0.9; stroke-width: 2; stroke-linecap: square"/>
    </g>
    <g id="text_19">
     <!-- ALAMO -->
     <g transform="translate(242.642188 290.11968) scale(0.13 -0.13)">
      <defs>
       <path id="TimesNewRomanPS-BoldMT-4c" d="M 4041 1488 
L 3881 0 
L 119 0 
L 119 116 
L 259 116 
Q 444 116 556 181 
Q 638 225 681 331 
Q 716 406 716 725 
L 716 3513 
Q 716 3838 681 3919 
Q 647 4000 542 4061 
Q 438 4122 259 4122 
L 119 4122 
L 119 4238 
L 2378 4238 
L 2378 4122 
L 2194 4122 
Q 2009 4122 1897 4056 
Q 1816 4013 1769 3906 
Q 1734 3831 1734 3513 
L 1734 813 
Q 1734 488 1771 398 
Q 1809 309 1919 266 
Q 1997 238 2297 238 
L 2650 238 
Q 2988 238 3213 356 
Q 3438 475 3602 731 
Q 3766 988 3913 1488 
L 4041 1488 
z
" transform="scale(0.015625)"/>
       <path id="TimesNewRomanPS-BoldMT-4d" d="M 3050 1444 
L 4200 4238 
L 5925 4238 
L 5925 4122 
L 5788 4122 
Q 5600 4122 5488 4056 
Q 5409 4013 5363 3909 
Q 5328 3834 5328 3519 
L 5328 725 
Q 5328 400 5362 319 
Q 5397 238 5503 177 
Q 5609 116 5788 116 
L 5925 116 
L 5925 0 
L 3713 0 
L 3713 116 
L 3850 116 
Q 4038 116 4150 181 
Q 4228 225 4275 331 
Q 4309 406 4309 725 
L 4309 3866 
L 2684 0 
L 2609 0 
L 959 3838 
L 959 853 
Q 959 541 975 469 
Q 1016 313 1152 214 
Q 1288 116 1578 116 
L 1578 0 
L 128 0 
L 128 116 
L 172 116 
Q 313 113 434 161 
Q 556 209 618 290 
Q 681 372 716 519 
Q 722 553 722 838 
L 722 3519 
Q 722 3841 687 3920 
Q 653 4000 547 4061 
Q 441 4122 263 4122 
L 128 4122 
L 128 4238 
L 1859 4238 
L 3050 1444 
z
" transform="scale(0.015625)"/>
       <path id="TimesNewRomanPS-BoldMT-4f" d="M 2472 4297 
Q 3484 4334 4117 3706 
Q 4750 3078 4750 2134 
Q 4750 1328 4278 716 
Q 3653 -97 2513 -97 
Q 1369 -97 744 678 
Q 250 1291 250 2131 
Q 250 3075 892 3704 
Q 1534 4334 2472 4297 
z
M 2509 4097 
Q 1928 4097 1625 3503 
Q 1378 3016 1378 2103 
Q 1378 1019 1759 500 
Q 2025 138 2503 138 
Q 2825 138 3041 294 
Q 3316 494 3469 933 
Q 3622 1372 3622 2078 
Q 3622 2919 3465 3336 
Q 3309 3753 3067 3925 
Q 2825 4097 2509 4097 
z
" transform="scale(0.015625)"/>
      </defs>
      <use xlink:href="#TimesNewRomanPS-BoldMT-41"/>
      <use xlink:href="#TimesNewRomanPS-BoldMT-4c" x="72.216797"/>
      <use xlink:href="#TimesNewRomanPS-BoldMT-41" x="138.916016"/>
      <use xlink:href="#TimesNewRomanPS-BoldMT-4d" x="211.132812"/>
      <use xlink:href="#TimesNewRomanPS-BoldMT-4f" x="305.517578"/>
     </g>
    </g>
    <g id="line2d_23">
     <path d="M 206.242188 303.950462 
L 219.242188 303.950462 
L 232.242188 303.950462 
" style="fill: none; stroke: #f57b56; stroke-opacity: 0.9; stroke-width: 2.5; stroke-linecap: square"/>
    </g>
    <g id="text_20">
     <!-- NDCT -->
     <g transform="translate(242.642188 308.500462) scale(0.13 -0.13)">
      <defs>
       <path id="TimesNewRomanPS-BoldMT-4e" d="M 1594 4238 
L 3684 1609 
L 3684 3431 
Q 3684 3813 3575 3947 
Q 3425 4128 3072 4122 
L 3072 4238 
L 4472 4238 
L 4472 4122 
Q 4203 4088 4111 4033 
Q 4019 3978 3967 3854 
Q 3916 3731 3916 3431 
L 3916 -97 
L 3809 -97 
L 944 3431 
L 944 738 
Q 944 372 1111 244 
Q 1278 116 1494 116 
L 1594 116 
L 1594 0 
L 91 0 
L 91 116 
Q 441 119 578 259 
Q 716 400 716 738 
L 716 3728 
L 625 3841 
Q 491 4009 387 4062 
Q 284 4116 91 4122 
L 91 4238 
L 1594 4238 
z
" transform="scale(0.015625)"/>
       <path id="TimesNewRomanPS-BoldMT-44" d="M 84 0 
L 84 116 
L 225 116 
Q 409 116 507 173 
Q 606 231 653 331 
Q 681 397 681 725 
L 681 3513 
Q 681 3838 647 3919 
Q 613 4000 508 4061 
Q 403 4122 225 4122 
L 84 4122 
L 84 4238 
L 1981 4238 
Q 2741 4238 3203 4031 
Q 3769 3778 4061 3265 
Q 4353 2753 4353 2106 
Q 4353 1659 4209 1282 
Q 4066 906 3837 661 
Q 3609 416 3311 267 
Q 3013 119 2581 38 
Q 2391 0 1981 0 
L 84 0 
z
M 1700 3997 
L 1700 691 
Q 1700 428 1725 368 
Q 1750 309 1809 278 
Q 1894 231 2053 231 
Q 2575 231 2850 588 
Q 3225 1069 3225 2081 
Q 3225 2897 2969 3384 
Q 2766 3766 2447 3903 
Q 2222 4000 1700 3997 
z
" transform="scale(0.015625)"/>
       <path id="TimesNewRomanPS-BoldMT-54" d="M 4038 4238 
L 4038 3091 
L 3925 3091 
Q 3825 3488 3703 3661 
Q 3581 3834 3369 3938 
Q 3250 3994 2953 3994 
L 2638 3994 
L 2638 725 
Q 2638 400 2673 319 
Q 2709 238 2814 177 
Q 2919 116 3100 116 
L 3241 116 
L 3241 0 
L 1022 0 
L 1022 116 
L 1163 116 
Q 1347 116 1459 181 
Q 1541 225 1588 331 
Q 1622 406 1622 725 
L 1622 3994 
L 1316 3994 
Q 888 3994 694 3813 
Q 422 3559 350 3091 
L 231 3091 
L 231 4238 
L 4038 4238 
z
" transform="scale(0.015625)"/>
      </defs>
      <use xlink:href="#TimesNewRomanPS-BoldMT-4e"/>
      <use xlink:href="#TimesNewRomanPS-BoldMT-44" x="72.216797"/>
      <use xlink:href="#TimesNewRomanPS-BoldMT-43" x="144.433594"/>
      <use xlink:href="#TimesNewRomanPS-BoldMT-54" x="216.650391"/>
     </g>
    </g>
    <g id="line2d_24">
     <path d="M 206.242188 322.331243 
L 219.242188 322.331243 
L 232.242188 322.331243 
" style="fill: none; stroke: #fdb670; stroke-opacity: 0.9; stroke-width: 2; stroke-linecap: square"/>
    </g>
    <g id="text_21">
     <!-- PLY -->
     <g transform="translate(242.642188 326.881243) scale(0.13 -0.13)">
      <defs>
       <path id="TimesNewRomanPS-BoldMT-50" d="M 1728 1919 
L 1728 744 
Q 1728 400 1770 311 
Q 1813 222 1920 169 
Q 2028 116 2316 116 
L 2316 0 
L 163 0 
L 163 116 
Q 456 116 561 170 
Q 666 225 708 312 
Q 750 400 750 744 
L 750 3494 
Q 750 3838 708 3927 
Q 666 4016 559 4069 
Q 453 4122 163 4122 
L 163 4238 
L 2009 4238 
Q 2922 4238 3319 3913 
Q 3716 3588 3716 3100 
Q 3716 2688 3459 2394 
Q 3203 2100 2753 1994 
Q 2450 1919 1728 1919 
z
M 1728 3994 
L 1728 2163 
Q 1831 2156 1884 2156 
Q 2266 2156 2472 2382 
Q 2678 2609 2678 3084 
Q 2678 3556 2472 3775 
Q 2266 3994 1856 3994 
L 1728 3994 
z
" transform="scale(0.015625)"/>
       <path id="TimesNewRomanPS-BoldMT-59" d="M 4550 4238 
L 4550 4122 
Q 4341 4094 4228 4000 
Q 4072 3869 3734 3284 
L 2816 1750 
L 2816 725 
Q 2816 397 2850 317 
Q 2884 238 2986 177 
Q 3088 116 3256 116 
L 3494 116 
L 3494 0 
L 1116 0 
L 1116 116 
L 1338 116 
Q 1525 116 1634 181 
Q 1716 225 1763 331 
Q 1797 406 1797 725 
L 1797 1575 
L 800 3391 
Q 503 3928 381 4023 
Q 259 4119 56 4122 
L 56 4238 
L 2088 4238 
L 2088 4122 
L 1997 4122 
Q 1813 4122 1739 4069 
Q 1666 4016 1666 3956 
Q 1666 3844 1916 3391 
L 2681 1988 
L 3444 3266 
Q 3728 3734 3728 3888 
Q 3728 3972 3647 4028 
Q 3541 4106 3256 4122 
L 3256 4238 
L 4550 4238 
z
" transform="scale(0.015625)"/>
      </defs>
      <use xlink:href="#TimesNewRomanPS-BoldMT-50"/>
      <use xlink:href="#TimesNewRomanPS-BoldMT-4c" x="61.083984"/>
      <use xlink:href="#TimesNewRomanPS-BoldMT-59" x="118.658203"/>
     </g>
    </g>
    <g id="line2d_25">
     <path d="M 206.242188 340.712024 
L 219.242188 340.712024 
L 232.242188 340.712024 
" style="fill: none; stroke: #82b5d5; stroke-opacity: 0.9; stroke-width: 2; stroke-linecap: square"/>
    </g>
    <g id="text_22">
     <!-- RBF -->
     <g transform="translate(242.642188 345.262024) scale(0.13 -0.13)">
      <defs>
       <path id="TimesNewRomanPS-BoldMT-52" d="M 1700 1931 
L 1700 744 
Q 1700 400 1742 311 
Q 1784 222 1890 169 
Q 1997 116 2288 116 
L 2288 0 
L 119 0 
L 119 116 
Q 413 116 517 170 
Q 622 225 664 312 
Q 706 400 706 744 
L 706 3494 
Q 706 3838 664 3927 
Q 622 4016 515 4069 
Q 409 4122 119 4122 
L 119 4238 
L 2088 4238 
Q 2856 4238 3212 4131 
Q 3569 4025 3794 3739 
Q 4019 3453 4019 3069 
Q 4019 2600 3681 2294 
Q 3466 2100 3078 2003 
L 4097 569 
Q 4297 291 4381 222 
Q 4509 125 4678 116 
L 4678 0 
L 3344 0 
L 1978 1931 
L 1700 1931 
z
M 1700 4009 
L 1700 2153 
L 1878 2153 
Q 2313 2153 2528 2233 
Q 2744 2313 2867 2520 
Q 2991 2728 2991 3063 
Q 2991 3547 2764 3778 
Q 2538 4009 2034 4009 
L 1700 4009 
z
" transform="scale(0.015625)"/>
       <path id="TimesNewRomanPS-BoldMT-42" d="M 2847 2247 
Q 3450 2106 3694 1906 
Q 4044 1622 4044 1169 
Q 4044 691 3659 378 
Q 3188 0 2288 0 
L 134 0 
L 134 116 
Q 428 116 533 170 
Q 638 225 680 312 
Q 722 400 722 744 
L 722 3494 
Q 722 3838 680 3927 
Q 638 4016 531 4069 
Q 425 4122 134 4122 
L 134 4238 
L 2166 4238 
Q 2894 4238 3197 4108 
Q 3500 3978 3675 3720 
Q 3850 3463 3850 3172 
Q 3850 2866 3628 2627 
Q 3406 2388 2847 2247 
z
M 1709 2331 
Q 2153 2331 2364 2431 
Q 2575 2531 2687 2712 
Q 2800 2894 2800 3175 
Q 2800 3456 2689 3636 
Q 2578 3816 2372 3909 
Q 2166 4003 1709 4000 
L 1709 2331 
z
M 1709 2088 
L 1709 728 
L 1706 572 
Q 1706 403 1792 317 
Q 1878 231 2047 231 
Q 2297 231 2508 342 
Q 2719 453 2831 664 
Q 2944 875 2944 1134 
Q 2944 1431 2806 1667 
Q 2669 1903 2428 1997 
Q 2188 2091 1709 2088 
z
" transform="scale(0.015625)"/>
       <path id="TimesNewRomanPS-BoldMT-46" d="M 1759 3994 
L 1759 2253 
L 1881 2253 
Q 2163 2253 2341 2337 
Q 2519 2422 2642 2622 
Q 2766 2822 2803 3163 
L 2913 3163 
L 2913 1034 
L 2803 1034 
Q 2744 1638 2480 1830 
Q 2216 2022 1881 2022 
L 1759 2022 
L 1759 725 
Q 1759 400 1795 319 
Q 1831 238 1936 177 
Q 2041 116 2219 116 
L 2359 116 
L 2359 0 
L 144 0 
L 144 116 
L 284 116 
Q 469 116 581 181 
Q 663 225 706 331 
Q 741 406 741 725 
L 741 3513 
Q 741 3838 706 3919 
Q 672 4000 567 4061 
Q 463 4122 284 4122 
L 144 4122 
L 144 4238 
L 3719 4238 
L 3719 3022 
L 3591 3022 
Q 3547 3450 3367 3656 
Q 3188 3863 2847 3947 
Q 2659 3994 2153 3994 
L 1759 3994 
z
" transform="scale(0.015625)"/>
      </defs>
      <use xlink:href="#TimesNewRomanPS-BoldMT-52"/>
      <use xlink:href="#TimesNewRomanPS-BoldMT-42" x="72.216797"/>
      <use xlink:href="#TimesNewRomanPS-BoldMT-46" x="138.916016"/>
     </g>
    </g>
    <g id="line2d_26">
     <path d="M 206.242188 359.092805 
L 219.242188 359.092805 
L 232.242188 359.092805 
" style="fill: none; stroke: #5682bb; stroke-opacity: 0.9; stroke-width: 2; stroke-linecap: square"/>
    </g>
    <g id="text_23">
     <!-- KRG -->
     <g transform="translate(242.642188 363.642805) scale(0.13 -0.13)">
      <defs>
       <path id="TimesNewRomanPS-BoldMT-4b" d="M 2666 2616 
L 4156 750 
Q 4472 356 4700 216 
Q 4866 116 5050 116 
L 5050 0 
L 2844 0 
L 2844 116 
Q 3053 134 3114 181 
Q 3175 228 3175 297 
Q 3175 428 2888 791 
L 1916 2013 
L 1759 1881 
L 1759 725 
Q 1759 394 1796 312 
Q 1834 231 1940 173 
Q 2047 116 2281 116 
L 2281 0 
L 144 0 
L 144 116 
L 284 116 
Q 469 116 581 181 
Q 663 225 706 331 
Q 741 406 741 725 
L 741 3513 
Q 741 3838 706 3919 
Q 672 4000 567 4061 
Q 463 4122 284 4122 
L 144 4122 
L 144 4238 
L 2253 4238 
L 2253 4122 
Q 2038 4122 1925 4059 
Q 1844 4016 1797 3913 
Q 1759 3834 1759 3513 
L 1759 2194 
L 3331 3466 
Q 3659 3731 3659 3891 
Q 3659 4009 3525 4078 
Q 3456 4113 3184 4122 
L 3184 4238 
L 4838 4238 
L 4838 4122 
Q 4616 4106 4489 4042 
Q 4363 3978 3906 3609 
L 2666 2616 
z
" transform="scale(0.015625)"/>
       <path id="TimesNewRomanPS-BoldMT-47" d="M 4416 4334 
L 4416 2841 
L 4300 2841 
Q 4091 3453 3672 3772 
Q 3253 4091 2756 4091 
Q 2281 4091 1965 3823 
Q 1650 3556 1519 3078 
Q 1388 2600 1388 2097 
Q 1388 1488 1531 1028 
Q 1675 569 1995 353 
Q 2316 138 2756 138 
Q 2909 138 3070 170 
Q 3231 203 3400 266 
L 3400 1147 
Q 3400 1397 3365 1470 
Q 3331 1544 3223 1603 
Q 3116 1663 2963 1663 
L 2853 1663 
L 2853 1778 
L 4913 1778 
L 4913 1663 
Q 4678 1647 4586 1598 
Q 4494 1550 4444 1438 
Q 4416 1378 4416 1147 
L 4416 266 
Q 4009 84 3570 -8 
Q 3131 -100 2659 -100 
Q 2056 -100 1657 64 
Q 1259 228 954 495 
Q 650 763 478 1097 
Q 259 1528 259 2063 
Q 259 3019 931 3678 
Q 1603 4338 2622 4338 
Q 2938 4338 3191 4288 
Q 3328 4263 3636 4145 
Q 3944 4028 4000 4028 
Q 4088 4028 4163 4092 
Q 4238 4156 4300 4334 
L 4416 4334 
z
" transform="scale(0.015625)"/>
      </defs>
      <use xlink:href="#TimesNewRomanPS-BoldMT-4b"/>
      <use xlink:href="#TimesNewRomanPS-BoldMT-52" x="77.783203"/>
      <use xlink:href="#TimesNewRomanPS-BoldMT-47" x="150"/>
     </g>
    </g>
    <g id="line2d_27">
     <path d="M 206.242188 377.473587 
L 219.242188 377.473587 
L 232.242188 377.473587 
" style="fill: none; stroke: #454a9f; stroke-opacity: 0.9; stroke-width: 2; stroke-linecap: square"/>
    </g>
    <g id="text_24">
     <!-- Keras -->
     <g transform="translate(242.642188 382.023587) scale(0.13 -0.13)">
      <use xlink:href="#TimesNewRomanPS-BoldMT-4b"/>
      <use xlink:href="#TimesNewRomanPS-BoldMT-65" x="77.783203"/>
      <use xlink:href="#TimesNewRomanPS-BoldMT-72" x="122.167969"/>
      <use xlink:href="#TimesNewRomanPS-BoldMT-61" x="166.552734"/>
      <use xlink:href="#TimesNewRomanPS-BoldMT-73" x="216.552734"/>
     </g>
    </g>
   </g>
  </g>
 </g>
 <defs>
  <clipPath id="pc839fb94f9">
   <rect x="54.0575" y="8.424368" width="390.6" height="388.08"/>
  </clipPath>
 </defs>
</svg>
